/* XPM */
static char *cannon_ball_xpm[] = {
/* columns rows colors chars-per-pixel */
"50 50 2 1 ",
"  c #222222",
". c #FFFFFE",
/* pixels */
"..................................................",
"..................................................",
"..................................................",
"..................................................",
"..................................................",
"..................................................",
"..................................................",
"..................................................",
"..................................................",
"..................................................",
"..................................................",
"..................................................",
"..................................................",
"..................................................",
"......................      ......................",
"....................          ....................",
"..................              ..................",
".................                .................",
".................                .................",
"................                  ................",
"................                  ................",
"...............                    ...............",
"...............                    ...............",
"...............                    ...............",
"...............                    ...............",
"...............                    ...............",
"...............                    ...............",
"................                  ................",
"................                  ................",
".................                .................",
".................                .................",
"..................              ..................",
"....................          ....................",
"......................      ......................",
"..................................................",
"..................................................",
"..................................................",
"..................................................",
"..................................................",
"..................................................",
"..................................................",
"..................................................",
"..................................................",
"..................................................",
"..................................................",
"..................................................",
"..................................................",
"..................................................",
"..................................................",
".................................................."
};
