/* XPM */
static char *cloud1_xpm[] = {
/* columns rows colors chars-per-pixel */
"50 50 3 1 ",
"  c #95D2F0",
". c #E5E5E5",
"X c #FFFFFE",
/* pixels */
"XXXXXXXXXXXXXXXXXXXXXXXXXXXXXXXXXXXXXXXXXXXXXXXXXX",
"XXXXXXXXXXXXXXXXXXXXXXXXXXXXXXXXXXXXXXXXXXXXXXXXXX",
"XXXXXXXXXXXXXXXXXXXXXXXXXXXXXXXXXXXXXXXXXXXXXXXXXX",
"XXXXXXXXXXXXXXXXXXXXXXXXXXXXXXXXXXXXXXXXXXXXXXXXXX",
"XXXXXXXXXXXXXXXXXXXXXXXXXXXXXXXXXXXXXXXXXXXXXXXXXX",
"XXXXXXXXXXXXXXXXXXXXXXXXXXXXXXXXXXXXXXXXXXXXXXXXXX",
"XXXXXXXXXXXXXXXXXXXXXXXXXXXXXXXXXXXXXXXXXXXXXXXXXX",
"XXXXXXXXXXXXXXXXXXXXXXXXXXXXXXXXXXXXXXXXXXXXXXXXXX",
"XXXXXXXXXXXXXXXXXXXXXXXXXXXXXXXXXXXXXXXXXXXXXXXXXX",
"XXXXXXXXXXXXXXXXXXXXXXXXXXXXXXXXXXXXXXXXXXXXXXXXXX",
"XXXXXXXXXXXXXXXXXXXXXXXXXXXXXXXXXXXXXXXXXXXXXXXXXX",
"XXXXXXXXXX   ..............XXXXXXXXXXXXXXXXXXXXXXX",
"XXXXXXXXXX   ..............XXXXXXXXXXXXXXXXXXXXXXX",
"XXXXXXXXXX   ....   .......XXXXXXXXXXXXXXXXXXXXXXX",
"XXXXXXXXXX   ....   .......XXXXXXXXXXXXXXXXXXXXXXX",
"XXXXXXXXXX   ....   .......XXXXXXXXXXXXXXXXXXXXXXX",
"XXXXXXXXXXXXX    ......    .....XXXXXXXXXXXXXXXXXX",
"XXXXXXXXXXXXX    ......    .....XXXXXXXXXXXXXXXXXX",
"XXXXXXXXXXXXX    ......    .....XXXXXXXXXXXXXXXXXX",
"XXXXXXXXXXXXX    ......    .....XXXXXXXXXXXXXXXXXX",
"XXXXXXX          ......    ........XXXXXXXXXXXXXXX",
"XXXXXXX          ......    ........XXXXXXXXXXXXXXX",
"XXXXXXX          ......    ........XXXXXXXXXXXXXXX",
"XXX    ............................   XXXXXXXXXXXX",
"XXX    ............................   XXXXXXXXXXXX",
"XXX    ............................   XXXXXXXXXXXX",
"XXX    ...................................XXXXXXXX",
"XXX    ...................................XXXXXXXX",
"XXX    ...................................XXXXXXXX",
"XXX    ...................................XXXXXXXX",
"XX        .......                  .............XX",
"XX        .......                  .............XX",
"XX        .......                  .............XX",
"XXXXXXXXXXXXXXXXXXXXXXXXXXXXXXXXXXXXXXXXXXXXXXXXXX",
"XXXXXXXXXXXXXXXXXXXXXXXXXXXXXXXXXXXXXXXXXXXXXXXXXX",
"XXXXXXXXXXXXXXXXXXXXXXXXXXXXXXXXXXXXXXXXXXXXXXXXXX",
"XXXXXXXXXXXXXXXXXXXXXXXXXXXXXXXXXXXXXXXXXXXXXXXXXX",
"XXXXXXXXXXXXXXXXXXXXXXXXXXXXXXXXXXXXXXXXXXXXXXXXXX",
"XXXXXXXXXXXXXXXXXXXXXXXXXXXXXXXXXXXXXXXXXXXXXXXXXX",
"XXXXXXXXXXXXXXXXXXXXXXXXXXXXXXXXXXXXXXXXXXXXXXXXXX",
"XXXXXXXXXXXXXXXXXXXXXXXXXXXXXXXXXXXXXXXXXXXXXXXXXX",
"XXXXXXXXXXXXXXXXXXXXXXXXXXXXXXXXXXXXXXXXXXXXXXXXXX",
"XXXXXXXXXXXXXXXXXXXXXXXXXXXXXXXXXXXXXXXXXXXXXXXXXX",
"XXXXXXXXXXXXXXXXXXXXXXXXXXXXXXXXXXXXXXXXXXXXXXXXXX",
"XXXXXXXXXXXXXXXXXXXXXXXXXXXXXXXXXXXXXXXXXXXXXXXXXX",
"XXXXXXXXXXXXXXXXXXXXXXXXXXXXXXXXXXXXXXXXXXXXXXXXXX",
"XXXXXXXXXXXXXXXXXXXXXXXXXXXXXXXXXXXXXXXXXXXXXXXXXX",
"XXXXXXXXXXXXXXXXXXXXXXXXXXXXXXXXXXXXXXXXXXXXXXXXXX",
"XXXXXXXXXXXXXXXXXXXXXXXXXXXXXXXXXXXXXXXXXXXXXXXXXX",
"XXXXXXXXXXXXXXXXXXXXXXXXXXXXXXXXXXXXXXXXXXXXXXXXXX"
};
