/* XPM */
static char *cursor_normal[] = {
/* columns rows colors chars-per-pixel */
"20 20 3 1 ",
"  c #FFFFFE",
"x c #000000",
". c #FFFFFF",
/* pixels */
"x                   ",
"x.x                 ",  
"x..x                ",
"x...x               ",
"x....x              ",
"x.....x             ",
"x......x            ",  
"x.......x           ",
"x........x          ",
"x.........x         ",
"x..........x        ",
"x.......xxx         ",
"x......x            ",
"x...x...x           ",
"x..x x..x           ",
"x.x   x..x          ",
"xx    x..x          ",
"       xx           ",
"                    ",
"                    "
};
