/* XPM */
static char *cursor_click[] = {
/* columns rows colors chars-per-pixel */
"20 20 3 1 ",
"  c #FFFFFE",
"x c #000000",
". c #FFFFFF",
/* pixels */
"      xx            ",
"     x..x           ",
"     x..x           ",
"     x..x           ",
"     x..xxx         ",
"     x..x..xxx      ",
"     x..x..x..xx    ",
"xxx  x..x..x..x.x   ",
"x..x x..x..x..x..x  ",
"x...xx........x..x  ",
" x...x...........x  ",
"  x..............x  ",
"  x..............x  ",
"   x.............x  ",
"   x............x   ",
"    x...........x   ",
"    x...........x   ",
"     x.........x    ",
"     x.........x    ",
"     xxxxxxxxxxx    "
};
