/* XPM */
static char *Otower4[] = {
/* columns rows colors chars-per-pixel */
"80 130 62 1 ",
"  c #000000",
". c #020202",
"X c #030303",
"o c #040404",
"O c #050505",
"+ c #101010",
"@ c #151515",
"# c #1A1A1A",
"$ c #1B1B1B",
"% c #1E1E1E",
"& c #52312E",
"* c #525245",
"= c #565649",
"- c #57574A",
"; c #59594C",
": c #5A5A4D",
"> c #5F5F5F",
", c #636353",
"< c #646453",
"1 c #646454",
"2 c #747464",
"3 c #757565",
"4 c #767666",
"5 c #916144",
"6 c #906145",
"7 c #916245",
"8 c #936448",
"9 c #96694E",
"0 c #EBA100",
"q c #EBA001",
"w c #EBA101",
"e c #ECA100",
"r c #ECA101",
"t c #ECA202",
"y c #ECA305",
"u c #EDA711",
"i c #A9A999",
"p c #ABAB9B",
"a c #ACAC9C",
"s c #AEAE9E",
"d c #AFAF9F",
"f c #B0B0A0",
"g c #B1B1A1",
"h c #B1B1A2",
"j c #B2B2A2",
"k c #B3B3A3",
"l c #B6B6A6",
"z c #B7B7A7",
"x c #C7C7B2",
"c c #C8C8B3",
"v c #C8C8B4",
"b c #C9C9B4",
"n c #C9C9B5",
"m c #FFFFFE",
"M c #FFFFFE",
"N c #FFFFFE",
"B c #FFFFFE",
"V c #FFFFFE",
"C c #FFFFFE",
"Z c #FFFFFE",
"A c #FFFFFE",
"S c #FFFFFE",
/* pixels */
"SSSSSSSSSSSSSSSSSSSSSSSSSSSSSSSSSSSSSSSSSSSSSSSSSSSSSSSSSSSSSSSSSSSSSSSSSSSSSSSS",
"SSSSSSSSSSSSSSSSSSSSSSSSSSSSSSSSSSSSSSSSSSSSSSSSSSSSSSSSSSSSSSSSSSSSSSSSSSSSSSSS",
"SSSSSSSSSSSSSSSSSSSSSSSSSSSSSSSSSSSSSSSSSSSSSSSSSSSSSSSSSSSSSSSSSSSSSSSSSSSSSSSS",
"SSSSSSSSSSSSSSSSSSSSSSSSSSSSSSSSSSSSSSSSSSSSSSSSSSSSSSSSSSSSSSSSSSSSSSSSSSSSSSSS",
"SSSSSSSS@oOoXX@SSSSSSSSSSSSSSSSSSSSSSSSSSSSSSSSSSSSSSSSSSSSSSSSSSSSSSSSSSSSSSSSS",
"SSSSSSS@O<:1:<X@SSSSSSSSSSSSSSSSSSSSSSSSSSSSSSSSSSSSSSSSSSSSSSSSSSSSSSSSSSSSSSSS",
"SSSSSS$@:####::oO@SSSSSSSSSSSSSSSSSSSSSSSSSSSSSSreeeeeeeuuuueeeeeeeeeeeeeeeeeryy",
"SSSSS$X:######:::OSSSSSSSSSSSSSSSSSSSSSSSSSSSSSSeeeeeeeeeeeeeeeeeeeeeeeeeeeeeryy",
"SSSSS$:<@@###@#:1O@SSSSSSSSSSSSSSSSSSSSSSSSSSSSSreeeeeeeeeeeeeeeeeeeeeeeeeeeeryy",
"SSSSS$:<#######<::@@SSSSSSSSSSSSSSSSSSSSSSSSSSSSreeeeeeeeeeeeeeeeeeeeeeeeeeeeryy",
"SSSSS%::#####@#::::@SSSSSSSSSSSSSSSSSSSSSSSSSSSSreeeeeeeeeeeeeeeeeeeeeeeeeeeeryy",
"SSSSS%:<##@###::<<:o@SSSSSSSSSSSSSSSSSSSSSSSSSSSreeeeeeeeeeeeeeeeeeeeeeeeeeeeryy",
"SSSSS$X<<#####<<<:::@SSSSSSSSSSSSSSSSSSSSSSSSSSSreeeeeeeeeeeeeeeeeeeeeeeeeeeeryy",
"SSSSSSX:::::<<<<<<::o@SSSSSSSSSSSSSSSSSSSSSSSSSSreeeeeeeeeeeeeeeeeeeeeeeeeeeeryy",
"SSSSSS%o::<<<<<<<<:::oSSSSSSSSSSSSSSSSSSSSSSSSSSreeeeeeeeeeeeerrrreerrrrrrrrrtyy",
"SSSSSS%O><:<<<<<<<<::o@SSSSSSSSSSSSSSSSSSSSSSSSSreeeeeeeeeeeerSSSSSSSSSSSSSSSSSS",
"SSSSSSS%+:<11<<<<<<<::@SSSSSSSSSSSSSSSSSSSSSSSSSreeeeeeeeeeeerVSSSSSSSSSSSSSSSSS",
"SSSSSSSS%:1<1<<<1.......SSSSSSSSSSSSSSSSSSSSSSSSreeeeeeeeeeeerNSSSSSSSSSSSSSSSSS",
"SSSSSSSS#@11111..6666666..SSSSSSSSSSSSSSSSSSSSSSreeeeeeeeeeeeeMSSSSSSSSSSSSSSSSS",
"SSSSSSSSS$:11..66..666..66..SSSSSSSSSSSSSSSSSSSSwwwq0tttttttttVSSSSSSSSSSSSSSSSS",
"SSSSSSSSS$@:.66..1.666.1..66.XSSSSSSSSSSSSSSSSSS55555SSSSSSSSSSSSSSSSSSSSSSSSSSS",
"SSSSSSSS$9$X888X11X888X11X888XSSSSSSSSSSSSSSSSSS75557ZSSSSSSSSSSSSSSSSSSSSSSSSSS",
"SSSSSSSX8SX8X855X1X888XXX888X8XSSSSSSSSSSSSSSSSS75557ZSSSSSSSSSSSSSSSSSSSSSSSSSS",
"SSSSSSX8SX8X1X858XX888X8888XSX8XSSSSSSSSSSSSSSSS75557SSSSSSSSSSSSSSSSSSSSSSSSSSS",
"vvvvv333348X@1X858 bvvvv3333333334SSSSkjjj43333355555kkkkkkkkk-====-SSSSSSSSSSSS",
"ccccc222238XS@1X888ccccc2222222223SSSSjjjj32222255555jjjjjjjjj-====-SSSSSSSSSSSS",
"ccccc222238XXXXXX88ccccc2222222223SSSSjjjj32222255555jjjjjjjjj-====-SSSSSSSSSSSS",
"ccccc22223888888888ccccc2222222223SSSSjjjj32222255555jjjjjjjjj======SSSSSSSSSSSS",
"ccccc22223888888888ccccc2222222223SSSSkjjj32222255555jjjjjjjjj======SSSSSSSSSSSS",
"ccccx22222444444444bcccc22222222223333jjjj32222222222222222222======SSSSSSSSSSSS",
"jjjjj22222222222222jjjjs22222222222222jjjj32222222222222222222======SSSSSSSSSSSS",
"jjjjj22222222222222jjjjf22222222222222jjjj32222222222222222222======SSSSSSSSSSSS",
"jjjjj22222222222222jjjjf22222222222222jjjj32222222222222222222=====-SSSSSSSSSSSS",
"jjjjj22222222222222jjjjf22222222222222233332222========2222222=====-SSSSSSSSSSSS",
"22222cccccccccciaapjjjjkccccccccccjjjj222222222========2222222222223SSSSSSSSSSSS",
"22222cccccccccckllzkjjgkccccccccccjjjj222222222========2222222222223SSSSSSSSSSSS",
"22222ccccccccccdjjjjjjgkccccccccccjjjj222222222========2222222222223SSSSSSSSSSSS",
"22222ccccccccccdjjjjjjgkccccccccccjjjj222222222========2222222222223SSSSSSSSSSSS",
"22222ccccccccccdjjjjjjgkccccccccccjjjj222222222222=====2222222222223SSSSSSSSSSSS",
"jjjjkgggggggggjjjjjjjjjjhggggggggjjjjjkjjg32222222=====2222222222223SSSSSSSSSSSS",
"jjjjjjjjjjjjjjjjjjjjjjjjjjjjjjjjjjjjjjjjjj32222222=====2222222222223SSSSSSSSSSSS",
"jjjjjjjjjjjjjjjjjjjjjjjjjjjjjjjjjjjjjjjjjj32222222=====2222222222223SSSSSSSSSSSS",
"jjjjjjjjjjjjjjjjjjjjjjjjjjjjjjjjjjjjjjjjjj32222222=====2222222222223SSSSSSSSSSSS",
"CCCC4222222222222222222222222222222222222232222222=====2222222233333SSSSSSSSSSSS",
"SSSS42222222222222222222222222222222222222222222222222222222223BCCCCSSSSSSSSSSSS",
"SSSS32222222222222222222222222222222222222222222222222222222223SSSSSSSSSSSSSSSSS",
"SSSS32222222222222222222222222222222222222222222222222222222223CSSSSSSSSSSSSSSSS",
"SSSS32222222222222222222222222222222222222222222222222222222223CSSSSSSSSSSSSSSSS",
"SSSS32222222222222222222222222222222222222222222222222222222223CSSSSSSSSSSSSSSSS",
"SSSSSjjjjjjjjjjjjjjjjjjjjjjjjjjjjjjjjg2222222222222222222222223CSSSSSSSSSSSSSSSS",
"SSSSSjjjjjjjjjjjjjjjjjjjjjjjjjjjjjjjjj2222222222222222222222223CSSSSSSSSSSSSSSSS",
"SSSSSjjjjjjjjjjccccccccccjjjjjjjjjjjjj2222222222222222222222223CSSSSSSSSSSSSSSSS",
"SSSSSjjjjjjjjjjccccccccccjjjjjjjjjjjjj222222222=============223CSSSSSSSSSSSSSSSS",
"SSSSA22222jjjjjccccccccccjjjjjjjj32222222222222=============223CSSSSSSSSSSSSSSSS",
"SSSSC22222jjjjjccccccccccjjjjjjjj22222222222222=============223CSSSSSSSSSSSSSSSS",
"SSSSC22222jjjjjjjjjjjjjjjjjjjjjjj22222222222222=============223CSSSSSSSSSSSSSSSS",
"SSSSC22222jjjjjjjjjjjjjjjjjjjjjjj22222222222222=============223CSSSSSSSSSSSSSSSS",
"SSSSC22222jjjjjjjjjjjjjjjjjjjjjjj222222222222222222222222222223CSSSSSSSSSSSSSSSS",
"SSSSSjjjjjjjjj==========jjjjjjjjj333332222222222222222222222223SSSSSSSSSSSSSSSSS",
"SSSSSjjjjjjjjj==========jjjjjjjjjjjjjj2222222222222222222222223CSSSSSSSSSSSSSSSS",
"SSSSSjjjjjjjjj==========jjjjjjjjjjjjjj2222222222222222222222223CSSSSSSSSSSSSSSSS",
"SSSSSjjjjjjjjj========*;jjjjjjjjjjjjjj2222222222222222222222223CSSSSSSSSSSSSSSSS",
"SSSSSjjjjjjjjj=========;jjjjjjjjjjjjjj2222222222222222222222223CSSSSSSSSSSSSSSSS",
"SSSSC22222jjjj==========jjjjjjjjj222222222222222222222222222223CSSSSSSSSSSSSSSSS",
"SSSSS22222jjjj==========jjjjjjjjj222222222222222222222222222223CSSSSSSSSSSSSSSSS",
"SSSSC22222jjjj==========jjjjjjjjj222222222222222222222222222223CSSSSSSSSSSSSSSSS",
"SSSSC22222jjjj==========jjjjjjjjj22222222222=======222222222223CSSSSSSSSSSSSSSSS",
"SSSSA22222jjjj==========jjjjjjjjj32222222222=======222222222223CSSSSSSSSSSSSSSSS",
"SSSSSjjjjjjjjjjjjjjjjjjjjjjjjjjjjjjjjj222222=======222222222223CSSSSSSSSSSSSSSSS",
"SSSSSjjjjjjjjjjjjjjjjjjjjjjjjjjjjjjjjj222222=======222222222223CSSSSSSSSSSSSSSSS",
"SSSSSjjjjjjjjjjjjjjjjjjjjjjjjjjjjjjjjj222222=======222222222223CSSSSSSSSSSSSSSSS",
"SSSSSjjjjjjjjjjjjjjjjjjjjjjjjjjjjjjjjj2222222222222222222222223SSSSSSSSSSSSSSSSS",
"SSSSSjjjjjjjjjjjjjjjjjjjjjjjjjjjjjjjjj2222222222222222222222223CSSSSSSSSSSSSSSSS",
"SSSSC22222222222222jjjjjjcccccccccccjj2222222222222222222222223CSSSSSSSSSSSSSSSS",
"SSSSC22222222222222jjjjjjcccccccccccjj2222222222222222222222223CSSSSSSSSSSSSSSSS",
"SSSSC22222222222222jjjjjjcccccccccccjj2222222222222222222222222CSSSSSSSSSSSSSSSS",
"SSSSC22222222222222jjjjjjcccccccccccjj2222222222============222CSSSSSSSSSSSSSSSS",
"SSSSSjjjjjjjjjjjjjjjjjjjjjjjjjjjjjjjjj2222222222============222CSSSSSSSSSSSSSSSS",
"SSSSSjjjjjjjjjjjjjjjjjjjjjjjjjjjjjjjjj2222222222============223CSSSSSSSSSSSSSSSS",
"SSSSSjjjjjjjjjjjjjjjjjjjjjjjjjjjjjjjjj2222222222============223CSSSSSSSSSSSSSSSS",
"SSSSSjjjjccccccccccjjjjjjjjjjjjjjjjjjj2222222222============223CSSSSSSSSSSSSSSSS",
"SSSSSjjjjccccccccccjjjjjjjjjjjjjjjjjjj2222222222222222222222223CSSSSSSSSSSSSSSSS",
"SSSSSjjjjccccccccccjjjjj222222222222222222222222222222222222223CSSSSSSSSSSSSSSSS",
"SSSSSjjjjccccccccccjjjjj222222222222222222222222222222222222223CSSSSSSSSSSSSSSSS",
"SSSSSjjjjjjjjjjjjjjjjjjj222222222222222222222222222222222222223CSSSSSSSSSSSSSSSS",
"SSSSSjjjjjjjjjjjjjjjjjjj222222222222222222222222222222222222223SSSSSSSSSSSSSSSSS",
"SSSSSjjjjjjjjjjjjjjjjjjj222222222222222222222222222222222222223CSSSSSSSSSSSSSSSS",
"SSSSC,,,,,jjjj==========jjjjjjjjjj22222222222222222222222222223CSSSSSSSSSSSSSSSS",
"SSSSC,,,,,jjjj==========jjjjjjjjjj22222222222222222222222222223CSSSSSSSSSSSSSSSS",
"SSSSC,,,,,jjjj==========jjjjjjjjjj22222222222222222222222222223CSSSSSSSSSSSSSSSS",
"SSSSC,,,,,jjjj==========jjjjjjjjjj222222222222============22223CSSSSSSSSSSSSSSSS",
"SSSSA,,,,,jjjj==========jjjjjjjjjj222222222222============22223CSSSSSSSSSSSSSSSS",
"SSSSSjjjjjjjjj==========jjjjjjjjjjjjjj22222222============22223CSSSSSSSSSSSSSSSS",
"SSSSSjjjjjjjjj==========jjjjjjjjjjjjjj22222222============22223CSSSSSSSSSSSSSSSS",
"SSSSSjjjjjjjjj==========jjjjjjjjjjjjjj22222222============22223CSSSSSSSSSSSSSSSS",
"SSSSSjjjjjjjjj==========jjjjjjjjjjjjjj22222222============22223CSSSSSSSSSSSSSSSS",
"SSSSSjjjjjjjjj==========jjjjjjjjjjjjjj22222222222222======22223CSSSSSSSSSSSSSSSS",
"SSSSSjjjjjjjjjjjjjjjjjjjjjjjjjjjjjjjjj22222222222222======22223CSSSSSSSSSSSSSSSS",
"SSSSSjjjjjjjjjjjjjjjjjjjjjjjjjjjjjjjjj22222222222222======22223CSSSSSSSSSSSSSSSS",
"SSSSSjjjjjjjjjjjjjjjjjjjjjjjjjjjjjjjjj22222222222222======22223SSSSSSSSSSSSSSSSS",
"SSSSSjjjjjjjjjjjjjjjjjjjjjjjjjjjjjjjjj22222222222222======22223CSSSSSSSSSSSSSSSS",
"SSSSA,,,,,jjjjjjjjjjjjjjjjcccccccc222222222222222222======22223CSSSSSSSSSSSSSSSS",
"SSSSC,,,,,jjjjjjjjjjjjjjjjcccccccc222222222222222222======22223CSSSSSSSSSSSSSSSS",
"SSSSC,,,,,jjjjjjjjjjjjjjjjcccccccc222222222222222222======22223CSSSSSSSSSSSSSSSS",
"SSSSC,,,,,jjjjjjjjjjjjjjjjcccccccc2222222=================22223CSSSSSSSSSSSSSSSS",
"SSSSC,,,,,jjjjjjjjjjjjjjjjjjjjjjjj2222222=================22223CSSSSSSSSSSSSSSSS",
"SSSSSjjjjjjjjjjjjjjjjjjjjjjjjjjjjjjjjj222=================22223CSSSSSSSSSSSSSSSS",
"SSSSSjjjjjjjjjjjjjjjjjjjjjjjjjjjjjjjjj222=================22223CSSSSSSSSSSSSSSSS",
"SSSSSjjjjjjjjjjjjjjjjjjjjjjjjjjjjjjjjj222=================22223CSSSSSSSSSSSSSSSS",
"SSSSSjjjjjjjjjjjjjjjjjjjjjjjjjjjjjjjjj2222222222222222222222223CSSSSSSSSSSSSSSSS",
"SSSSSjjjjjjjjjjjjjjjjjjjjjjjjjjjjjjjjj2222222222222222222222223CSSSSSSSSSSSSSSSS",
"SSSSC,,,,,,,,,jjjjjjjjjj222222222222222222222222222222222222223CSSSSSSSSSSSSSSSS",
"SSSSC,,,,,,,,,jjjjjjjjjj222222222222222222222222222222222222223CSSSSSSSSSSSSSSSS",
"SSSSC,,,,,,,,,jjjjjjjjjj222222222222222222222222=========222223CSSSSSSSSSSSSSSSS",
"SSSSC,,,,,,,,,jjjjjjjjjj222222222222222222222222=========222223CCCCCSSSSSSSSSSSS",
"SSSSC,,,,,,,,,jjjjjjjjjj222222222222222222222222=========22222233334SSSSSSSSSSSS",
"jjjjjjjjjjjjjjjjjjjjjjjjjjjjjjjjjjjjjjjjjjj22222=========22222222223SSSSSSSSSSSS",
"jjjjjjjjjjjjjjjjjjjjjjjjjjjjjjjjjjjjjjjjjjj22222=========22222222223SSSSSSSSSSSS",
"jjjjjjjjjjjjjjjjjjjjjjjjjjjjjjjjjjjjjjjjjjj2222222222222222222222222SSSSSSSSSSSS",
"jjjjjjjjjjjjjjjjjjjjjjjjjjjjjjjjjjjjjjjjjjj2222222222222222222222222SSSSSSSSSSSS",
"jjjjjjjjjjjjjjjjjjjjjjjjjjjjjjjjjjjjjjjjjjj2222222222222222222222222SSSSSSSSSSSS",
"jjjjjjjjjj&&&&5555555555jjjjjjjjjjjjjjj22222222222222===========2222SSSSSSSSSSSS",
"jjjjjjjjjj&&&&5555555555jjjjjjjjjjjjjjj22222222222222===========2222SSSSSSSSSSSS",
"jjjjjjjjjj&&&&5555555555jjjjjjjjjjjjjjj22222222222222===========2223SSSSSSSSSSSS",
"jjjjjjjjjj&&&&5555555555jjjjjjjjjjjjjjj22222222222222===========2223SSSSSSSSSSSS",
",,,,,jjjjj&&&&5555555555jjjjjjjjjjjjjjjjjjj2222222222===========2223mSSSSSSSSSSS",
",,,,,jjjjj&&&&5555555555jjjjjjjjjjjjjjjjjjj2222222222222222222222223mSSSSSSSSSSS",
",,,,,jjjjj&&&&5555555555jjjjjjjjjjjjjjjjjjj2222222222222222222222223mSSSSSSSSSSS",
",,,,,jjjjj&&&&5555555555jjjjjjjjjjjjjjjjjjj2222222222222222222222223nSSSSSSSSSSS",
",,,,,jjjjj&&&&5555555555jjjjjjjjjjjjjjjjjjj2222222222222222222222223nSSSSSSSSSSS"
};
