/* XPM */
static char *Otower3[] = {
/* columns rows colors chars-per-pixel */
"80 130 64 1 ",
"  c #000000",
". c #020202",
"X c #030303",
"o c #040404",
"O c #050505",
"+ c #0B0B0B",
"@ c #0C0C0C",
"# c #101010",
"$ c #111111",
"% c #1E1E1E",
"& c #52312E",
"* c #525245",
"= c #565649",
"- c #57574A",
"; c #59594C",
": c #5A5A4D",
"> c #5F5F5F",
", c #636353",
"< c #646453",
"1 c #656554",
"2 c #747464",
"3 c #757565",
"4 c #767666",
"5 c #CE542F",
"6 c #916144",
"7 c #906145",
"8 c #916245",
"9 c #936448",
"0 c #96694E",
"q c #EBA100",
"w c #EBA001",
"e c #EBA101",
"r c #ECA100",
"t c #ECA101",
"y c #ECA202",
"u c #ECA305",
"i c #EDA711",
"p c #CE902F",
"a c #A9A999",
"s c #ABAB9B",
"d c #ACAC9C",
"f c #AEAE9E",
"g c #AFAF9F",
"h c #B0B0A0",
"j c #B1B1A1",
"k c #B1B1A2",
"l c #B2B2A2",
"z c #B3B3A3",
"x c #B6B6A6",
"c c #B7B7A7",
"v c #C7C7B2",
"b c #C8C8B3",
"n c #C8C8B4",
"m c #C9C9B4",
"M c #CACAB5",
"N c #FFFFFE",
"B c #FFFFFE",
"V c #FFFFFE",
"C c #FFFFFE",
"Z c #FFFFFE",
"A c #FFFFFE",
"S c #FFFFFE",
"D c #FFFFFE",
"F c #FFFFFE",
/* pixels */
"FFFFFFFFFFFFFFFFFFFFFFFFFFFFFFFFFFFFFFFFFFFFFFFFFFFFFFFFFFFFFFFFFFFFFFFFFFFFFFFF",
"FFFFFFFFFFFFFFFFFFFFFFFFFFFFFFFFFFFFFFFFFFFFFFFFFFFFFFFFFFFFFFFFFFFFFFFFFFFFFFFF",
"FFFFFFFFFFFFFFFFFFFFFFFFFFFFFFFFFFFFFFFFFFFFFFFFFFFFFFFFFFFFFFFFFFFFFFFFFFFFFFFF",
"FFFFFFFFFFFFFFFFFFFFFFFFFFFFFFFFFFFFFFFFFFFFFFFFFFFFFFFFFFFFFFFFFFFFFFFFFFFFFFFF",
"FFFFFFFFFFFFFFFFFFFFFFFFFFFFFFFFFFFFFFFFFFFFFFFFFFFFFFFFFFFFFFFFFFFFFFFFFFFFFFFF",
"FFFFFFFFoXXFFFFFFFFFFFFFFFFFFFFFFFFFFFFFFFFFFFFFFFFFFFFFFFFFFFFFFFFFFFFFFFFFFFFF",
"FFFFFFo@X:<Xo@FFFFFFFFFFFFFFFFFFFFFFFFFFFFFFFFFFtrrrrrrriiiirrrrrrrrrrrrrrrrrtuu",
"FFFFF@<:<XX:::@FFFFFFFFFFFFFFFFFFFFFFFFFFFFFFFFFrrrrrrrrrrrrrrrrrrrrrrrrrrrrrtuu",
"FFFFFX<:o.++::+@FFFFFFFFFFFFFFFFFFFFFFFFFFFFFFFFtrrrrrrrrrrrrrrrrrrrrrrrrrrrrtuu",
"FFFFFX<+....+<:o@FFFFFFFFFFFFFFFFFFFFFFFFFFFFFFFtrrrrrrrrrrrrrrrrrrrrrrrrrrrrtuu",
"FFFFX<X......X::ooFFFFFFFFFFFFFFFFFFFFFFFFFFFFFFtrrrrrrrrrrrrrrrrrrrrrrrrrrrrtuu",
"FFFFo<XX....+X<<::@FFFFFFFFFFFFFFFFFFFFFFFFFFFFFtrrrrrrrrrrrrrrrrrrrrrrrrrrrrtuu",
"FFFFX::....++<<<::ooFFFFFFFFFFFFFFFFFFFFFFFFFFFFtrrrrrrrrrrrrrrrrrrrrrrrrrrrrtuu",
"FFFF%:<:.+.+:<<<<::ooFFFFFFFFFFFFFFFFFFFFFFFFFFFtrrrrrrrrrrrrrrrrrrrrrrrrrrrrtuu",
"FFFF%X<<<XX<<<<<<<::oFFFFFFFFFFFFFFFFFFFFFFFFFFFtrrrrrrrrrrrrrttttrrtttttttttyuu",
"FFFFFX:::<<<<<<<<<<<:o@FFFFFFFFFFFFFFFFFFFFFFFFFtrrrrrrrrrrrrtFFFFFFFFFFFFFFFFFF",
"FFFFF%o::<:<1<<<<<<<<:ooFFFFFFFFFFFFFFFFFFFFFFFFtrrrrrrrrrrrrtZFFFFFFFFFFFFFFFFF",
"FFFFFF%@><<11<<11.......FFFFFFFFFFFFFFFFFFFFFFFFtrrrrrrrrrrrrtVFFFFFFFFFFFFFFFFF",
"FFFFFFF%#:1<1<1..7777777 XFFpF5FFFFFFFFFFFFFFFFFtrrrrrrrrrrrrrBFFFFFFFFFFFFFFFFF",
"FFFFFFFF%$:11..77..777..77# X5FFFFFFFFFFFFFFFFFFeeewqyyyyyyyyyZFFFFFFFFFFFFFFFFF",
"FFFFFFFFF$@1.77..1.777.1..77.XFFFFFFFFFFFFFFFFFF66666FFFFFFFFFFFFFFFFFFFFFFFFFFF",
"FFFFFFFFO0@X999X11X999X11X999XFFFFFFFFFFFFFFFFFF86668SFFFFFFFFFFFFFFFFFFFFFFFFFF",
"FFFFFFFX9FX9X966X1X999XXX999X9XFFFFFFFFFFFFFFFFF86668SFFFFFFFFFFFFFFFFFFFFFFFFFF",
"FFFFFFX9FX9X1X969XX999X9999XFX9XFFFFFFFFFFFFFFFF86668FFFFFFFFFFFFFFFFFFFFFFFFFFF",
"nnnnn333349X@1X969 mnnnn3333333334FFFFzlll43333366666zzzzzzzzz-====-FFFFFFFFFFFF",
"bbbbb222239XF@1X999bbbbb2222222223FFFFllll32222266666lllllllll-====-FFFFFFFFFFFF",
"bbbbb222239XXXXXX99bbbbb2222222223FFFFllll32222266666lllllllll-====-FFFFFFFFFFFF",
"bbbbb22223999999999bbbbb2222222223FFFFllll32222266666lllllllll======FFFFFFFFFFFF",
"bbbbb22223999999999bbbbb2222222223FFFFzlll32222266666lllllllll======FFFFFFFFFFFF",
"bbbbv22222444444444mbbbb22222222223333llll32222222222222222222======FFFFFFFFFFFF",
"lllll22222222222222llllf22222222222222llll32222222222222222222======FFFFFFFFFFFF",
"lllll22222222222222llllh22222222222222llll32222222222222222222======FFFFFFFFFFFF",
"lllll22222222222222llllh22222222222222llll32222222222222222222=====-FFFFFFFFFFFF",
"lllll22222222222222llllh22222222222222233332222========2222222=====-FFFFFFFFFFFF",
"22222bbbbbbbbbbaddsllllzbbbbbbbbbbllll222222222========2222222222223FFFFFFFFFFFF",
"22222bbbbbbbbbbzxxczlljzbbbbbbbbbbllll222222222========2222222222223FFFFFFFFFFFF",
"22222bbbbbbbbbbglllllljzbbbbbbbbbbllll222222222========2222222222223FFFFFFFFFFFF",
"22222bbbbbbbbbbglllllljzbbbbbbbbbbllll222222222========2222222222223FFFFFFFFFFFF",
"22222bbbbbbbbbbglllllljzbbbbbbbbbbllll222222222222=====2222222222223FFFFFFFFFFFF",
"llllzjjjjjjjjjllllllllllkjjjjjjjjlllllzllj32222222=====2222222222223FFFFFFFFFFFF",
"llllllllllllllllllllllllllllllllllllllllll32222222=====2222222222223FFFFFFFFFFFF",
"llllllllllllllllllllllllllllllllllllllllll32222222=====2222222222223FFFFFFFFFFFF",
"llllllllllllllllllllllllllllllllllllllllll32222222=====2222222222223FFFFFFFFFFFF",
"AAAA4222222222222222222222222222222222222232222222=====2222222233333FFFFFFFFFFFF",
"FFFF42222222222222222222222222222222222222222222222222222222223CAAAAFFFFFFFFFFFF",
"FFFF32222222222222222222222222222222222222222222222222222222223FFFFFFFFFFFFFFFFF",
"FFFF32222222222222222222222222222222222222222222222222222222223AFFFFFFFFFFFFFFFF",
"FFFF32222222222222222222222222222222222222222222222222222222223AFFFFFFFFFFFFFFFF",
"FFFF32222222222222222222222222222222222222222222222222222222223AFFFFFFFFFFFFFFFF",
"FFFFFllllllllllllllllllllllllllllllllj2222222222222222222222223AFFFFFFFFFFFFFFFF",
"FFFFFlllllllllllllllllllllllllllllllll2222222222222222222222223AFFFFFFFFFFFFFFFF",
"FFFFFllllllllllbbbbbbbbbblllllllllllll2222222222222222222222223AFFFFFFFFFFFFFFFF",
"FFFFFllllllllllbbbbbbbbbblllllllllllll222222222=============223AFFFFFFFFFFFFFFFF",
"FFFFD22222lllllbbbbbbbbbbllllllll32222222222222=============223AFFFFFFFFFFFFFFFF",
"FFFFA22222lllllbbbbbbbbbbllllllll22222222222222=============223AFFFFFFFFFFFFFFFF",
"FFFFA22222lllllllllllllllllllllll22222222222222=============223AFFFFFFFFFFFFFFFF",
"FFFFA22222lllllllllllllllllllllll22222222222222=============223AFFFFFFFFFFFFFFFF",
"FFFFA22222lllllllllllllllllllllll222222222222222222222222222223AFFFFFFFFFFFFFFFF",
"FFFFFlllllllll==========lllllllll333332222222222222222222222223FFFFFFFFFFFFFFFFF",
"FFFFFlllllllll==========llllllllllllll2222222222222222222222223AFFFFFFFFFFFFFFFF",
"FFFFFlllllllll==========llllllllllllll2222222222222222222222223AFFFFFFFFFFFFFFFF",
"FFFFFlllllllll========*;llllllllllllll2222222222222222222222223AFFFFFFFFFFFFFFFF",
"FFFFFlllllllll=========;llllllllllllll2222222222222222222222223AFFFFFFFFFFFFFFFF",
"FFFFA22222llll==========lllllllll222222222222222222222222222223AFFFFFFFFFFFFFFFF",
"FFFFF22222llll==========lllllllll222222222222222222222222222223AFFFFFFFFFFFFFFFF",
"FFFFA22222llll==========lllllllll222222222222222222222222222223AFFFFFFFFFFFFFFFF",
"FFFFA22222llll==========lllllllll22222222222=======222222222223AFFFFFFFFFFFFFFFF",
"FFFFD22222llll==========lllllllll32222222222=======222222222223AFFFFFFFFFFFFFFFF",
"FFFFFlllllllllllllllllllllllllllllllll222222=======222222222223AFFFFFFFFFFFFFFFF",
"FFFFFlllllllllllllllllllllllllllllllll222222=======222222222223AFFFFFFFFFFFFFFFF",
"FFFFFlllllllllllllllllllllllllllllllll222222=======222222222223AFFFFFFFFFFFFFFFF",
"FFFFFlllllllllllllllllllllllllllllllll2222222222222222222222223FFFFFFFFFFFFFFFFF",
"FFFFFlllllllllllllllllllllllllllllllll2222222222222222222222223AFFFFFFFFFFFFFFFF",
"FFFFA22222222222222llllllbbbbbbbbbbbll2222222222222222222222223AFFFFFFFFFFFFFFFF",
"FFFFA22222222222222llllllbbbbbbbbbbbll2222222222222222222222223AFFFFFFFFFFFFFFFF",
"FFFFA22222222222222llllllbbbbbbbbbbbll2222222222222222222222222AFFFFFFFFFFFFFFFF",
"FFFFA22222222222222llllllbbbbbbbbbbbll2222222222============222AFFFFFFFFFFFFFFFF",
"FFFFFlllllllllllllllllllllllllllllllll2222222222============222AFFFFFFFFFFFFFFFF",
"FFFFFlllllllllllllllllllllllllllllllll2222222222============223AFFFFFFFFFFFFFFFF",
"FFFFFlllllllllllllllllllllllllllllllll2222222222============223AFFFFFFFFFFFFFFFF",
"FFFFFllllbbbbbbbbbblllllllllllllllllll2222222222============223AFFFFFFFFFFFFFFFF",
"FFFFFllllbbbbbbbbbblllllllllllllllllll2222222222222222222222223AFFFFFFFFFFFFFFFF",
"FFFFFllllbbbbbbbbbblllll222222222222222222222222222222222222223AFFFFFFFFFFFFFFFF",
"FFFFFllllbbbbbbbbbblllll222222222222222222222222222222222222223AFFFFFFFFFFFFFFFF",
"FFFFFlllllllllllllllllll222222222222222222222222222222222222223AFFFFFFFFFFFFFFFF",
"FFFFFlllllllllllllllllll222222222222222222222222222222222222223FFFFFFFFFFFFFFFFF",
"FFFFFlllllllllllllllllll222222222222222222222222222222222222223AFFFFFFFFFFFFFFFF",
"FFFFA,,,,,llll==========llllllllll22222222222222222222222222223AFFFFFFFFFFFFFFFF",
"FFFFA,,,,,llll==========llllllllll22222222222222222222222222223AFFFFFFFFFFFFFFFF",
"FFFFA,,,,,llll==========llllllllll22222222222222222222222222223AFFFFFFFFFFFFFFFF",
"FFFFA,,,,,llll==========llllllllll222222222222============22223AFFFFFFFFFFFFFFFF",
"FFFFD,,,,,llll==========llllllllll222222222222============22223AFFFFFFFFFFFFFFFF",
"FFFFFlllllllll==========llllllllllllll22222222============22223AFFFFFFFFFFFFFFFF",
"FFFFFlllllllll==========llllllllllllll22222222============22223AFFFFFFFFFFFFFFFF",
"FFFFFlllllllll==========llllllllllllll22222222============22223AFFFFFFFFFFFFFFFF",
"FFFFFlllllllll==========llllllllllllll22222222============22223AFFFFFFFFFFFFFFFF",
"FFFFFlllllllll==========llllllllllllll22222222222222======22223AFFFFFFFFFFFFFFFF",
"FFFFFlllllllllllllllllllllllllllllllll22222222222222======22223AFFFFFFFFFFFFFFFF",
"FFFFFlllllllllllllllllllllllllllllllll22222222222222======22223AFFFFFFFFFFFFFFFF",
"FFFFFlllllllllllllllllllllllllllllllll22222222222222======22223FFFFFFFFFFFFFFFFF",
"FFFFFlllllllllllllllllllllllllllllllll22222222222222======22223AFFFFFFFFFFFFFFFF",
"FFFFD,,,,,llllllllllllllllbbbbbbbb222222222222222222======22223AFFFFFFFFFFFFFFFF",
"FFFFA,,,,,llllllllllllllllbbbbbbbb222222222222222222======22223AFFFFFFFFFFFFFFFF",
"FFFFA,,,,,llllllllllllllllbbbbbbbb222222222222222222======22223AFFFFFFFFFFFFFFFF",
"FFFFA,,,,,llllllllllllllllbbbbbbbb2222222=================22223AFFFFFFFFFFFFFFFF",
"FFFFA,,,,,llllllllllllllllllllllll2222222=================22223AFFFFFFFFFFFFFFFF",
"FFFFFlllllllllllllllllllllllllllllllll222=================22223AFFFFFFFFFFFFFFFF",
"FFFFFlllllllllllllllllllllllllllllllll222=================22223AFFFFFFFFFFFFFFFF",
"FFFFFlllllllllllllllllllllllllllllllll222=================22223AFFFFFFFFFFFFFFFF",
"FFFFFlllllllllllllllllllllllllllllllll2222222222222222222222223AFFFFFFFFFFFFFFFF",
"FFFFFlllllllllllllllllllllllllllllllll2222222222222222222222223AFFFFFFFFFFFFFFFF",
"FFFFA,,,,,,,,,llllllllll222222222222222222222222222222222222223AFFFFFFFFFFFFFFFF",
"FFFFA,,,,,,,,,llllllllll222222222222222222222222222222222222223AFFFFFFFFFFFFFFFF",
"FFFFA,,,,,,,,,llllllllll222222222222222222222222=========222223AFFFFFFFFFFFFFFFF",
"FFFFA,,,,,,,,,llllllllll222222222222222222222222=========222223AAAAAFFFFFFFFFFFF",
"FFFFA,,,,,,,,,llllllllll222222222222222222222222=========22222233334FFFFFFFFFFFF",
"lllllllllllllllllllllllllllllllllllllllllll22222=========22222222223FFFFFFFFFFFF",
"lllllllllllllllllllllllllllllllllllllllllll22222=========22222222223FFFFFFFFFFFF",
"lllllllllllllllllllllllllllllllllllllllllll2222222222222222222222222FFFFFFFFFFFF",
"lllllllllllllllllllllllllllllllllllllllllll2222222222222222222222222FFFFFFFFFFFF",
"lllllllllllllllllllllllllllllllllllllllllll2222222222222222222222222FFFFFFFFFFFF",
"llllllllll&&&&6666666666lllllllllllllll22222222222222===========2222FFFFFFFFFFFF",
"llllllllll&&&&6666666666lllllllllllllll22222222222222===========2222FFFFFFFFFFFF",
"llllllllll&&&&6666666666lllllllllllllll22222222222222===========2223FFFFFFFFFFFF",
"llllllllll&&&&6666666666lllllllllllllll22222222222222===========2223FFFFFFFFFFFF",
",,,,,lllll&&&&6666666666lllllllllllllllllll2222222222===========2223NFFFFFFFFFFF",
",,,,,lllll&&&&6666666666lllllllllllllllllll2222222222222222222222223NFFFFFFFFFFF",
",,,,,lllll&&&&6666666666lllllllllllllllllll2222222222222222222222223NFFFFFFFFFFF",
",,,,,lllll&&&&6666666666lllllllllllllllllll2222222222222222222222223MFFFFFFFFFFF",
",,,,,lllll&&&&6666666666lllllllllllllllllll2222222222222222222222223MFFFFFFFFFFF"
};
