/* XPM */
static char *Otower0[] = {
/* columns rows colors chars-per-pixel */
"80 130 59 1 ",
"  c #000000",
". c #030201",
"X c #020202",
"o c #040302",
"O c #050403",
"+ c #52312E",
"@ c #525245",
"# c #565649",
"$ c #57574A",
"% c #59594C",
"& c #5A5A4C",
"* c #5A5A4D",
"= c #5F5F5F",
"- c #636353",
"; c #646464",
": c #646464",
"> c #747464",
", c #757565",
"< c #767666",
"1 c #CE542F",
"2 c #916144",
"3 c #906145",
"4 c #916245",
"5 c #936448",
"6 c #EBA100",
"7 c #EBA001",
"8 c #EBA101",
"9 c #ECA100",
"0 c #ECA101",
"q c #ECA202",
"w c #ECA305",
"e c #EDA711",
"r c #CE902F",
"t c #A9A999",
"y c #ABAB9B",
"u c #ACAC9C",
"i c #AEAE9E",
"p c #AFAF9F",
"a c #B0B0A0",
"s c #B1B1A1",
"d c #B1B1A2",
"f c #B2B2A2",
"g c #B3B3A3",
"h c #B6B6A6",
"j c #B7B7A7",
"k c #C7C7B2",
"l c #C8C8B3",
"z c #C8C8B4",
"x c #C9C9B4",
"c c #C9C9B5",
"v c #FFFFFE",
"b c #FFFFFE",
"n c #FFFFFE",
"m c #FFFFFE",
"M c #FFFFFE",
"N c #FFFFFE",
"B c #FFFFFE",
"V c #FFFFFE",
"C c #FFFFFE",
/* pixels */
"CCCCCCCCCCCCCCCCCCCCCCCCCCCCCCCCCCCCCCCCCCCCCCCCCCCCCCCCCCCCCCCCCCCCCCCCCCCCCCCC",
"CCCCCCCCCCCCCCCCCCCCCCCCCCCCCCCCCCCCCCCCCCCCCCCCCCCCCCCCCCCCCCCCCCCCCCCCCCCCCCCC",
"CCCCCCCCCCCCCCCCCCCCCCCCCCCCCCCCCCCCCCCCCCCCCCCCCCCCCCCCCCCCCCCCCCCCCCCCCCCCCCCC",
"CCCCCCCCCCCCCCCCCCCCCCCCCCCCCCCCCCCCCCCCCCCCCCCCCCCCCCCCCCCCCCCCCCCCCCCCCCCCCCCC",
"CCCCCCCCCCCCCCCCCCCCCCCCCCCCCCCCCCCCCCCCCCCCCCCCCCCCCCCCCCCCCCCCCCCCCCCCCCCCCCCC",
"CCCCCCCCCCCCCCCCCCCCCCCCCCCCCCCCCCCCCCCCCCCCCCCCCCCCCCCCCCCCCCCCCCCCCCCCCCCCCCCC",
"CCCCCCCCCCCCCCCCCCCCCCCCCCCCCCCCCCCCCCCCCCCCCCCC09999999eeee999999999999999990ww",
"CCCCCCCCCCCCCCCCCCCCCCCCCCC1CCCCCCCCCCCCCCCCCCCC999999999999999999999999999990ww",
"CCCCCCCCCCCCCCCCCCCCCCCCCr1CCCCCCCCCCCCCCCCCCCCC099999999999999999999999999990ww",
"CCCCCCCCCCCCCCCCCCCCCCCCCO1CCCCCCCCCCCCCCCCCCCCC099999999999999999999999999990ww",
"CCCCCCCCCCCCCCCCCCCCCCCCCOCCCCCCCCCCCCCCCCCCCCCC099999999999999999999999999990ww",
"CCCCCCCCCCCCCCCCCCCCCCCCOCCCCCCCCCCCCCCCCCCCCCCC099999999999999999999999999990ww",
"CCCCOOOOOOOOOOOOOOOOOOOOOOOOOCCCCCCCCCCCCCCCCCCC099999999999999999999999999990ww",
"CCCO;*;;;;;;;;;;;;;;;;;;;;;;;OCCCCCCCCCCCCCCCCCC099999999999999999999999999990ww",
"CCO;;XXX=;;;;;;;;;;;;;;;;*;;;;OCCCCCCCCCCCCCCCCC09999999999999000099000000000qww",
"CCO;XXXXX=;;;;;;;;;;;;;;;**;;;;OCCCCCCCCCCCCCCCC09999999999990CCCCCCCCCCCCCCCCCC",
"CCO;XXXXX=;;;;;;;;;;;;;;;***;;;;OCCCCCCCCCCCCCCC09999999999990MCCCCCCCCCCCCCCCCC",
"CCO;XXXXX=;;;;;;;XXXXXXX;***;;;;OCCCCCCCCCCCCCCC09999999999990nCCCCCCCCCCCCCCCCC",
"CCO;XXXXX=;;;;;XX3333333XX;;;;&OCCCCCCCCCCCCCCCC09999999999999bCCCCCCCCCCCCCCCCC",
"CCO;;XXX=****XX33XX333XX33XX;;OCCCCCCCCCCCCCCCCC88876qqqqqqqqqMCCCCCCCCCCCCCCCCC",
"CCCO;;;;;;;;X33XX:X333X:XX33XoCCCCCCCCCCCCCCCCCC22222CCCCCCCCCCCCCCCCCCCCCCCCCCC",
"CCCCOOOOO.O 555OOOO555OOOO555OCCCCCCCCCCCCCCCCCC42224BCCCCCCCCCCCCCCCCCCCCCCCCCC",
"CCCCCCCO5CO5O522OCO555OOO555O5OCCCCCCCCCCCCCCCCC42224BCCCCCCCCCCCCCCCCCCCCCCCCCC",
"CCCCCCO5CO5OCO525OO555O5555OCO5OCCCCCCCCCCCCCCCC42224CCCCCCCCCCCCCCCCCCCCCCCCCCC",
"zzzzz,,,,<5OCCO525 xzzzz,,,,,,,,,<CCCCgfff<,,,,,22222ggggggggg$####$CCCCCCCCCCCC",
"lllll>>>>,5OCCCO555lllll>>>>>>>>>,CCCCffff,>>>>>22222fffffffff$####$CCCCCCCCCCCC",
"lllll>>>>,5OOOOOO55lllll>>>>>>>>>,CCCCffff,>>>>>22222fffffffff$####$CCCCCCCCCCCC",
"lllll>>>>,555555555lllll>>>>>>>>>,CCCCffff,>>>>>22222fffffffff######CCCCCCCCCCCC",
"lllll>>>>,555555555lllll>>>>>>>>>,CCCCgfff,>>>>>22222fffffffff######CCCCCCCCCCCC",
"llllk>>>>><<<<<<<<<xllll>>>>>>>>>>,,,,ffff,>>>>>>>>>>>>>>>>>>>######CCCCCCCCCCCC",
"fffff>>>>>>>>>>>>>>ffffi>>>>>>>>>>>>>>ffff,>>>>>>>>>>>>>>>>>>>######CCCCCCCCCCCC",
"fffff>>>>>>>>>>>>>>ffffa>>>>>>>>>>>>>>ffff,>>>>>>>>>>>>>>>>>>>######CCCCCCCCCCCC",
"fffff>>>>>>>>>>>>>>ffffa>>>>>>>>>>>>>>ffff,>>>>>>>>>>>>>>>>>>>#####$CCCCCCCCCCCC",
"fffff>>>>>>>>>>>>>>ffffa>>>>>>>>>>>>>>>,,,,>>>>########>>>>>>>#####$CCCCCCCCCCCC",
">>>>>lllllllllltuuyffffgllllllllllffff>>>>>>>>>########>>>>>>>>>>>>,CCCCCCCCCCCC",
">>>>>llllllllllghhjgffsgllllllllllffff>>>>>>>>>########>>>>>>>>>>>>,CCCCCCCCCCCC",
">>>>>llllllllllpffffffsgllllllllllffff>>>>>>>>>########>>>>>>>>>>>>,CCCCCCCCCCCC",
">>>>>llllllllllpffffffsgllllllllllffff>>>>>>>>>########>>>>>>>>>>>>,CCCCCCCCCCCC",
">>>>>llllllllllpffffffsgllllllllllffff>>>>>>>>>>>>#####>>>>>>>>>>>>,CCCCCCCCCCCC",
"ffffgsssssssssffffffffffdssssssssfffffgffs,>>>>>>>#####>>>>>>>>>>>>,CCCCCCCCCCCC",
"ffffffffffffffffffffffffffffffffffffffffff,>>>>>>>#####>>>>>>>>>>>>,CCCCCCCCCCCC",
"ffffffffffffffffffffffffffffffffffffffffff,>>>>>>>#####>>>>>>>>>>>>,CCCCCCCCCCCC",
"ffffffffffffffffffffffffffffffffffffffffff,>>>>>>>#####>>>>>>>>>>>>,CCCCCCCCCCCC",
"NNNN<>>>>>>>>>>>>>>>>>>>>>>>>>>>>>>>>>>>>>,>>>>>>>#####>>>>>>>>,,,,,CCCCCCCCCCCC",
"CCCC<>>>>>>>>>>>>>>>>>>>>>>>>>>>>>>>>>>>>>>>>>>>>>>>>>>>>>>>>>,mNNNNCCCCCCCCCCCC",
"CCCC,>>>>>>>>>>>>>>>>>>>>>>>>>>>>>>>>>>>>>>>>>>>>>>>>>>>>>>>>>,CCCCCCCCCCCCCCCCC",
"CCCC,>>>>>>>>>>>>>>>>>>>>>>>>>>>>>>>>>>>>>>>>>>>>>>>>>>>>>>>>>,NCCCCCCCCCCCCCCCC",
"CCCC,>>>>>>>>>>>>>>>>>>>>>>>>>>>>>>>>>>>>>>>>>>>>>>>>>>>>>>>>>,NCCCCCCCCCCCCCCCC",
"CCCC,>>>>>>>>>>>>>>>>>>>>>>>>>>>>>>>>>>>>>>>>>>>>>>>>>>>>>>>>>,NCCCCCCCCCCCCCCCC",
"CCCCCffffffffffffffffffffffffffffffffs>>>>>>>>>>>>>>>>>>>>>>>>,NCCCCCCCCCCCCCCCC",
"CCCCCfffffffffffffffffffffffffffffffff>>>>>>>>>>>>>>>>>>>>>>>>,NCCCCCCCCCCCCCCCC",
"CCCCCffffffffffllllllllllfffffffffffff>>>>>>>>>>>>>>>>>>>>>>>>,NCCCCCCCCCCCCCCCC",
"CCCCCffffffffffllllllllllfffffffffffff>>>>>>>>>#############>>,NCCCCCCCCCCCCCCCC",
"CCCCV>>>>>fffffllllllllllffffffff,>>>>>>>>>>>>>#############>>,NCCCCCCCCCCCCCCCC",
"CCCCN>>>>>fffffllllllllllffffffff>>>>>>>>>>>>>>#############>>,NCCCCCCCCCCCCCCCC",
"CCCCN>>>>>fffffffffffffffffffffff>>>>>>>>>>>>>>#############>>,NCCCCCCCCCCCCCCCC",
"CCCCN>>>>>fffffffffffffffffffffff>>>>>>>>>>>>>>#############>>,NCCCCCCCCCCCCCCCC",
"CCCCN>>>>>fffffffffffffffffffffff>>>>>>>>>>>>>>>>>>>>>>>>>>>>>,NCCCCCCCCCCCCCCCC",
"CCCCCfffffffff##########fffffffff,,,,,>>>>>>>>>>>>>>>>>>>>>>>>,CCCCCCCCCCCCCCCCC",
"CCCCCfffffffff##########ffffffffffffff>>>>>>>>>>>>>>>>>>>>>>>>,NCCCCCCCCCCCCCCCC",
"CCCCCfffffffff##########ffffffffffffff>>>>>>>>>>>>>>>>>>>>>>>>,NCCCCCCCCCCCCCCCC",
"CCCCCfffffffff########@%ffffffffffffff>>>>>>>>>>>>>>>>>>>>>>>>,NCCCCCCCCCCCCCCCC",
"CCCCCfffffffff#########%ffffffffffffff>>>>>>>>>>>>>>>>>>>>>>>>,NCCCCCCCCCCCCCCCC",
"CCCCN>>>>>ffff##########fffffffff>>>>>>>>>>>>>>>>>>>>>>>>>>>>>,NCCCCCCCCCCCCCCCC",
"CCCCC>>>>>ffff##########fffffffff>>>>>>>>>>>>>>>>>>>>>>>>>>>>>,NCCCCCCCCCCCCCCCC",
"CCCCN>>>>>ffff##########fffffffff>>>>>>>>>>>>>>>>>>>>>>>>>>>>>,NCCCCCCCCCCCCCCCC",
"CCCCN>>>>>ffff##########fffffffff>>>>>>>>>>>#######>>>>>>>>>>>,NCCCCCCCCCCCCCCCC",
"CCCCV>>>>>ffff##########fffffffff,>>>>>>>>>>#######>>>>>>>>>>>,NCCCCCCCCCCCCCCCC",
"CCCCCfffffffffffffffffffffffffffffffff>>>>>>#######>>>>>>>>>>>,NCCCCCCCCCCCCCCCC",
"CCCCCfffffffffffffffffffffffffffffffff>>>>>>#######>>>>>>>>>>>,NCCCCCCCCCCCCCCCC",
"CCCCCfffffffffffffffffffffffffffffffff>>>>>>#######>>>>>>>>>>>,NCCCCCCCCCCCCCCCC",
"CCCCCfffffffffffffffffffffffffffffffff>>>>>>>>>>>>>>>>>>>>>>>>,CCCCCCCCCCCCCCCCC",
"CCCCCfffffffffffffffffffffffffffffffff>>>>>>>>>>>>>>>>>>>>>>>>,NCCCCCCCCCCCCCCCC",
"CCCCN>>>>>>>>>>>>>>fffffflllllllllllff>>>>>>>>>>>>>>>>>>>>>>>>,NCCCCCCCCCCCCCCCC",
"CCCCN>>>>>>>>>>>>>>fffffflllllllllllff>>>>>>>>>>>>>>>>>>>>>>>>,NCCCCCCCCCCCCCCCC",
"CCCCN>>>>>>>>>>>>>>fffffflllllllllllff>>>>>>>>>>>>>>>>>>>>>>>>>NCCCCCCCCCCCCCCCC",
"CCCCN>>>>>>>>>>>>>>fffffflllllllllllff>>>>>>>>>>############>>>NCCCCCCCCCCCCCCCC",
"CCCCCfffffffffffffffffffffffffffffffff>>>>>>>>>>############>>>NCCCCCCCCCCCCCCCC",
"CCCCCfffffffffffffffffffffffffffffffff>>>>>>>>>>############>>,NCCCCCCCCCCCCCCCC",
"CCCCCfffffffffffffffffffffffffffffffff>>>>>>>>>>############>>,NCCCCCCCCCCCCCCCC",
"CCCCCffffllllllllllfffffffffffffffffff>>>>>>>>>>############>>,NCCCCCCCCCCCCCCCC",
"CCCCCffffllllllllllfffffffffffffffffff>>>>>>>>>>>>>>>>>>>>>>>>,NCCCCCCCCCCCCCCCC",
"CCCCCffffllllllllllfffff>>>>>>>>>>>>>>>>>>>>>>>>>>>>>>>>>>>>>>,NCCCCCCCCCCCCCCCC",
"CCCCCffffllllllllllfffff>>>>>>>>>>>>>>>>>>>>>>>>>>>>>>>>>>>>>>,NCCCCCCCCCCCCCCCC",
"CCCCCfffffffffffffffffff>>>>>>>>>>>>>>>>>>>>>>>>>>>>>>>>>>>>>>,NCCCCCCCCCCCCCCCC",
"CCCCCfffffffffffffffffff>>>>>>>>>>>>>>>>>>>>>>>>>>>>>>>>>>>>>>,CCCCCCCCCCCCCCCCC",
"CCCCCfffffffffffffffffff>>>>>>>>>>>>>>>>>>>>>>>>>>>>>>>>>>>>>>,NCCCCCCCCCCCCCCCC",
"CCCCN-----ffff##########ffffffffff>>>>>>>>>>>>>>>>>>>>>>>>>>>>,NCCCCCCCCCCCCCCCC",
"CCCCN-----ffff##########ffffffffff>>>>>>>>>>>>>>>>>>>>>>>>>>>>,NCCCCCCCCCCCCCCCC",
"CCCCN-----ffff##########ffffffffff>>>>>>>>>>>>>>>>>>>>>>>>>>>>,NCCCCCCCCCCCCCCCC",
"CCCCN-----ffff##########ffffffffff>>>>>>>>>>>>############>>>>,NCCCCCCCCCCCCCCCC",
"CCCCV-----ffff##########ffffffffff>>>>>>>>>>>>############>>>>,NCCCCCCCCCCCCCCCC",
"CCCCCfffffffff##########ffffffffffffff>>>>>>>>############>>>>,NCCCCCCCCCCCCCCCC",
"CCCCCfffffffff##########ffffffffffffff>>>>>>>>############>>>>,NCCCCCCCCCCCCCCCC",
"CCCCCfffffffff##########ffffffffffffff>>>>>>>>############>>>>,NCCCCCCCCCCCCCCCC",
"CCCCCfffffffff##########ffffffffffffff>>>>>>>>############>>>>,NCCCCCCCCCCCCCCCC",
"CCCCCfffffffff##########ffffffffffffff>>>>>>>>>>>>>>######>>>>,NCCCCCCCCCCCCCCCC",
"CCCCCfffffffffffffffffffffffffffffffff>>>>>>>>>>>>>>######>>>>,NCCCCCCCCCCCCCCCC",
"CCCCCfffffffffffffffffffffffffffffffff>>>>>>>>>>>>>>######>>>>,NCCCCCCCCCCCCCCCC",
"CCCCCfffffffffffffffffffffffffffffffff>>>>>>>>>>>>>>######>>>>,CCCCCCCCCCCCCCCCC",
"CCCCCfffffffffffffffffffffffffffffffff>>>>>>>>>>>>>>######>>>>,NCCCCCCCCCCCCCCCC",
"CCCCV-----ffffffffffffffffllllllll>>>>>>>>>>>>>>>>>>######>>>>,NCCCCCCCCCCCCCCCC",
"CCCCN-----ffffffffffffffffllllllll>>>>>>>>>>>>>>>>>>######>>>>,NCCCCCCCCCCCCCCCC",
"CCCCN-----ffffffffffffffffllllllll>>>>>>>>>>>>>>>>>>######>>>>,NCCCCCCCCCCCCCCCC",
"CCCCN-----ffffffffffffffffllllllll>>>>>>>#################>>>>,NCCCCCCCCCCCCCCCC",
"CCCCN-----ffffffffffffffffffffffff>>>>>>>#################>>>>,NCCCCCCCCCCCCCCCC",
"CCCCCfffffffffffffffffffffffffffffffff>>>#################>>>>,NCCCCCCCCCCCCCCCC",
"CCCCCfffffffffffffffffffffffffffffffff>>>#################>>>>,NCCCCCCCCCCCCCCCC",
"CCCCCfffffffffffffffffffffffffffffffff>>>#################>>>>,NCCCCCCCCCCCCCCCC",
"CCCCCfffffffffffffffffffffffffffffffff>>>>>>>>>>>>>>>>>>>>>>>>,NCCCCCCCCCCCCCCCC",
"CCCCCfffffffffffffffffffffffffffffffff>>>>>>>>>>>>>>>>>>>>>>>>,NCCCCCCCCCCCCCCCC",
"CCCCN---------ffffffffff>>>>>>>>>>>>>>>>>>>>>>>>>>>>>>>>>>>>>>,NCCCCCCCCCCCCCCCC",
"CCCCN---------ffffffffff>>>>>>>>>>>>>>>>>>>>>>>>>>>>>>>>>>>>>>,NCCCCCCCCCCCCCCCC",
"CCCCN---------ffffffffff>>>>>>>>>>>>>>>>>>>>>>>>#########>>>>>,NCCCCCCCCCCCCCCCC",
"CCCCN---------ffffffffff>>>>>>>>>>>>>>>>>>>>>>>>#########>>>>>,NNNNNCCCCCCCCCCCC",
"CCCCN---------ffffffffff>>>>>>>>>>>>>>>>>>>>>>>>#########>>>>>>,,,,<CCCCCCCCCCCC",
"fffffffffffffffffffffffffffffffffffffffffff>>>>>#########>>>>>>>>>>,CCCCCCCCCCCC",
"fffffffffffffffffffffffffffffffffffffffffff>>>>>#########>>>>>>>>>>,CCCCCCCCCCCC",
"fffffffffffffffffffffffffffffffffffffffffff>>>>>>>>>>>>>>>>>>>>>>>>>CCCCCCCCCCCC",
"fffffffffffffffffffffffffffffffffffffffffff>>>>>>>>>>>>>>>>>>>>>>>>>CCCCCCCCCCCC",
"fffffffffffffffffffffffffffffffffffffffffff>>>>>>>>>>>>>>>>>>>>>>>>>CCCCCCCCCCCC",
"ffffffffff++++2222222222fffffffffffffff>>>>>>>>>>>>>>###########>>>>CCCCCCCCCCCC",
"ffffffffff++++2222222222fffffffffffffff>>>>>>>>>>>>>>###########>>>>CCCCCCCCCCCC",
"ffffffffff++++2222222222fffffffffffffff>>>>>>>>>>>>>>###########>>>,CCCCCCCCCCCC",
"ffffffffff++++2222222222fffffffffffffff>>>>>>>>>>>>>>###########>>>,CCCCCCCCCCCC",
"-----fffff++++2222222222fffffffffffffffffff>>>>>>>>>>###########>>>,vCCCCCCCCCCC",
"-----fffff++++2222222222fffffffffffffffffff>>>>>>>>>>>>>>>>>>>>>>>>,vCCCCCCCCCCC",
"-----fffff++++2222222222fffffffffffffffffff>>>>>>>>>>>>>>>>>>>>>>>>,vCCCCCCCCCCC",
"-----fffff++++2222222222fffffffffffffffffff>>>>>>>>>>>>>>>>>>>>>>>>,cCCCCCCCCCCC",
"-----fffff++++2222222222fffffffffffffffffff>>>>>>>>>>>>>>>>>>>>>>>>,cCCCCCCCCCCC"
};
