/* XPM */
static char *Otower6[] = {
/* columns rows colors chars-per-pixel */
"80 130 54 1 ",
"  c #000000",
". c #030201",
"X c #020202",
"o c #040404",
"O c #52312E",
"+ c #525245",
"@ c #565649",
"# c #57574A",
"$ c #59594C",
"% c #5A5A4D",
"& c #5F5F5F",
"* c #636353",
"= c #646454",
"- c #747464",
"; c #757565",
": c #767666",
"> c #916144",
", c #906145",
"< c #916245",
"1 c #936448",
"2 c #EBA100",
"3 c #EBA001",
"4 c #EBA101",
"5 c #ECA100",
"6 c #ECA101",
"7 c #ECA202",
"8 c #ECA305",
"9 c #EDA711",
"0 c #A9A999",
"q c #ABAB9B",
"w c #ACAC9C",
"e c #AEAE9E",
"r c #AFAF9F",
"t c #B0B0A0",
"y c #B1B1A1",
"u c #B1B1A2",
"i c #B2B2A2",
"p c #B3B3A3",
"a c #B6B6A6",
"s c #B7B7A7",
"d c #C7C7B2",
"f c #C8C8B3",
"g c #C8C8B4",
"h c #C9C9B4",
"j c #C9C9B5",
"k c #FFFFFE",
"l c #FFFFFE",
"z c #FFFFFE",
"x c #FFFFFE",
"c c #FFFFFE",
"v c #FFFFFE",
"b c #FFFFFE",
"n c #FFFFFE",
"m c #FFFFFE",
/* pixels */
"mmmmmmmmmmmmmmmmmoooooommmmmmmmmmmmmmmmmmmmmmmmmmmmmmmmmmmmmmmmmmmmmmmmmmmmmmmmm",
"mmmmmmmmmmmmmmmmo======ommmmmmmmmmmmmmmmmmmmmmmmmmmmmmmmmmmmmmmmmmmmmmmmmmmmmmmm",
"mmmmmmmmmmmmmmmo==XXXX==ommmmmmmmmmmmmmmmmmmmmmmmmmmmmmmmmmmmmmmmmmmmmmmmmmmmmmm",
"mmmmmmmmmmmmmmmo=XXXXXX%ommmmmmmmmmmmmmmmmmmmmmmmmmmmmmmmmmmmmmmmmmmmmmmmmmmmmmm",
"mmmmmmmmmmmmmmmo=XXXXXX=ommmmmmmmmmmmmmmmmmmmmmmmmmmmmmmmmmmmmmmmmmmmmmmmmmmmmmm",
"mmmmmmmmmmmmmmmo=XXXXXX=ommmmmmmmmmmmmmmmmmmmmmmmmmmmmmmmmmmmmmmmmmmmmmmmmmmmmmm",
"mmmmmmmmmmmmmmmo=&XXXX&=ommmmmmmmmmmmmmmmmmmmmmm65555555999955555555555555555688",
"mmmmmmmmmmmmmmm.=%&&&&==ommmmmmmmmmmmmmmmmmmmmmm55555555555555555555555555555688",
"mmmmmmmmmmmmmmmo=%======ommmmmmmmmmmmmmmmmmmmmmm65555555555555555555555555555688",
"mmmmmmmmmmmmmmmo=%======ommmmmmmmmmmmmmmmmmmmmmm65555555555555555555555555555688",
"mmmmmmmmmmmmmmmo=%======ommmmmmmmmmmmmmmmmmmmmmm65555555555555555555555555555688",
"mmmmmmmmmmmmmmmo========ommmmmmmmmmmmmmmmmmmmmmm65555555555555555555555555555688",
"mmmmmmmmmmmmmmmo========ommmmmmmmmmmmmmmmmmmmmmm65555555555555555555555555555688",
"mmmmmmmmmmmmmmmo========ommmmmmmmmmmmmmmmmmmmmmm65555555555555555555555555555688",
"mmmmmmmmmmmmmmmo========ommmmmmmmmmmmmmmmmmmmmmm65555555555555666655666666666788",
"mmmmmmmmmmmmmmmo========ommmmmmmmmmmmmmmmmmmmmmm65555555555556mmmmmmmmmmmmmmmmmm",
"mmmmmmmmmmmmmmmo========ommmmmmmmmmmmmmmmmmmmmmm65555555555556cmmmmmmmmmmmmmmmmm",
"mmmmmmmmmmmmmmoo=XXXXXXXommmmmmmmmmmmmmmmmmmmmmm65555555555556zmmmmmmmmmmmmmmmmm",
"mmmmmmmmmmmoooooX,,,,,,,oXmmmmmmmmmmmmmmmmmmmmmm65555555555555lmmmmmmmmmmmmmmmmm",
"mmmmmmmmmmo11X1,,XX,,,XX,,XXmmmmmmmmmmmmmmmmmmmm44432777777777cmmmmmmmmmmmmmmmmm",
"mmmmmmmmmo1mX,,XXmX,,,XmXX,,Xommmmmmmmmmmmmmmmmm>>>>>mmmmmmmmmmmmmmmmmmmmmmmmmmm",
"mmmmmmmmo1mo111ommo111ommo111ommmmmmmmmmmmmmmmmm<>>><bmmmmmmmmmmmmmmmmmmmmmmmmmm",
"mmmmmmmo1mo1o1>>omo111ooo111o1ommmmmmmmmmmmmmmmm<>>><bmmmmmmmmmmmmmmmmmmmmmmmmmm",
"mmmmmmo1mo1omo1>1oo111o1111omo1ommmmmmmmmmmmmmmm<>>><mmmmmmmmmmmmmmmmmmmmmmmmmmm",
"ggggg;;;;:1ommo1>1 hgggg;;;;;;;;;:mmmmpiii:;;;;;>>>>>ppppppppp#@@@@#mmmmmmmmmmmm",
"fffff----;1ommmo111fffff---------;mmmmiiii;----->>>>>iiiiiiiii#@@@@#mmmmmmmmmmmm",
"fffff----;1oooooo11fffff---------;mmmmiiii;----->>>>>iiiiiiiii#@@@@#mmmmmmmmmmmm",
"fffff----;111111111fffff---------;mmmmiiii;----->>>>>iiiiiiiii@@@@@@mmmmmmmmmmmm",
"fffff----;111111111fffff---------;mmmmpiii;----->>>>>iiiiiiiii@@@@@@mmmmmmmmmmmm",
"ffffd-----:::::::::hffff----------;;;;iiii;-------------------@@@@@@mmmmmmmmmmmm",
"iiiii--------------iiiie--------------iiii;-------------------@@@@@@mmmmmmmmmmmm",
"iiiii--------------iiiit--------------iiii;-------------------@@@@@@mmmmmmmmmmmm",
"iiiii--------------iiiit--------------iiii;-------------------@@@@@#mmmmmmmmmmmm",
"iiiii--------------iiiit---------------;;;;----@@@@@@@@-------@@@@@#mmmmmmmmmmmm",
"-----ffffffffff0wwqiiiipffffffffffiiii---------@@@@@@@@------------;mmmmmmmmmmmm",
"-----ffffffffffpaaspiiypffffffffffiiii---------@@@@@@@@------------;mmmmmmmmmmmm",
"-----ffffffffffriiiiiiypffffffffffiiii---------@@@@@@@@------------;mmmmmmmmmmmm",
"-----ffffffffffriiiiiiypffffffffffiiii---------@@@@@@@@------------;mmmmmmmmmmmm",
"-----ffffffffffriiiiiiypffffffffffiiii------------@@@@@------------;mmmmmmmmmmmm",
"iiiipyyyyyyyyyiiiiiiiiiiuyyyyyyyyiiiiipiiy;-------@@@@@------------;mmmmmmmmmmmm",
"iiiiiiiiiiiiiiiiiiiiiiiiiiiiiiiiiiiiiiiiii;-------@@@@@------------;mmmmmmmmmmmm",
"iiiiiiiiiiiiiiiiiiiiiiiiiiiiiiiiiiiiiiiiii;-------@@@@@------------;mmmmmmmmmmmm",
"iiiiiiiiiiiiiiiiiiiiiiiiiiiiiiiiiiiiiiiiii;-------@@@@@------------;mmmmmmmmmmmm",
"vvvv:-------------------------------------;-------@@@@@--------;;;;;mmmmmmmmmmmm",
"mmmm:---------------------------------------------------------;xvvvvmmmmmmmmmmmm",
"mmmm;---------------------------------------------------------;mmmmmmmmmmmmmmmmm",
"mmmm;---------------------------------------------------------;vmmmmmmmmmmmmmmmm",
"mmmm;---------------------------------------------------------;vmmmmmmmmmmmmmmmm",
"mmmm;---------------------------------------------------------;vmmmmmmmmmmmmmmmm",
"mmmmmiiiiiiiiiiiiiiiiiiiiiiiiiiiiiiiiy------------------------;vmmmmmmmmmmmmmmmm",
"mmmmmiiiiiiiiiiiiiiiiiiiiiiiiiiiiiiiii------------------------;vmmmmmmmmmmmmmmmm",
"mmmmmiiiiiiiiiiffffffffffiiiiiiiiiiiii------------------------;vmmmmmmmmmmmmmmmm",
"mmmmmiiiiiiiiiiffffffffffiiiiiiiiiiiii---------@@@@@@@@@@@@@--;vmmmmmmmmmmmmmmmm",
"mmmmn-----iiiiiffffffffffiiiiiiii;-------------@@@@@@@@@@@@@--;vmmmmmmmmmmmmmmmm",
"mmmmv-----iiiiiffffffffffiiiiiiii--------------@@@@@@@@@@@@@--;vmmmmmmmmmmmmmmmm",
"mmmmv-----iiiiiiiiiiiiiiiiiiiiiii--------------@@@@@@@@@@@@@--;vmmmmmmmmmmmmmmmm",
"mmmmv-----iiiiiiiiiiiiiiiiiiiiiii--------------@@@@@@@@@@@@@--;vmmmmmmmmmmmmmmmm",
"mmmmv-----iiiiiiiiiiiiiiiiiiiiiii-----------------------------;vmmmmmmmmmmmmmmmm",
"mmmmmiiiiiiiii@@@@@@@@@@iiiiiiiii;;;;;------------------------;mmmmmmmmmmmmmmmmm",
"mmmmmiiiiiiiii@@@@@@@@@@iiiiiiiiiiiiii------------------------;vmmmmmmmmmmmmmmmm",
"mmmmmiiiiiiiii@@@@@@@@@@iiiiiiiiiiiiii------------------------;vmmmmmmmmmmmmmmmm",
"mmmmmiiiiiiiii@@@@@@@@+$iiiiiiiiiiiiii------------------------;vmmmmmmmmmmmmmmmm",
"mmmmmiiiiiiiii@@@@@@@@@$iiiiiiiiiiiiii------------------------;vmmmmmmmmmmmmmmmm",
"mmmmv-----iiii@@@@@@@@@@iiiiiiiii-----------------------------;vmmmmmmmmmmmmmmmm",
"mmmmm-----iiii@@@@@@@@@@iiiiiiiii-----------------------------;vmmmmmmmmmmmmmmmm",
"mmmmv-----iiii@@@@@@@@@@iiiiiiiii-----------------------------;vmmmmmmmmmmmmmmmm",
"mmmmv-----iiii@@@@@@@@@@iiiiiiiii-----------@@@@@@@-----------;vmmmmmmmmmmmmmmmm",
"mmmmn-----iiii@@@@@@@@@@iiiiiiiii;----------@@@@@@@-----------;vmmmmmmmmmmmmmmmm",
"mmmmmiiiiiiiiiiiiiiiiiiiiiiiiiiiiiiiii------@@@@@@@-----------;vmmmmmmmmmmmmmmmm",
"mmmmmiiiiiiiiiiiiiiiiiiiiiiiiiiiiiiiii------@@@@@@@-----------;vmmmmmmmmmmmmmmmm",
"mmmmmiiiiiiiiiiiiiiiiiiiiiiiiiiiiiiiii------@@@@@@@-----------;vmmmmmmmmmmmmmmmm",
"mmmmmiiiiiiiiiiiiiiiiiiiiiiiiiiiiiiiii------------------------;mmmmmmmmmmmmmmmmm",
"mmmmmiiiiiiiiiiiiiiiiiiiiiiiiiiiiiiiii------------------------;vmmmmmmmmmmmmmmmm",
"mmmmv--------------iiiiiifffffffffffii------------------------;vmmmmmmmmmmmmmmmm",
"mmmmv--------------iiiiiifffffffffffii------------------------;vmmmmmmmmmmmmmmmm",
"mmmmv--------------iiiiiifffffffffffii-------------------------vmmmmmmmmmmmmmmmm",
"mmmmv--------------iiiiiifffffffffffii----------@@@@@@@@@@@@---vmmmmmmmmmmmmmmmm",
"mmmmmiiiiiiiiiiiiiiiiiiiiiiiiiiiiiiiii----------@@@@@@@@@@@@---vmmmmmmmmmmmmmmmm",
"mmmmmiiiiiiiiiiiiiiiiiiiiiiiiiiiiiiiii----------@@@@@@@@@@@@--;vmmmmmmmmmmmmmmmm",
"mmmmmiiiiiiiiiiiiiiiiiiiiiiiiiiiiiiiii----------@@@@@@@@@@@@--;vmmmmmmmmmmmmmmmm",
"mmmmmiiiiffffffffffiiiiiiiiiiiiiiiiiii----------@@@@@@@@@@@@--;vmmmmmmmmmmmmmmmm",
"mmmmmiiiiffffffffffiiiiiiiiiiiiiiiiiii------------------------;vmmmmmmmmmmmmmmmm",
"mmmmmiiiiffffffffffiiiii--------------------------------------;vmmmmmmmmmmmmmmmm",
"mmmmmiiiiffffffffffiiiii--------------------------------------;vmmmmmmmmmmmmmmmm",
"mmmmmiiiiiiiiiiiiiiiiiii--------------------------------------;vmmmmmmmmmmmmmmmm",
"mmmmmiiiiiiiiiiiiiiiiiii--------------------------------------;mmmmmmmmmmmmmmmmm",
"mmmmmiiiiiiiiiiiiiiiiiii--------------------------------------;vmmmmmmmmmmmmmmmm",
"mmmmv*****iiii@@@@@@@@@@iiiiiiiiii----------------------------;vmmmmmmmmmmmmmmmm",
"mmmmv*****iiii@@@@@@@@@@iiiiiiiiii----------------------------;vmmmmmmmmmmmmmmmm",
"mmmmv*****iiii@@@@@@@@@@iiiiiiiiii----------------------------;vmmmmmmmmmmmmmmmm",
"mmmmv*****iiii@@@@@@@@@@iiiiiiiiii------------@@@@@@@@@@@@----;vmmmmmmmmmmmmmmmm",
"mmmmn*****iiii@@@@@@@@@@iiiiiiiiii------------@@@@@@@@@@@@----;vmmmmmmmmmmmmmmmm",
"mmmmmiiiiiiiii@@@@@@@@@@iiiiiiiiiiiiii--------@@@@@@@@@@@@----;vmmmmmmmmmmmmmmmm",
"mmmmmiiiiiiiii@@@@@@@@@@iiiiiiiiiiiiii--------@@@@@@@@@@@@----;vmmmmmmmmmmmmmmmm",
"mmmmmiiiiiiiii@@@@@@@@@@iiiiiiiiiiiiii--------@@@@@@@@@@@@----;vmmmmmmmmmmmmmmmm",
"mmmmmiiiiiiiii@@@@@@@@@@iiiiiiiiiiiiii--------@@@@@@@@@@@@----;vmmmmmmmmmmmmmmmm",
"mmmmmiiiiiiiii@@@@@@@@@@iiiiiiiiiiiiii--------------@@@@@@----;vmmmmmmmmmmmmmmmm",
"mmmmmiiiiiiiiiiiiiiiiiiiiiiiiiiiiiiiii--------------@@@@@@----;vmmmmmmmmmmmmmmmm",
"mmmmmiiiiiiiiiiiiiiiiiiiiiiiiiiiiiiiii--------------@@@@@@----;vmmmmmmmmmmmmmmmm",
"mmmmmiiiiiiiiiiiiiiiiiiiiiiiiiiiiiiiii--------------@@@@@@----;mmmmmmmmmmmmmmmmm",
"mmmmmiiiiiiiiiiiiiiiiiiiiiiiiiiiiiiiii--------------@@@@@@----;vmmmmmmmmmmmmmmmm",
"mmmmn*****iiiiiiiiiiiiiiiiffffffff------------------@@@@@@----;vmmmmmmmmmmmmmmmm",
"mmmmv*****iiiiiiiiiiiiiiiiffffffff------------------@@@@@@----;vmmmmmmmmmmmmmmmm",
"mmmmv*****iiiiiiiiiiiiiiiiffffffff------------------@@@@@@----;vmmmmmmmmmmmmmmmm",
"mmmmv*****iiiiiiiiiiiiiiiiffffffff-------@@@@@@@@@@@@@@@@@----;vmmmmmmmmmmmmmmmm",
"mmmmv*****iiiiiiiiiiiiiiiiiiiiiiii-------@@@@@@@@@@@@@@@@@----;vmmmmmmmmmmmmmmmm",
"mmmmmiiiiiiiiiiiiiiiiiiiiiiiiiiiiiiiii---@@@@@@@@@@@@@@@@@----;vmmmmmmmmmmmmmmmm",
"mmmmmiiiiiiiiiiiiiiiiiiiiiiiiiiiiiiiii---@@@@@@@@@@@@@@@@@----;vmmmmmmmmmmmmmmmm",
"mmmmmiiiiiiiiiiiiiiiiiiiiiiiiiiiiiiiii---@@@@@@@@@@@@@@@@@----;vmmmmmmmmmmmmmmmm",
"mmmmmiiiiiiiiiiiiiiiiiiiiiiiiiiiiiiiii------------------------;vmmmmmmmmmmmmmmmm",
"mmmmmiiiiiiiiiiiiiiiiiiiiiiiiiiiiiiiii------------------------;vmmmmmmmmmmmmmmmm",
"mmmmv*********iiiiiiiiii--------------------------------------;vmmmmmmmmmmmmmmmm",
"mmmmv*********iiiiiiiiii--------------------------------------;vmmmmmmmmmmmmmmmm",
"mmmmv*********iiiiiiiiii------------------------@@@@@@@@@-----;vmmmmmmmmmmmmmmmm",
"mmmmv*********iiiiiiiiii------------------------@@@@@@@@@-----;vvvvvmmmmmmmmmmmm",
"mmmmv*********iiiiiiiiii------------------------@@@@@@@@@------;;;;:mmmmmmmmmmmm",
"iiiiiiiiiiiiiiiiiiiiiiiiiiiiiiiiiiiiiiiiiii-----@@@@@@@@@----------;mmmmmmmmmmmm",
"iiiiiiiiiiiiiiiiiiiiiiiiiiiiiiiiiiiiiiiiiii-----@@@@@@@@@----------;mmmmmmmmmmmm",
"iiiiiiiiiiiiiiiiiiiiiiiiiiiiiiiiiiiiiiiiiii-------------------------mmmmmmmmmmmm",
"iiiiiiiiiiiiiiiiiiiiiiiiiiiiiiiiiiiiiiiiiii-------------------------mmmmmmmmmmmm",
"iiiiiiiiiiiiiiiiiiiiiiiiiiiiiiiiiiiiiiiiiii-------------------------mmmmmmmmmmmm",
"iiiiiiiiiiOOOO>>>>>>>>>>iiiiiiiiiiiiiii--------------@@@@@@@@@@@----mmmmmmmmmmmm",
"iiiiiiiiiiOOOO>>>>>>>>>>iiiiiiiiiiiiiii--------------@@@@@@@@@@@----mmmmmmmmmmmm",
"iiiiiiiiiiOOOO>>>>>>>>>>iiiiiiiiiiiiiii--------------@@@@@@@@@@@---;mmmmmmmmmmmm",
"iiiiiiiiiiOOOO>>>>>>>>>>iiiiiiiiiiiiiii--------------@@@@@@@@@@@---;mmmmmmmmmmmm",
"*****iiiiiOOOO>>>>>>>>>>iiiiiiiiiiiiiiiiiii----------@@@@@@@@@@@---;kmmmmmmmmmmm",
"*****iiiiiOOOO>>>>>>>>>>iiiiiiiiiiiiiiiiiii------------------------;kmmmmmmmmmmm",
"*****iiiiiOOOO>>>>>>>>>>iiiiiiiiiiiiiiiiiii------------------------;kmmmmmmmmmmm",
"*****iiiiiOOOO>>>>>>>>>>iiiiiiiiiiiiiiiiiii------------------------;jmmmmmmmmmmm",
"*****iiiiiOOOO>>>>>>>>>>iiiiiiiiiiiiiiiiiii------------------------;jmmmmmmmmmmm"
};
