/* XPM */
static char *Otower5[] = {
/* columns rows colors chars-per-pixel */
"80 130 64 1 ",
"  c #000000",
". c #020202",
"X c #0A0A0A",
"o c #0B0B0B",
"O c #0C0C0C",
"+ c #101010",
"@ c #151515",
"# c #1A1A1A",
"$ c #1B1B1B",
"% c #1E1E1E",
"& c #232323",
"* c #52312E",
"= c #525245",
"- c #565649",
"; c #57574A",
": c #59594C",
"> c #5A5A4D",
", c #5F5F5F",
"< c #636353",
"1 c #646454",
"2 c #656554",
"3 c #666655",
"4 c #747464",
"5 c #757565",
"6 c #767666",
"7 c #916144",
"8 c #906145",
"9 c #916245",
"0 c #936448",
"q c #96694E",
"w c #EBA100",
"e c #EBA001",
"r c #EBA101",
"t c #ECA100",
"y c #ECA101",
"u c #ECA202",
"i c #ECA305",
"p c #EDA711",
"a c #A9A999",
"s c #ABAB9B",
"d c #ACAC9C",
"f c #AEAE9E",
"g c #AFAF9F",
"h c #B0B0A0",
"j c #B1B1A1",
"k c #B1B1A2",
"l c #B2B2A2",
"z c #B3B3A3",
"x c #B6B6A6",
"c c #B7B7A7",
"v c #C7C7B2",
"b c #C8C8B3",
"n c #C8C8B4",
"m c #C9C9B4",
"M c #C9C9B5",
"N c #FCFCFB",
"B c #FFFDFA",
"V c #FFFEFB",
"C c #FDFDFD",
"Z c #FFFEFD",
"A c #FFFFFE",
"S c #FFFFFE",
"D c #FFFFFE",
"F c #FFFFFE",
/* pixels */
"FFFFFFFFFFFFFFFFFFFFFFFFFFFFFFFFFFFFFFFFFFFFFFFFFFFFFFFFFFFFFFFFFFFFFFFFFFFFFFFF",
"FFFFFFFFFFFF$@o$$$$#FFFFFFFFFFFFFFFFFFFFFFFFFFFFFFFFFFFFFFFFFFFFFFFFFFFFFFFFFFFF",
"FFFFFFFFFFF$@>1>>>,$$FFFFFFFFFFFFFFFFFFFFFFFFFFFFFFFFFFFFFFFFFFFFFFFFFFFFFFFFFFF",
"FFFFFFFFFF$$>>#@#>>>$$FFFFFFFFFFFFFFFFFFFFFFFFFFFFFFFFFFFFFFFFFFFFFFFFFFFFFFFFFF",
"FFFFFFFFF$$>>#####11>$FFFFFFFFFFFFFFFFFFFFFFFFFFFFFFFFFFFFFFFFFFFFFFFFFFFFFFFFFF",
"FFFFFFFFF$>1@@#####>>OFFFFFFFFFFFFFFFFFFFFFFFFFFFFFFFFFFFFFFFFFFFFFFFFFFFFFFFFFF",
"FFFFFFFFF%>1#####@##>O@FFFFFFFFFFFFFFFFFFFFFFFFFytttttttpppptttttttttttttttttyii",
"FFFFFFFFF%>>########2>$FFFFFFFFFFFFFFFFFFFFFFFFFtttttttttttttttttttttttttttttyii",
"FFFFFFFFFX>1#####@##>>@$FFFFFFFFFFFFFFFFFFFFFFFFyttttttttttttttttttttttttttttyii",
"FFFFFFFFFX11##@####>>>>@FFFFFFFFFFFFFFFFFFFFFFFFyttttttttttttttttttttttttttttyii",
"FFFFFFFFF%>>>>####>11>1$FFFFFFFFFFFFFFFFFFFFFFFFyttttttttttttttttttttttttttttyii",
"FFFFFFFFF%>>>>>11111>>>@$FFFFFFFFFFFFFFFFFFFFFFFyttttttttttttttttttttttttttttyii",
"FFFFFFFFF%>,111111111>>>$FFFFFFFFFFFFFFFFFFFFFFFyttttttttttttttttttttttttttttyii",
"FFFFFFFFF%+>1>1111111>>>@FFFFFFFFFFFFFFFFFFFFFFFyttttttttttttttttttttttttttttyii",
"FFFFFFFFFF%>222111111>>>$FFFFFFFFFFFFFFFFFFFFFFFytttttttttttttyyyyttyyyyyyyyyuii",
"FFFFFFFFFF#@212111111>>>$$FFFFFFFFFFFFFFFFFFFFFFyttttttttttttyFFFFFFFFFFFFFFFFFF",
"FFFFFFFFFFF$2222212222222$FFFFFFFFFFFFFFFFFFFFFFyttttttttttttyZFFFFFFFFFFFFFFFFF",
"FFFFFFFFFFF@>1222.......2@FFFFFFFFFFFFFFFFFFFFFFyttttttttttttyVFFFFFFFFFFFFFFFFF",
"FFFFFFFFFFF$>22..8888888..FFFFFFFFFFFFFFFFFFFFFFytttttttttttttBFFFFFFFFFFFFFFFFF",
"FFFFFFFFFF$$2..88..888..88..FFFFFFFFFFFFFFFFFFFFrrrewuuuuuuuuuZFFFFFFFFFFFFFFFFF",
"FFFFFFFFF$qq.88..2.888.2..88.XFFFFFFFFFFFFFFFFFF77777FFFFFFFFFFFFFFFFFFFFFFFFFFF",
"FFFFFFFF$qFX000X22X000X22X000XFFFFFFFFFFFFFFFFFF97779SFFFFFFFFFFFFFFFFFFFFFFFFFF",
"FFFFFFFX0FX0X077X2X000XXX000X0XFFFFFFFFFFFFFFFFF97779SFFFFFFFFFFFFFFFFFFFFFFFFFF",
"FFFFFFX0FX0X3X070XX000X0000XFX0XFFFFFFFFFFFFFFFF97779FFFFFFFFFFFFFFFFFFFFFFFFFFF",
"nnnnn555560X$3X070 mnnnn5555555556FFFFzlll65555577777zzzzzzzzz;----;FFFFFFFFFFFF",
"bbbbb444450XF&3X000bbbbb4444444445FFFFllll54444477777lllllllll;----;FFFFFFFFFFFF",
"bbbbb444450XXXXXX00bbbbb4444444445FFFFllll54444477777lllllllll;----;FFFFFFFFFFFF",
"bbbbb44445000000000bbbbb4444444445FFFFllll54444477777lllllllll------FFFFFFFFFFFF",
"bbbbb44445000000000bbbbb4444444445FFFFzlll54444477777lllllllll------FFFFFFFFFFFF",
"bbbbv44444666666666mbbbb44444444445555llll54444444444444444444------FFFFFFFFFFFF",
"lllll44444444444444llllf44444444444444llll54444444444444444444------FFFFFFFFFFFF",
"lllll44444444444444llllh44444444444444llll54444444444444444444------FFFFFFFFFFFF",
"lllll44444444444444llllh44444444444444llll54444444444444444444-----;FFFFFFFFFFFF",
"lllll44444444444444llllh44444444444444455554444--------4444444-----;FFFFFFFFFFFF",
"44444bbbbbbbbbbaddsllllzbbbbbbbbbbllll444444444--------4444444444445FFFFFFFFFFFF",
"44444bbbbbbbbbbzxxczlljzbbbbbbbbbbllll444444444--------4444444444445FFFFFFFFFFFF",
"44444bbbbbbbbbbglllllljzbbbbbbbbbbllll444444444--------4444444444445FFFFFFFFFFFF",
"44444bbbbbbbbbbglllllljzbbbbbbbbbbllll444444444--------4444444444445FFFFFFFFFFFF",
"44444bbbbbbbbbbglllllljzbbbbbbbbbbllll444444444444-----4444444444445FFFFFFFFFFFF",
"llllzjjjjjjjjjllllllllllkjjjjjjjjlllllzllj54444444-----4444444444445FFFFFFFFFFFF",
"llllllllllllllllllllllllllllllllllllllllll54444444-----4444444444445FFFFFFFFFFFF",
"llllllllllllllllllllllllllllllllllllllllll54444444-----4444444444445FFFFFFFFFFFF",
"llllllllllllllllllllllllllllllllllllllllll54444444-----4444444444445FFFFFFFFFFFF",
"AAAA6444444444444444444444444444444444444454444444-----4444444455555FFFFFFFFFFFF",
"FFFF64444444444444444444444444444444444444444444444444444444445CAAAAFFFFFFFFFFFF",
"FFFF54444444444444444444444444444444444444444444444444444444445FFFFFFFFFFFFFFFFF",
"FFFF54444444444444444444444444444444444444444444444444444444445AFFFFFFFFFFFFFFFF",
"FFFF54444444444444444444444444444444444444444444444444444444445AFFFFFFFFFFFFFFFF",
"FFFF54444444444444444444444444444444444444444444444444444444445AFFFFFFFFFFFFFFFF",
"FFFFFllllllllllllllllllllllllllllllllj4444444444444444444444445AFFFFFFFFFFFFFFFF",
"FFFFFlllllllllllllllllllllllllllllllll4444444444444444444444445AFFFFFFFFFFFFFFFF",
"FFFFFllllllllllbbbbbbbbbblllllllllllll4444444444444444444444445AFFFFFFFFFFFFFFFF",
"FFFFFllllllllllbbbbbbbbbblllllllllllll444444444-------------445AFFFFFFFFFFFFFFFF",
"FFFFD44444lllllbbbbbbbbbbllllllll54444444444444-------------445AFFFFFFFFFFFFFFFF",
"FFFFA44444lllllbbbbbbbbbbllllllll44444444444444-------------445AFFFFFFFFFFFFFFFF",
"FFFFA44444lllllllllllllllllllllll44444444444444-------------445AFFFFFFFFFFFFFFFF",
"FFFFA44444lllllllllllllllllllllll44444444444444-------------445AFFFFFFFFFFFFFFFF",
"FFFFA44444lllllllllllllllllllllll444444444444444444444444444445AFFFFFFFFFFFFFFFF",
"FFFFFlllllllll----------lllllllll555554444444444444444444444445FFFFFFFFFFFFFFFFF",
"FFFFFlllllllll----------llllllllllllll4444444444444444444444445AFFFFFFFFFFFFFFFF",
"FFFFFlllllllll----------llllllllllllll4444444444444444444444445AFFFFFFFFFFFFFFFF",
"FFFFFlllllllll--------=:llllllllllllll4444444444444444444444445AFFFFFFFFFFFFFFFF",
"FFFFFlllllllll---------:llllllllllllll4444444444444444444444445AFFFFFFFFFFFFFFFF",
"FFFFA44444llll----------lllllllll444444444444444444444444444445AFFFFFFFFFFFFFFFF",
"FFFFF44444llll----------lllllllll444444444444444444444444444445AFFFFFFFFFFFFFFFF",
"FFFFA44444llll----------lllllllll444444444444444444444444444445AFFFFFFFFFFFFFFFF",
"FFFFA44444llll----------lllllllll44444444444-------444444444445AFFFFFFFFFFFFFFFF",
"FFFFD44444llll----------lllllllll54444444444-------444444444445AFFFFFFFFFFFFFFFF",
"FFFFFlllllllllllllllllllllllllllllllll444444-------444444444445AFFFFFFFFFFFFFFFF",
"FFFFFlllllllllllllllllllllllllllllllll444444-------444444444445AFFFFFFFFFFFFFFFF",
"FFFFFlllllllllllllllllllllllllllllllll444444-------444444444445AFFFFFFFFFFFFFFFF",
"FFFFFlllllllllllllllllllllllllllllllll4444444444444444444444445FFFFFFFFFFFFFFFFF",
"FFFFFlllllllllllllllllllllllllllllllll4444444444444444444444445AFFFFFFFFFFFFFFFF",
"FFFFA44444444444444llllllbbbbbbbbbbbll4444444444444444444444445AFFFFFFFFFFFFFFFF",
"FFFFA44444444444444llllllbbbbbbbbbbbll4444444444444444444444445AFFFFFFFFFFFFFFFF",
"FFFFA44444444444444llllllbbbbbbbbbbbll4444444444444444444444444AFFFFFFFFFFFFFFFF",
"FFFFA44444444444444llllllbbbbbbbbbbbll4444444444------------444AFFFFFFFFFFFFFFFF",
"FFFFFlllllllllllllllllllllllllllllllll4444444444------------444AFFFFFFFFFFFFFFFF",
"FFFFFlllllllllllllllllllllllllllllllll4444444444------------445AFFFFFFFFFFFFFFFF",
"FFFFFlllllllllllllllllllllllllllllllll4444444444------------445AFFFFFFFFFFFFFFFF",
"FFFFFllllbbbbbbbbbblllllllllllllllllll4444444444------------445AFFFFFFFFFFFFFFFF",
"FFFFFllllbbbbbbbbbblllllllllllllllllll4444444444444444444444445AFFFFFFFFFFFFFFFF",
"FFFFFllllbbbbbbbbbblllll444444444444444444444444444444444444445AFFFFFFFFFFFFFFFF",
"FFFFFllllbbbbbbbbbblllll444444444444444444444444444444444444445AFFFFFFFFFFFFFFFF",
"FFFFFlllllllllllllllllll444444444444444444444444444444444444445AFFFFFFFFFFFFFFFF",
"FFFFFlllllllllllllllllll444444444444444444444444444444444444445FFFFFFFFFFFFFFFFF",
"FFFFFlllllllllllllllllll444444444444444444444444444444444444445AFFFFFFFFFFFFFFFF",
"FFFFA<<<<<llll----------llllllllll44444444444444444444444444445AFFFFFFFFFFFFFFFF",
"FFFFA<<<<<llll----------llllllllll44444444444444444444444444445AFFFFFFFFFFFFFFFF",
"FFFFA<<<<<llll----------llllllllll44444444444444444444444444445AFFFFFFFFFFFFFFFF",
"FFFFA<<<<<llll----------llllllllll444444444444------------44445AFFFFFFFFFFFFFFFF",
"FFFFD<<<<<llll----------llllllllll444444444444------------44445AFFFFFFFFFFFFFFFF",
"FFFFFlllllllll----------llllllllllllll44444444------------44445AFFFFFFFFFFFFFFFF",
"FFFFFlllllllll----------llllllllllllll44444444------------44445AFFFFFFFFFFFFFFFF",
"FFFFFlllllllll----------llllllllllllll44444444------------44445AFFFFFFFFFFFFFFFF",
"FFFFFlllllllll----------llllllllllllll44444444------------44445AFFFFFFFFFFFFFFFF",
"FFFFFlllllllll----------llllllllllllll44444444444444------44445AFFFFFFFFFFFFFFFF",
"FFFFFlllllllllllllllllllllllllllllllll44444444444444------44445AFFFFFFFFFFFFFFFF",
"FFFFFlllllllllllllllllllllllllllllllll44444444444444------44445AFFFFFFFFFFFFFFFF",
"FFFFFlllllllllllllllllllllllllllllllll44444444444444------44445FFFFFFFFFFFFFFFFF",
"FFFFFlllllllllllllllllllllllllllllllll44444444444444------44445AFFFFFFFFFFFFFFFF",
"FFFFD<<<<<llllllllllllllllbbbbbbbb444444444444444444------44445AFFFFFFFFFFFFFFFF",
"FFFFA<<<<<llllllllllllllllbbbbbbbb444444444444444444------44445AFFFFFFFFFFFFFFFF",
"FFFFA<<<<<llllllllllllllllbbbbbbbb444444444444444444------44445AFFFFFFFFFFFFFFFF",
"FFFFA<<<<<llllllllllllllllbbbbbbbb4444444-----------------44445AFFFFFFFFFFFFFFFF",
"FFFFA<<<<<llllllllllllllllllllllll4444444-----------------44445AFFFFFFFFFFFFFFFF",
"FFFFFlllllllllllllllllllllllllllllllll444-----------------44445AFFFFFFFFFFFFFFFF",
"FFFFFlllllllllllllllllllllllllllllllll444-----------------44445AFFFFFFFFFFFFFFFF",
"FFFFFlllllllllllllllllllllllllllllllll444-----------------44445AFFFFFFFFFFFFFFFF",
"FFFFFlllllllllllllllllllllllllllllllll4444444444444444444444445AFFFFFFFFFFFFFFFF",
"FFFFFlllllllllllllllllllllllllllllllll4444444444444444444444445AFFFFFFFFFFFFFFFF",
"FFFFA<<<<<<<<<llllllllll444444444444444444444444444444444444445AFFFFFFFFFFFFFFFF",
"FFFFA<<<<<<<<<llllllllll444444444444444444444444444444444444445AFFFFFFFFFFFFFFFF",
"FFFFA<<<<<<<<<llllllllll444444444444444444444444---------444445AFFFFFFFFFFFFFFFF",
"FFFFA<<<<<<<<<llllllllll444444444444444444444444---------444445AAAAAFFFFFFFFFFFF",
"FFFFA<<<<<<<<<llllllllll444444444444444444444444---------44444455556FFFFFFFFFFFF",
"lllllllllllllllllllllllllllllllllllllllllll44444---------44444444445FFFFFFFFFFFF",
"lllllllllllllllllllllllllllllllllllllllllll44444---------44444444445FFFFFFFFFFFF",
"lllllllllllllllllllllllllllllllllllllllllll4444444444444444444444444FFFFFFFFFFFF",
"lllllllllllllllllllllllllllllllllllllllllll4444444444444444444444444FFFFFFFFFFFF",
"lllllllllllllllllllllllllllllllllllllllllll4444444444444444444444444FFFFFFFFFFFF",
"llllllllll****7777777777lllllllllllllll44444444444444-----------4444FFFFFFFFFFFF",
"llllllllll****7777777777lllllllllllllll44444444444444-----------4444FFFFFFFFFFFF",
"llllllllll****7777777777lllllllllllllll44444444444444-----------4445FFFFFFFFFFFF",
"llllllllll****7777777777lllllllllllllll44444444444444-----------4445FFFFFFFFFFFF",
"<<<<<lllll****7777777777lllllllllllllllllll4444444444-----------4445NFFFFFFFFFFF",
"<<<<<lllll****7777777777lllllllllllllllllll4444444444444444444444445NFFFFFFFFFFF",
"<<<<<lllll****7777777777lllllllllllllllllll4444444444444444444444445NFFFFFFFFFFF",
"<<<<<lllll****7777777777lllllllllllllllllll4444444444444444444444445MFFFFFFFFFFF",
"<<<<<lllll****7777777777lllllllllllllllllll4444444444444444444444445MFFFFFFFFFFF"
};
