/* XPM */
static char *Ptower3[] = {
/* columns rows colors chars-per-pixel */
"80 130 57 1 ",
"  c #000000",
". c #020202",
"X c #030303",
"o c #040404",
"O c #050505",
"+ c #0B0B0B",
"@ c #0C0C0C",
"# c #101010",
"$ c #111111",
"% c #1E1E1E",
"& c #52312E",
"* c #525245",
"= c #565649",
"- c #57574A",
"; c #59594C",
": c #5A5A4D",
"> c #5F5F5F",
", c #636353",
"< c #646453",
"1 c #646454",
"2 c #747464",
"3 c #757565",
"4 c #767666",
"5 c #CE542F",
"6 c #916144",
"7 c #906145",
"8 c #916245",
"9 c #936448",
"0 c #96694E",
"q c #CE902F",
"w c #C237FC",
"e c #A9A999",
"r c #ABAB9B",
"t c #ACAC9C",
"y c #AEAE9E",
"u c #AFAF9F",
"i c #B0B0A0",
"p c #B1B1A1",
"a c #B1B1A2",
"s c #B2B2A2",
"d c #B3B3A3",
"f c #B6B6A6",
"g c #B7B7A7",
"h c #C7C7B2",
"j c #C8C8B3",
"k c #C8C8B4",
"l c #C9C9B4",
"z c #C9C9B5",
"x c #FFFFFE",
"c c #FFFFFE",
"v c #FFFFFE",
"b c #FFFFFE",
"n c #FFFFFE",
"m c #FFFFFE",
"M c #FFFFFE",
"N c #FFFFFE",
"B c #FFFFFE",
/* pixels */
"BBBBBBBBBBBBBBBBBBBBBBBBBBBBBBBBBBBBBBBBBBBBBBBBBBBBBBBBBBBBBBBBBBBBBBBBBBBBBBBB",
"BBBBBBBBBBBBBBBBBBBBBBBBBBBBBBBBBBBBBBBBBBBBBBBBBBBBBBBBBBBBBBBBBBBBBBBBBBBBBBBB",
"BBBBBBBBBBBBBBBBBBBBBBBBBBBBBBBBBBBBBBBBBBBBBBBBBBBBBBBBBBBBBBBBBBBBBBBBBBBBBBBB",
"BBBBBBBBBBBBBBBBBBBBBBBBBBBBBBBBBBBBBBBBBBBBBBBBBBBBBBBBBBBBBBBBBBBBBBBBBBBBBBBB",
"BBBBBBBBBBBBBBBBBBBBBBBBBBBBBBBBBBBBBBBBBBBBBBBBBBBBBBBBBBBBBBBBBBBBBBBBBBBBBBBB",
"BBBBBBBBBBBBBBBBBBBBBBBBBBBBBBBBBBBBBBBBBBBBBBBBBBBBBBBBBBBBBBBBBBBBBXXoBBBBBBBB",
"wwwwwwwwwwwwwwwwwwwwwwwwwwwwwwwwBBBBBBBBBBBBBBBBBBBBBBBBBBBBBBBBBB@oX<:X@oBBBBBB",
"wwwwwwwwwwwwwwwwwwwwwwwwwwwwwwwwBBBBBBBBBBBBBBBBBBBBBBBBBBBBBBBBB@:::XX<:<@BBBBB",
"wwwwwwwwwwwwwwwwwwwwwwwwwwwwwwwwBBBBBBBBBBBBBBBBBBBBBBBBBBBBBBBB@+::++.o:<XBBBBB",
"wwwwwwwwwwwwwwwwwwwwwwwwwwwwwwwwBBBBBBBBBBBBBBBBBBBBBBBBBBBBBBB@o:<+....+<XBBBBB",
"wwwwwwwwwwwwwwwwwwwwwwwwwwwwwwwwBBBBBBBBBBBBBBBBBBBBBBBBBBBBBBoo::X......X<XBBBB",
"wwwwwwwwwwwwwwwwwwwwwwwwwwwwwwwwBBBBBBBBBBBBBBBBBBBBBBBBBBBBB@::<<X+....XX<oBBBB",
"wwwwwwwwwwwwwwwwwwwwwwwwwwwwwwwwBBBBBBBBBBBBBBBBBBBBBBBBBBBBoo::<<<++....::XBBBB",
"wwwwwwwwwwwwwwwwwwwwwwwwwwwwwwwwBBBBBBBBBBBBBBBBBBBBBBBBBBBoo::<<<<:+.+.:<:%BBBB",
"wwwwwwwwwwwwwwwwwwwwwwwwwwwwwwwwBBBBBBBBBBBBBBBBBBBBBBBBBBBo::<<<<<<<XX<<<X%BBBB",
"BBBBBBBBBBBBBBBBBBwwwwwwwwwwwwwwBBBBBBBBBBBBBBBBBBBBBBBBB@o:<<<<<<<<<<<:::XBBBBB",
"BBBBBBBBBBBBBBBBBnwwwwwwwwwwwwwwBBBBBBBBBBBBBBBBBBBBBBBBoo:<<<<<<<<1<:<::o%BBBBB",
"BBBBBBBBBBBBBBBBBvwwwwwwwwwwwwwwBBBBBBBBBBBBBBBBBBBBBBBB.......11<<11<<>@%BBBBBB",
"BBBBBBBBBBBBBBBBBcwwwwwwwwwwwwwwBBBBBBBBBBBBBBBBB5BqBB..7777777..1<1<1:#%BBBBBBB",
"BBBBBBBBBBBBBBBBBnwwwwwwwwwwwwwwBBBBBBBBBBBBBBBBBB5X..77..777..77..11:$%BBBBBBBB",
"BBBBBBBBBBBBBBBBBBBBBBBBBBB66666BBBBBBBBBBBBBBBBBBX.77..1.777.1..77.1@$BBBBBBBBB",
"BBBBBBBBBBBBBBBBBBBBBBBBBBM86668BBBBBBBBBBBBBBBBBBX999X11X999X11X999X@0OBBBBBBBB",
"BBBBBBBBBBBBBBBBBBBBBBBBBBM86668BBBBBBBBBBBBBBBBBX9X999XXX999X1X669X9XB9XBBBBBBB",
"BBBBBBBBBBBBBBBBBBBBBBBBBBB86668BBBBBBBBBBBBBBBBX9XBX9999X999XX969X1X9XB9XBBBBBB",
"BBBBBBBBBBBB-====-ddddddddd66666333334sssdBBBB4333333333kkkkl 969X1@X943333kkkkk",
"BBBBBBBBBBBB-====-sssssssss66666222223ssssBBBB3222222222jjjjj999X1@BX932222jjjjj",
"BBBBBBBBBBBB-====-sssssssss66666222223ssssBBBB3222222222jjjjj99XXXXXX932222jjjjj",
"BBBBBBBBBBBB======sssssssss66666222223ssssBBBB3222222222jjjjj99999999932222jjjjj",
"BBBBBBBBBBBB======sssssssss66666222223sssdBBBB3222222222jjjjj99999999932222jjjjj",
"BBBBBBBBBBBB======22222222222222222223ssss33332222222222jjjjl44444444422222hjjjj",
"BBBBBBBBBBBB======22222222222222222223ssss22222222222222yssss22222222222222sssss",
"BBBBBBBBBBBB======22222222222222222223ssss22222222222222issss22222222222222sssss",
"BBBBBBBBBBBB-=====22222222222222222223ssss22222222222222issss22222222222222sssss",
"BBBBBBBBBBBB-=====2222222========22223333222222222222222issss22222222222222sssss",
"BBBBBBBBBBBB3222222222222========222222222ssssjjjjjjjjjjdssssrttejjjjjjjjjj22222",
"BBBBBBBBBBBB3222222222222========222222222ssssjjjjjjjjjjdpssdgffdjjjjjjjjjj22222",
"BBBBBBBBBBBB3222222222222========222222222ssssjjjjjjjjjjdpssssssujjjjjjjjjj22222",
"BBBBBBBBBBBB3222222222222========222222222ssssjjjjjjjjjjdpssssssujjjjjjjjjj22222",
"BBBBBBBBBBBB3222222222222=====222222222222ssssjjjjjjjjjjdpssssssujjjjjjjjjj22222",
"BBBBBBBBBBBB3222222222222=====22222223pssdsssssppppppppasssssssssspppppppppdssss",
"BBBBBBBBBBBB3222222222222=====22222223ssssssssssssssssssssssssssssssssssssssssss",
"BBBBBBBBBBBB3222222222222=====22222223ssssssssssssssssssssssssssssssssssssssssss",
"BBBBBBBBBBBB3222222222222=====22222223ssssssssssssssssssssssssssssssssssssssssss",
"BBBBBBBBBBBB3333322222222=====2222222322222222222222222222222222222222222224mmmm",
"BBBBBBBBBBBBmmmmb32222222222222222222222222222222222222222222222222222222224BBBB",
"BBBBBBBBBBBBBBBBB32222222222222222222222222222222222222222222222222222222223BBBB",
"BBBBBBBBBBBBBBBBm32222222222222222222222222222222222222222222222222222222223BBBB",
"BBBBBBBBBBBBBBBBm32222222222222222222222222222222222222222222222222222222223BBBB",
"BBBBBBBBBBBBBBBBm32222222222222222222222222222222222222222222222222222222223BBBB",
"BBBBBBBBBBBBBBBBm3222222222222222222222222pssssssssssssssssssssssssssssssssBBBBB",
"BBBBBBBBBBBBBBBBm3222222222222222222222222sssssssssssssssssssssssssssssssssBBBBB",
"BBBBBBBBBBBBBBBBm3222222222222222222222222sssssssssssssjjjjjjjjjjssssssssssBBBBB",
"BBBBBBBBBBBBBBBBm322=============222222222sssssssssssssjjjjjjjjjjssssssssssBBBBB",
"BBBBBBBBBBBBBBBBm322=============22222222222223ssssssssjjjjjjjjjjsssss22222NBBBB",
"BBBBBBBBBBBBBBBBm322=============22222222222222ssssssssjjjjjjjjjjsssss22222mBBBB",
"BBBBBBBBBBBBBBBBm322=============22222222222222sssssssssssssssssssssss22222mBBBB",
"BBBBBBBBBBBBBBBBm322=============22222222222222sssssssssssssssssssssss22222mBBBB",
"BBBBBBBBBBBBBBBBm322222222222222222222222222222sssssssssssssssssssssss22222mBBBB",
"BBBBBBBBBBBBBBBBB322222222222222222222222233333sssssssss==========sssssssssBBBBB",
"BBBBBBBBBBBBBBBBm3222222222222222222222222ssssssssssssss==========sssssssssBBBBB",
"BBBBBBBBBBBBBBBBm3222222222222222222222222ssssssssssssss==========sssssssssBBBBB",
"BBBBBBBBBBBBBBBBm3222222222222222222222222ssssssssssssss;*========sssssssssBBBBB",
"BBBBBBBBBBBBBBBBm3222222222222222222222222ssssssssssssss;=========sssssssssBBBBB",
"BBBBBBBBBBBBBBBBm322222222222222222222222222222sssssssss==========ssss22222mBBBB",
"BBBBBBBBBBBBBBBBm322222222222222222222222222222sssssssss==========ssss22222BBBBB",
"BBBBBBBBBBBBBBBBm322222222222222222222222222222sssssssss==========ssss22222mBBBB",
"BBBBBBBBBBBBBBBBm322222222222=======22222222222sssssssss==========ssss22222mBBBB",
"BBBBBBBBBBBBBBBBm322222222222=======22222222223sssssssss==========ssss22222NBBBB",
"BBBBBBBBBBBBBBBBm322222222222=======222222sssssssssssssssssssssssssssssssssBBBBB",
"BBBBBBBBBBBBBBBBm322222222222=======222222sssssssssssssssssssssssssssssssssBBBBB",
"BBBBBBBBBBBBBBBBm322222222222=======222222sssssssssssssssssssssssssssssssssBBBBB",
"BBBBBBBBBBBBBBBBB3222222222222222222222222sssssssssssssssssssssssssssssssssBBBBB",
"BBBBBBBBBBBBBBBBm3222222222222222222222222sssssssssssssssssssssssssssssssssBBBBB",
"BBBBBBBBBBBBBBBBm3222222222222222222222222ssjjjjjjjjjjjssssss22222222222222mBBBB",
"BBBBBBBBBBBBBBBBm3222222222222222222222222ssjjjjjjjjjjjssssss22222222222222mBBBB",
"BBBBBBBBBBBBBBBBm2222222222222222222222222ssjjjjjjjjjjjssssss22222222222222mBBBB",
"BBBBBBBBBBBBBBBBm222============2222222222ssjjjjjjjjjjjssssss22222222222222mBBBB",
"BBBBBBBBBBBBBBBBm222============2222222222sssssssssssssssssssssssssssssssssBBBBB",
"BBBBBBBBBBBBBBBBm322============2222222222sssssssssssssssssssssssssssssssssBBBBB",
"BBBBBBBBBBBBBBBBm322============2222222222sssssssssssssssssssssssssssssssssBBBBB",
"BBBBBBBBBBBBBBBBm322============2222222222sssssssssssssssssssjjjjjjjjjjssssBBBBB",
"BBBBBBBBBBBBBBBBm3222222222222222222222222sssssssssssssssssssjjjjjjjjjjssssBBBBB",
"BBBBBBBBBBBBBBBBm322222222222222222222222222222222222222sssssjjjjjjjjjjssssBBBBB",
"BBBBBBBBBBBBBBBBm322222222222222222222222222222222222222sssssjjjjjjjjjjssssBBBBB",
"BBBBBBBBBBBBBBBBm322222222222222222222222222222222222222sssssssssssssssssssBBBBB",
"BBBBBBBBBBBBBBBBB322222222222222222222222222222222222222sssssssssssssssssssBBBBB",
"BBBBBBBBBBBBBBBBm322222222222222222222222222222222222222sssssssssssssssssssBBBBB",
"BBBBBBBBBBBBBBBBm32222222222222222222222222222ssssssssss==========ssss,,,,,mBBBB",
"BBBBBBBBBBBBBBBBm32222222222222222222222222222ssssssssss==========ssss,,,,,mBBBB",
"BBBBBBBBBBBBBBBBm32222222222222222222222222222ssssssssss==========ssss,,,,,mBBBB",
"BBBBBBBBBBBBBBBBm32222============222222222222ssssssssss==========ssss,,,,,mBBBB",
"BBBBBBBBBBBBBBBBm32222============222222222222ssssssssss==========ssss,,,,,NBBBB",
"BBBBBBBBBBBBBBBBm32222============22222222ssssssssssssss==========sssssssssBBBBB",
"BBBBBBBBBBBBBBBBm32222============22222222ssssssssssssss==========sssssssssBBBBB",
"BBBBBBBBBBBBBBBBm32222============22222222ssssssssssssss==========sssssssssBBBBB",
"BBBBBBBBBBBBBBBBm32222============22222222ssssssssssssss==========sssssssssBBBBB",
"BBBBBBBBBBBBBBBBm32222======22222222222222ssssssssssssss==========sssssssssBBBBB",
"BBBBBBBBBBBBBBBBm32222======22222222222222sssssssssssssssssssssssssssssssssBBBBB",
"BBBBBBBBBBBBBBBBm32222======22222222222222sssssssssssssssssssssssssssssssssBBBBB",
"BBBBBBBBBBBBBBBBB32222======22222222222222sssssssssssssssssssssssssssssssssBBBBB",
"BBBBBBBBBBBBBBBBm32222======22222222222222sssssssssssssssssssssssssssssssssBBBBB",
"BBBBBBBBBBBBBBBBm32222======222222222222222222jjjjjjjjssssssssssssssss,,,,,NBBBB",
"BBBBBBBBBBBBBBBBm32222======222222222222222222jjjjjjjjssssssssssssssss,,,,,mBBBB",
"BBBBBBBBBBBBBBBBm32222======222222222222222222jjjjjjjjssssssssssssssss,,,,,mBBBB",
"BBBBBBBBBBBBBBBBm32222=================2222222jjjjjjjjssssssssssssssss,,,,,mBBBB",
"BBBBBBBBBBBBBBBBm32222=================2222222ssssssssssssssssssssssss,,,,,mBBBB",
"BBBBBBBBBBBBBBBBm32222=================222sssssssssssssssssssssssssssssssssBBBBB",
"BBBBBBBBBBBBBBBBm32222=================222sssssssssssssssssssssssssssssssssBBBBB",
"BBBBBBBBBBBBBBBBm32222=================222sssssssssssssssssssssssssssssssssBBBBB",
"BBBBBBBBBBBBBBBBm3222222222222222222222222sssssssssssssssssssssssssssssssssBBBBB",
"BBBBBBBBBBBBBBBBm3222222222222222222222222sssssssssssssssssssssssssssssssssBBBBB",
"BBBBBBBBBBBBBBBBm322222222222222222222222222222222222222ssssssssss,,,,,,,,,mBBBB",
"BBBBBBBBBBBBBBBBm322222222222222222222222222222222222222ssssssssss,,,,,,,,,mBBBB",
"BBBBBBBBBBBBBBBBm322222=========222222222222222222222222ssssssssss,,,,,,,,,mBBBB",
"BBBBBBBBBBBBmmmmm322222=========222222222222222222222222ssssssssss,,,,,,,,,mBBBB",
"BBBBBBBBBBBB43333222222=========222222222222222222222222ssssssssss,,,,,,,,,mBBBB",
"BBBBBBBBBBBB32222222222=========22222sssssssssssssssssssssssssssssssssssssssssss",
"BBBBBBBBBBBB32222222222=========22222sssssssssssssssssssssssssssssssssssssssssss",
"BBBBBBBBBBBB2222222222222222222222222sssssssssssssssssssssssssssssssssssssssssss",
"BBBBBBBBBBBB2222222222222222222222222sssssssssssssssssssssssssssssssssssssssssss",
"BBBBBBBBBBBB2222222222222222222222222sssssssssssssssssssssssssssssssssssssssssss",
"BBBBBBBBBBBB2222===========22222222222222sssssssssssssss6666666666&&&&ssssssssss",
"BBBBBBBBBBBB2222===========22222222222222sssssssssssssss6666666666&&&&ssssssssss",
"BBBBBBBBBBBB3222===========22222222222222sssssssssssssss6666666666&&&&ssssssssss",
"BBBBBBBBBBBB3222===========22222222222222sssssssssssssss6666666666&&&&ssssssssss",
"BBBBBBBBBBBx3222===========2222222222sssssssssssssssssss6666666666&&&&sssss,,,,,",
"BBBBBBBBBBBx3222222222222222222222222sssssssssssssssssss6666666666&&&&sssss,,,,,",
"BBBBBBBBBBBx3222222222222222222222222sssssssssssssssssss6666666666&&&&sssss,,,,,",
"BBBBBBBBBBBz3222222222222222222222222sssssssssssssssssss6666666666&&&&sssss,,,,,",
"BBBBBBBBBBBz3222222222222222222222222sssssssssssssssssss6666666666&&&&sssss,,,,,"
};
