/* XPM */
static char *Ptower0[] = {
/* columns rows colors chars-per-pixel */
"80 130 52 1 ",
"  c #000000",
". c #030201",
"X c #020202",
"o c #040404",
"O c #050505",
"+ c #52312E",
"@ c #525245",
"# c #565649",
"$ c #57574A",
"% c #59594C",
"& c #5A5A4D",
"* c #5B5B4E",
"= c #5F5F5F",
"- c #636353",
"; c #646464",
": c #646464",
"> c #747464",
", c #757565",
"< c #767666",
"1 c #CE542F",
"2 c #916144",
"3 c #906145",
"4 c #916245",
"5 c #936448",
"6 c #CE902F",
"7 c #C237FC",
"8 c #A9A999",
"9 c #ABAB9B",
"0 c #ACAC9C",
"q c #AEAE9E",
"w c #AFAF9F",
"e c #B0B0A0",
"r c #B1B1A1",
"t c #B1B1A2",
"y c #B2B2A2",
"u c #B3B3A3",
"i c #B6B6A6",
"p c #B7B7A7",
"a c #C7C7B2",
"s c #C8C8B3",
"d c #C8C8B4",
"f c #C9C9B4",
"g c #CACAB5",
"h c #FFFFFE",
"j c #FFFFFE",
"k c #FFFFFE",
"l c #FFFFFE",
"z c #FFFFFE",
"x c #FFFFFE",
"c c #FFFEFE",
"v c #FFFFFE",
"b c #FFFFFE",
/* pixels */
"bbbbbbbbbbbbbbbbbbbbbbbbbbbbbbbbbbbbbbbbbbbbbbbbbbbbbbbbbbbbbbbbbbbbbbbbbbbbbbbb",
"bbbbbbbbbbbbbbbbbbbbbbbbbbbbbbbbbbbbbbbbbbbbbbbbbbbbbbbbbbbbbbbbbbbbbbbbbbbbbbbb",
"bbbbbbbbbbbbbbbbbbbbbbbbbbbbbbbbbbbbbbbbbbbbbbbbbbbbbbbbbbbbbbbbbbbbbbbbbbbbbbbb",
"bbbbbbbbbbbbbbbbbbbbbbbbbbbbbbbbbbbbbbbbbbbbbbbbbbbbbbbbbbbbbbbbbbbbbbbbbbbbbbbb",
"bbbbbbbbbbbbbbbbbbbbbbbbbbbbbbbbbbbbbbbbbbbbbbbbbbbbbbbbbbbbbbbbbbbbbbbbbbbbbbbb",
"bbbbbbbbbbbbbbbbbbbbbbbbbbbbbbbbbbbbbbbbbbbbbbbbbbbbbbbbbbbbbbbbbbbbbbbbbbbbbbbb",
"77777777777777777777777777777777bbbbbbbbbbbbbbbbbbbbbbbbbbbbbbbbbbbbbbbbbbbbbbbb",
"77777777777777777777777777777777bbbbbbbbbbbbbbbbbbbb1bbbbbbbbbbbbbbbbbbbbbbbbbbb",
"77777777777777777777777777777777bbbbbbbbbbbbbbbbbbbbb16bbbbbbbbbbbbbbbbbbbbbbbbb",
"77777777777777777777777777777777bbbbbbbbbbbbbbbbbbbbb1Obbbbbbbbbbbbbbbbbbbbbbbbb",
"77777777777777777777777777777777bbbbbbbbbbbbbbbbbbbbbbObbbbbbbbbbbbbbbbbbbbbbbbb",
"77777777777777777777777777777777bbbbbbbbbbbbbbbbbbbbbbbObbbbbbbbbbbbbbbbbbbbbbbb",
"77777777777777777777777777777777bbbbbbbbbbbbbbbbbbbOOOOOOOOOOOOOOOOOOOOOOOOObbbb",
"77777777777777777777777777777777bbbbbbbbbbbbbbbbbbO;;;;;;;;;;;;;;;;;;;;;;;*;Obbb",
"77777777777777777777777777777777bbbbbbbbbbbbbbbbbO;;;;*;;;;;;;;;;;;;;;;=XXX;;Obb",
"bbbbbbbbbbbbbbbbbb77777777777777bbbbbbbbbbbbbbbbO;;;;**;;;;;;;;;;;;;;;=XXXXX;Obb",
"bbbbbbbbbbbbbbbbbz77777777777777bbbbbbbbbbbbbbbO;;;;***;;;;;;;;;;;;;;;=XXXXX;Obb",
"bbbbbbbbbbbbbbbbbk77777777777777bbbbbbbbbbbbbbbO;;;;***;XXXXXXX;;;;;;;=XXXXX;Obb",
"bbbbbbbbbbbbbbbbbj77777777777777bbbbbbbbbbbbbbbbO&;;;;XX3333333XX;;;;;=XXXXX;Obb",
"bbbbbbbbbbbbbbbbbz77777777777777bbbbbbbbbbbbbbbbbO;;XX33XX333XX33XX****=XXX;;Obb",
"bbbbbbbbbbbbbbbbbbbbbbbbbbb22222bbbbbbbbbbbbbbbbbboX33XX:X333X:XX33X;;;;;;;;Obbb",
"bbbbbbbbbbbbbbbbbbbbbbbbbbc42224bbbbbbbbbbbbbbbbbbO555OOOO555OOOO555 O.OOOOObbbb",
"bbbbbbbbbbbbbbbbbbbbbbbbbbc42224bbbbbbbbbbbbbbbbbO5O555OOO555ObO225O5Ob5Obbbbbbb",
"bbbbbbbbbbbbbbbbbbbbbbbbbbb42224bbbbbbbbbbbbbbbbO5ObO5555O555OO525ObO5Ob5Obbbbbb",
"bbbbbbbbbbbb$####$uuuuuuuuu22222,,,,,<yyyubbbb<,,,,,,,,,ddddf 525ObbO5<,,,,ddddd",
"bbbbbbbbbbbb$####$yyyyyyyyy22222>>>>>,yyyybbbb,>>>>>>>>>sssss555ObbbO5,>>>>sssss",
"bbbbbbbbbbbb$####$yyyyyyyyy22222>>>>>,yyyybbbb,>>>>>>>>>sssss55OOOOOO5,>>>>sssss",
"bbbbbbbbbbbb######yyyyyyyyy22222>>>>>,yyyybbbb,>>>>>>>>>sssss555555555,>>>>sssss",
"bbbbbbbbbbbb######yyyyyyyyy22222>>>>>,yyyubbbb,>>>>>>>>>sssss555555555,>>>>sssss",
"bbbbbbbbbbbb######>>>>>>>>>>>>>>>>>>>,yyyy,,,,>>>>>>>>>>ssssf<<<<<<<<<>>>>>assss",
"bbbbbbbbbbbb######>>>>>>>>>>>>>>>>>>>,yyyy>>>>>>>>>>>>>>qyyyy>>>>>>>>>>>>>>yyyyy",
"bbbbbbbbbbbb######>>>>>>>>>>>>>>>>>>>,yyyy>>>>>>>>>>>>>>eyyyy>>>>>>>>>>>>>>yyyyy",
"bbbbbbbbbbbb$#####>>>>>>>>>>>>>>>>>>>,yyyy>>>>>>>>>>>>>>eyyyy>>>>>>>>>>>>>>yyyyy",
"bbbbbbbbbbbb$#####>>>>>>>########>>>>,,,,>>>>>>>>>>>>>>>eyyyy>>>>>>>>>>>>>>yyyyy",
"bbbbbbbbbbbb,>>>>>>>>>>>>########>>>>>>>>>yyyyssssssssssuyyyy9008ssssssssss>>>>>",
"bbbbbbbbbbbb,>>>>>>>>>>>>########>>>>>>>>>yyyyssssssssssuryyupiiussssssssss>>>>>",
"bbbbbbbbbbbb,>>>>>>>>>>>>########>>>>>>>>>yyyyssssssssssuryyyyyywssssssssss>>>>>",
"bbbbbbbbbbbb,>>>>>>>>>>>>########>>>>>>>>>yyyyssssssssssuryyyyyywssssssssss>>>>>",
"bbbbbbbbbbbb,>>>>>>>>>>>>#####>>>>>>>>>>>>yyyyssssssssssuryyyyyywssssssssss>>>>>",
"bbbbbbbbbbbb,>>>>>>>>>>>>#####>>>>>>>,ryyuyyyyyrrrrrrrrtyyyyyyyyyyrrrrrrrrruyyyy",
"bbbbbbbbbbbb,>>>>>>>>>>>>#####>>>>>>>,yyyyyyyyyyyyyyyyyyyyyyyyyyyyyyyyyyyyyyyyyy",
"bbbbbbbbbbbb,>>>>>>>>>>>>#####>>>>>>>,yyyyyyyyyyyyyyyyyyyyyyyyyyyyyyyyyyyyyyyyyy",
"bbbbbbbbbbbb,>>>>>>>>>>>>#####>>>>>>>,yyyyyyyyyyyyyyyyyyyyyyyyyyyyyyyyyyyyyyyyyy",
"bbbbbbbbbbbb,,,,,>>>>>>>>#####>>>>>>>,>>>>>>>>>>>>>>>>>>>>>>>>>>>>>>>>>>>>><xxxx",
"bbbbbbbbbbbbxxxxl,>>>>>>>>>>>>>>>>>>>>>>>>>>>>>>>>>>>>>>>>>>>>>>>>>>>>>>>>><bbbb",
"bbbbbbbbbbbbbbbbb,>>>>>>>>>>>>>>>>>>>>>>>>>>>>>>>>>>>>>>>>>>>>>>>>>>>>>>>>>,bbbb",
"bbbbbbbbbbbbbbbbx,>>>>>>>>>>>>>>>>>>>>>>>>>>>>>>>>>>>>>>>>>>>>>>>>>>>>>>>>>,bbbb",
"bbbbbbbbbbbbbbbbx,>>>>>>>>>>>>>>>>>>>>>>>>>>>>>>>>>>>>>>>>>>>>>>>>>>>>>>>>>,bbbb",
"bbbbbbbbbbbbbbbbx,>>>>>>>>>>>>>>>>>>>>>>>>>>>>>>>>>>>>>>>>>>>>>>>>>>>>>>>>>,bbbb",
"bbbbbbbbbbbbbbbbx,>>>>>>>>>>>>>>>>>>>>>>>>ryyyyyyyyyyyyyyyyyyyyyyyyyyyyyyyybbbbb",
"bbbbbbbbbbbbbbbbx,>>>>>>>>>>>>>>>>>>>>>>>>yyyyyyyyyyyyyyyyyyyyyyyyyyyyyyyyybbbbb",
"bbbbbbbbbbbbbbbbx,>>>>>>>>>>>>>>>>>>>>>>>>yyyyyyyyyyyyyssssssssssyyyyyyyyyybbbbb",
"bbbbbbbbbbbbbbbbx,>>#############>>>>>>>>>yyyyyyyyyyyyyssssssssssyyyyyyyyyybbbbb",
"bbbbbbbbbbbbbbbbx,>>#############>>>>>>>>>>>>>,yyyyyyyyssssssssssyyyyy>>>>>vbbbb",
"bbbbbbbbbbbbbbbbx,>>#############>>>>>>>>>>>>>>yyyyyyyyssssssssssyyyyy>>>>>xbbbb",
"bbbbbbbbbbbbbbbbx,>>#############>>>>>>>>>>>>>>yyyyyyyyyyyyyyyyyyyyyyy>>>>>xbbbb",
"bbbbbbbbbbbbbbbbx,>>#############>>>>>>>>>>>>>>yyyyyyyyyyyyyyyyyyyyyyy>>>>>xbbbb",
"bbbbbbbbbbbbbbbbx,>>>>>>>>>>>>>>>>>>>>>>>>>>>>>yyyyyyyyyyyyyyyyyyyyyyy>>>>>xbbbb",
"bbbbbbbbbbbbbbbbb,>>>>>>>>>>>>>>>>>>>>>>>>,,,,,yyyyyyyyy##########yyyyyyyyybbbbb",
"bbbbbbbbbbbbbbbbx,>>>>>>>>>>>>>>>>>>>>>>>>yyyyyyyyyyyyyy##########yyyyyyyyybbbbb",
"bbbbbbbbbbbbbbbbx,>>>>>>>>>>>>>>>>>>>>>>>>yyyyyyyyyyyyyy##########yyyyyyyyybbbbb",
"bbbbbbbbbbbbbbbbx,>>>>>>>>>>>>>>>>>>>>>>>>yyyyyyyyyyyyyy%@########yyyyyyyyybbbbb",
"bbbbbbbbbbbbbbbbx,>>>>>>>>>>>>>>>>>>>>>>>>yyyyyyyyyyyyyy%#########yyyyyyyyybbbbb",
"bbbbbbbbbbbbbbbbx,>>>>>>>>>>>>>>>>>>>>>>>>>>>>>yyyyyyyyy##########yyyy>>>>>xbbbb",
"bbbbbbbbbbbbbbbbx,>>>>>>>>>>>>>>>>>>>>>>>>>>>>>yyyyyyyyy##########yyyy>>>>>bbbbb",
"bbbbbbbbbbbbbbbbx,>>>>>>>>>>>>>>>>>>>>>>>>>>>>>yyyyyyyyy##########yyyy>>>>>xbbbb",
"bbbbbbbbbbbbbbbbx,>>>>>>>>>>>#######>>>>>>>>>>>yyyyyyyyy##########yyyy>>>>>xbbbb",
"bbbbbbbbbbbbbbbbx,>>>>>>>>>>>#######>>>>>>>>>>,yyyyyyyyy##########yyyy>>>>>vbbbb",
"bbbbbbbbbbbbbbbbx,>>>>>>>>>>>#######>>>>>>yyyyyyyyyyyyyyyyyyyyyyyyyyyyyyyyybbbbb",
"bbbbbbbbbbbbbbbbx,>>>>>>>>>>>#######>>>>>>yyyyyyyyyyyyyyyyyyyyyyyyyyyyyyyyybbbbb",
"bbbbbbbbbbbbbbbbx,>>>>>>>>>>>#######>>>>>>yyyyyyyyyyyyyyyyyyyyyyyyyyyyyyyyybbbbb",
"bbbbbbbbbbbbbbbbb,>>>>>>>>>>>>>>>>>>>>>>>>yyyyyyyyyyyyyyyyyyyyyyyyyyyyyyyyybbbbb",
"bbbbbbbbbbbbbbbbx,>>>>>>>>>>>>>>>>>>>>>>>>yyyyyyyyyyyyyyyyyyyyyyyyyyyyyyyyybbbbb",
"bbbbbbbbbbbbbbbbx,>>>>>>>>>>>>>>>>>>>>>>>>yysssssssssssyyyyyy>>>>>>>>>>>>>>xbbbb",
"bbbbbbbbbbbbbbbbx,>>>>>>>>>>>>>>>>>>>>>>>>yysssssssssssyyyyyy>>>>>>>>>>>>>>xbbbb",
"bbbbbbbbbbbbbbbbx>>>>>>>>>>>>>>>>>>>>>>>>>yysssssssssssyyyyyy>>>>>>>>>>>>>>xbbbb",
"bbbbbbbbbbbbbbbbx>>>############>>>>>>>>>>yysssssssssssyyyyyy>>>>>>>>>>>>>>xbbbb",
"bbbbbbbbbbbbbbbbx>>>############>>>>>>>>>>yyyyyyyyyyyyyyyyyyyyyyyyyyyyyyyyybbbbb",
"bbbbbbbbbbbbbbbbx,>>############>>>>>>>>>>yyyyyyyyyyyyyyyyyyyyyyyyyyyyyyyyybbbbb",
"bbbbbbbbbbbbbbbbx,>>############>>>>>>>>>>yyyyyyyyyyyyyyyyyyyyyyyyyyyyyyyyybbbbb",
"bbbbbbbbbbbbbbbbx,>>############>>>>>>>>>>yyyyyyyyyyyyyyyyyyyssssssssssyyyybbbbb",
"bbbbbbbbbbbbbbbbx,>>>>>>>>>>>>>>>>>>>>>>>>yyyyyyyyyyyyyyyyyyyssssssssssyyyybbbbb",
"bbbbbbbbbbbbbbbbx,>>>>>>>>>>>>>>>>>>>>>>>>>>>>>>>>>>>>>>yyyyyssssssssssyyyybbbbb",
"bbbbbbbbbbbbbbbbx,>>>>>>>>>>>>>>>>>>>>>>>>>>>>>>>>>>>>>>yyyyyssssssssssyyyybbbbb",
"bbbbbbbbbbbbbbbbx,>>>>>>>>>>>>>>>>>>>>>>>>>>>>>>>>>>>>>>yyyyyyyyyyyyyyyyyyybbbbb",
"bbbbbbbbbbbbbbbbb,>>>>>>>>>>>>>>>>>>>>>>>>>>>>>>>>>>>>>>yyyyyyyyyyyyyyyyyyybbbbb",
"bbbbbbbbbbbbbbbbx,>>>>>>>>>>>>>>>>>>>>>>>>>>>>>>>>>>>>>>yyyyyyyyyyyyyyyyyyybbbbb",
"bbbbbbbbbbbbbbbbx,>>>>>>>>>>>>>>>>>>>>>>>>>>>>yyyyyyyyyy##########yyyy-----xbbbb",
"bbbbbbbbbbbbbbbbx,>>>>>>>>>>>>>>>>>>>>>>>>>>>>yyyyyyyyyy##########yyyy-----xbbbb",
"bbbbbbbbbbbbbbbbx,>>>>>>>>>>>>>>>>>>>>>>>>>>>>yyyyyyyyyy##########yyyy-----xbbbb",
"bbbbbbbbbbbbbbbbx,>>>>############>>>>>>>>>>>>yyyyyyyyyy##########yyyy-----xbbbb",
"bbbbbbbbbbbbbbbbx,>>>>############>>>>>>>>>>>>yyyyyyyyyy##########yyyy-----vbbbb",
"bbbbbbbbbbbbbbbbx,>>>>############>>>>>>>>yyyyyyyyyyyyyy##########yyyyyyyyybbbbb",
"bbbbbbbbbbbbbbbbx,>>>>############>>>>>>>>yyyyyyyyyyyyyy##########yyyyyyyyybbbbb",
"bbbbbbbbbbbbbbbbx,>>>>############>>>>>>>>yyyyyyyyyyyyyy##########yyyyyyyyybbbbb",
"bbbbbbbbbbbbbbbbx,>>>>############>>>>>>>>yyyyyyyyyyyyyy##########yyyyyyyyybbbbb",
"bbbbbbbbbbbbbbbbx,>>>>######>>>>>>>>>>>>>>yyyyyyyyyyyyyy##########yyyyyyyyybbbbb",
"bbbbbbbbbbbbbbbbx,>>>>######>>>>>>>>>>>>>>yyyyyyyyyyyyyyyyyyyyyyyyyyyyyyyyybbbbb",
"bbbbbbbbbbbbbbbbx,>>>>######>>>>>>>>>>>>>>yyyyyyyyyyyyyyyyyyyyyyyyyyyyyyyyybbbbb",
"bbbbbbbbbbbbbbbbb,>>>>######>>>>>>>>>>>>>>yyyyyyyyyyyyyyyyyyyyyyyyyyyyyyyyybbbbb",
"bbbbbbbbbbbbbbbbx,>>>>######>>>>>>>>>>>>>>yyyyyyyyyyyyyyyyyyyyyyyyyyyyyyyyybbbbb",
"bbbbbbbbbbbbbbbbx,>>>>######>>>>>>>>>>>>>>>>>>ssssssssyyyyyyyyyyyyyyyy-----vbbbb",
"bbbbbbbbbbbbbbbbx,>>>>######>>>>>>>>>>>>>>>>>>ssssssssyyyyyyyyyyyyyyyy-----xbbbb",
"bbbbbbbbbbbbbbbbx,>>>>######>>>>>>>>>>>>>>>>>>ssssssssyyyyyyyyyyyyyyyy-----xbbbb",
"bbbbbbbbbbbbbbbbx,>>>>#################>>>>>>>ssssssssyyyyyyyyyyyyyyyy-----xbbbb",
"bbbbbbbbbbbbbbbbx,>>>>#################>>>>>>>yyyyyyyyyyyyyyyyyyyyyyyy-----xbbbb",
"bbbbbbbbbbbbbbbbx,>>>>#################>>>yyyyyyyyyyyyyyyyyyyyyyyyyyyyyyyyybbbbb",
"bbbbbbbbbbbbbbbbx,>>>>#################>>>yyyyyyyyyyyyyyyyyyyyyyyyyyyyyyyyybbbbb",
"bbbbbbbbbbbbbbbbx,>>>>#################>>>yyyyyyyyyyyyyyyyyyyyyyyyyyyyyyyyybbbbb",
"bbbbbbbbbbbbbbbbx,>>>>>>>>>>>>>>>>>>>>>>>>yyyyyyyyyyyyyyyyyyyyyyyyyyyyyyyyybbbbb",
"bbbbbbbbbbbbbbbbx,>>>>>>>>>>>>>>>>>>>>>>>>yyyyyyyyyyyyyyyyyyyyyyyyyyyyyyyyybbbbb",
"bbbbbbbbbbbbbbbbx,>>>>>>>>>>>>>>>>>>>>>>>>>>>>>>>>>>>>>>yyyyyyyyyy---------xbbbb",
"bbbbbbbbbbbbbbbbx,>>>>>>>>>>>>>>>>>>>>>>>>>>>>>>>>>>>>>>yyyyyyyyyy---------xbbbb",
"bbbbbbbbbbbbbbbbx,>>>>>#########>>>>>>>>>>>>>>>>>>>>>>>>yyyyyyyyyy---------xbbbb",
"bbbbbbbbbbbbxxxxx,>>>>>#########>>>>>>>>>>>>>>>>>>>>>>>>yyyyyyyyyy---------xbbbb",
"bbbbbbbbbbbb<,,,,>>>>>>#########>>>>>>>>>>>>>>>>>>>>>>>>yyyyyyyyyy---------xbbbb",
"bbbbbbbbbbbb,>>>>>>>>>>#########>>>>>yyyyyyyyyyyyyyyyyyyyyyyyyyyyyyyyyyyyyyyyyyy",
"bbbbbbbbbbbb,>>>>>>>>>>#########>>>>>yyyyyyyyyyyyyyyyyyyyyyyyyyyyyyyyyyyyyyyyyyy",
"bbbbbbbbbbbb>>>>>>>>>>>>>>>>>>>>>>>>>yyyyyyyyyyyyyyyyyyyyyyyyyyyyyyyyyyyyyyyyyyy",
"bbbbbbbbbbbb>>>>>>>>>>>>>>>>>>>>>>>>>yyyyyyyyyyyyyyyyyyyyyyyyyyyyyyyyyyyyyyyyyyy",
"bbbbbbbbbbbb>>>>>>>>>>>>>>>>>>>>>>>>>yyyyyyyyyyyyyyyyyyyyyyyyyyyyyyyyyyyyyyyyyyy",
"bbbbbbbbbbbb>>>>###########>>>>>>>>>>>>>>yyyyyyyyyyyyyyy2222222222++++yyyyyyyyyy",
"bbbbbbbbbbbb>>>>###########>>>>>>>>>>>>>>yyyyyyyyyyyyyyy2222222222++++yyyyyyyyyy",
"bbbbbbbbbbbb,>>>###########>>>>>>>>>>>>>>yyyyyyyyyyyyyyy2222222222++++yyyyyyyyyy",
"bbbbbbbbbbbb,>>>###########>>>>>>>>>>>>>>yyyyyyyyyyyyyyy2222222222++++yyyyyyyyyy",
"bbbbbbbbbbbh,>>>###########>>>>>>>>>>yyyyyyyyyyyyyyyyyyy2222222222++++yyyyy-----",
"bbbbbbbbbbbh,>>>>>>>>>>>>>>>>>>>>>>>>yyyyyyyyyyyyyyyyyyy2222222222++++yyyyy-----",
"bbbbbbbbbbbh,>>>>>>>>>>>>>>>>>>>>>>>>yyyyyyyyyyyyyyyyyyy2222222222++++yyyyy-----",
"bbbbbbbbbbbg,>>>>>>>>>>>>>>>>>>>>>>>>yyyyyyyyyyyyyyyyyyy2222222222++++yyyyy-----",
"bbbbbbbbbbbg,>>>>>>>>>>>>>>>>>>>>>>>>yyyyyyyyyyyyyyyyyyy2222222222++++yyyyy-----"
};
