/* XPM */
static char *Ptower5[] = {
/* columns rows colors chars-per-pixel */
"80 130 57 1 ",
"  c #000000",
". c #020202",
"X c #0A0A0A",
"o c #0B0B0B",
"O c #0C0C0C",
"+ c #101010",
"@ c #151515",
"# c #1A1A1A",
"$ c #1B1B1B",
"% c #1E1E1E",
"& c #232323",
"* c #52312E",
"= c #525245",
"- c #565649",
"; c #57574A",
": c #59594C",
"> c #5A5A4D",
", c #5F5F5F",
"< c #636353",
"1 c #646454",
"2 c #656554",
"3 c #656555",
"4 c #747464",
"5 c #757565",
"6 c #767666",
"7 c #916144",
"8 c #906145",
"9 c #916245",
"0 c #936448",
"q c #96694E",
"w c #C237FC",
"e c #A9A999",
"r c #ABAB9B",
"t c #ACAC9C",
"y c #AEAE9E",
"u c #AFAF9F",
"i c #B0B0A0",
"p c #B1B1A1",
"a c #B1B1A2",
"s c #B2B2A2",
"d c #B3B3A3",
"f c #B6B6A6",
"g c #B7B7A7",
"h c #C7C7B2",
"j c #C8C8B3",
"k c #C8C8B4",
"l c #C9C9B4",
"z c #C9C9B5",
"x c #FFFFFE",
"c c #FFFFFE",
"v c #FFFFFE",
"b c #FFFFFE",
"n c #FFFFFE",
"m c #FFFFFE",
"M c #FFFFFE",
"N c #FFFFFE",
"B c #FFFFFE",
/* pixels */
"BBBBBBBBBBBBBBBBBBBBBBBBBBBBBBBBBBBBBBBBBBBBBBBBBBBBBBBBBBBBBBBBBBBBBBBBBBBBBBBB",
"BBBBBBBBBBBBBBBBBBBBBBBBBBBBBBBBBBBBBBBBBBBBBBBBBBBBBBBBBBBB#$$$$o@$BBBBBBBBBBBB",
"BBBBBBBBBBBBBBBBBBBBBBBBBBBBBBBBBBBBBBBBBBBBBBBBBBBBBBBBBBB$$,>>>1>@$BBBBBBBBBBB",
"BBBBBBBBBBBBBBBBBBBBBBBBBBBBBBBBBBBBBBBBBBBBBBBBBBBBBBBBBB$$>>>#@#>>$$BBBBBBBBBB",
"BBBBBBBBBBBBBBBBBBBBBBBBBBBBBBBBBBBBBBBBBBBBBBBBBBBBBBBBBB$>11#####>>$$BBBBBBBBB",
"BBBBBBBBBBBBBBBBBBBBBBBBBBBBBBBBBBBBBBBBBBBBBBBBBBBBBBBBBBO>>#####@@1>$BBBBBBBBB",
"wwwwwwwwwwwwwwwwwwwwwwwwwwwwwwwwBBBBBBBBBBBBBBBBBBBBBBBBB@O>##@#####1>%BBBBBBBBB",
"wwwwwwwwwwwwwwwwwwwwwwwwwwwwwwwwBBBBBBBBBBBBBBBBBBBBBBBBB$>2########>>%BBBBBBBBB",
"wwwwwwwwwwwwwwwwwwwwwwwwwwwwwwwwBBBBBBBBBBBBBBBBBBBBBBBB$@>>##@#####1>XBBBBBBBBB",
"wwwwwwwwwwwwwwwwwwwwwwwwwwwwwwwwBBBBBBBBBBBBBBBBBBBBBBBB@>>>>####@##11XBBBBBBBBB",
"wwwwwwwwwwwwwwwwwwwwwwwwwwwwwwwwBBBBBBBBBBBBBBBBBBBBBBBB$1>11>####>>>>%BBBBBBBBB",
"wwwwwwwwwwwwwwwwwwwwwwwwwwwwwwwwBBBBBBBBBBBBBBBBBBBBBBB$@>>>11111>>>>>%BBBBBBBBB",
"wwwwwwwwwwwwwwwwwwwwwwwwwwwwwwwwBBBBBBBBBBBBBBBBBBBBBBB$>>>111111111,>%BBBBBBBBB",
"wwwwwwwwwwwwwwwwwwwwwwwwwwwwwwwwBBBBBBBBBBBBBBBBBBBBBBB@>>>1111111>1>+%BBBBBBBBB",
"wwwwwwwwwwwwwwwwwwwwwwwwwwwwwwwwBBBBBBBBBBBBBBBBBBBBBBB$>>>111111222>%BBBBBBBBBB",
"BBBBBBBBBBBBBBBBBBwwwwwwwwwwwwwwBBBBBBBBBBBBBBBBBBBBBB$$>>>111111212@#BBBBBBBBBB",
"BBBBBBBBBBBBBBBBBnwwwwwwwwwwwwwwBBBBBBBBBBBBBBBBBBBBBB$2222222122222$BBBBBBBBBBB",
"BBBBBBBBBBBBBBBBBvwwwwwwwwwwwwwwBBBBBBBBBBBBBBBBBBBBBB@2.......2221>@BBBBBBBBBBB",
"BBBBBBBBBBBBBBBBBcwwwwwwwwwwwwwwBBBBBBBBBBBBBBBBBBBBBB..8888888..22>$BBBBBBBBBBB",
"BBBBBBBBBBBBBBBBBnwwwwwwwwwwwwwwBBBBBBBBBBBBBBBBBBBB..88..888..88..2$$BBBBBBBBBB",
"BBBBBBBBBBBBBBBBBBBBBBBBBBB77777BBBBBBBBBBBBBBBBBBX.88..2.888.2..88.qq$BBBBBBBBB",
"BBBBBBBBBBBBBBBBBBBBBBBBBBM97779BBBBBBBBBBBBBBBBBBX000X22X000X22X000XBq$BBBBBBBB",
"BBBBBBBBBBBBBBBBBBBBBBBBBBM97779BBBBBBBBBBBBBBBBBX0X000XXX000X2X770X0XB0XBBBBBBB",
"BBBBBBBBBBBBBBBBBBBBBBBBBBB97779BBBBBBBBBBBBBBBBX0XBX0000X000XX070X3X0XB0XBBBBBB",
"BBBBBBBBBBBB;----;ddddddddd77777555556sssdBBBB6555555555kkkkl 070X3$X065555kkkkk",
"BBBBBBBBBBBB;----;sssssssss77777444445ssssBBBB5444444444jjjjj000X3&BX054444jjjjj",
"BBBBBBBBBBBB;----;sssssssss77777444445ssssBBBB5444444444jjjjj00XXXXXX054444jjjjj",
"BBBBBBBBBBBB------sssssssss77777444445ssssBBBB5444444444jjjjj00000000054444jjjjj",
"BBBBBBBBBBBB------sssssssss77777444445sssdBBBB5444444444jjjjj00000000054444jjjjj",
"BBBBBBBBBBBB------44444444444444444445ssss55554444444444jjjjl66666666644444hjjjj",
"BBBBBBBBBBBB------44444444444444444445ssss44444444444444yssss44444444444444sssss",
"BBBBBBBBBBBB------44444444444444444445ssss44444444444444issss44444444444444sssss",
"BBBBBBBBBBBB;-----44444444444444444445ssss44444444444444issss44444444444444sssss",
"BBBBBBBBBBBB;-----4444444--------44445555444444444444444issss44444444444444sssss",
"BBBBBBBBBBBB5444444444444--------444444444ssssjjjjjjjjjjdssssrttejjjjjjjjjj44444",
"BBBBBBBBBBBB5444444444444--------444444444ssssjjjjjjjjjjdpssdgffdjjjjjjjjjj44444",
"BBBBBBBBBBBB5444444444444--------444444444ssssjjjjjjjjjjdpssssssujjjjjjjjjj44444",
"BBBBBBBBBBBB5444444444444--------444444444ssssjjjjjjjjjjdpssssssujjjjjjjjjj44444",
"BBBBBBBBBBBB5444444444444-----444444444444ssssjjjjjjjjjjdpssssssujjjjjjjjjj44444",
"BBBBBBBBBBBB5444444444444-----44444445pssdsssssppppppppasssssssssspppppppppdssss",
"BBBBBBBBBBBB5444444444444-----44444445ssssssssssssssssssssssssssssssssssssssssss",
"BBBBBBBBBBBB5444444444444-----44444445ssssssssssssssssssssssssssssssssssssssssss",
"BBBBBBBBBBBB5444444444444-----44444445ssssssssssssssssssssssssssssssssssssssssss",
"BBBBBBBBBBBB5555544444444-----4444444544444444444444444444444444444444444446mmmm",
"BBBBBBBBBBBBmmmmb54444444444444444444444444444444444444444444444444444444446BBBB",
"BBBBBBBBBBBBBBBBB54444444444444444444444444444444444444444444444444444444445BBBB",
"BBBBBBBBBBBBBBBBm54444444444444444444444444444444444444444444444444444444445BBBB",
"BBBBBBBBBBBBBBBBm54444444444444444444444444444444444444444444444444444444445BBBB",
"BBBBBBBBBBBBBBBBm54444444444444444444444444444444444444444444444444444444445BBBB",
"BBBBBBBBBBBBBBBBm5444444444444444444444444pssssssssssssssssssssssssssssssssBBBBB",
"BBBBBBBBBBBBBBBBm5444444444444444444444444sssssssssssssssssssssssssssssssssBBBBB",
"BBBBBBBBBBBBBBBBm5444444444444444444444444sssssssssssssjjjjjjjjjjssssssssssBBBBB",
"BBBBBBBBBBBBBBBBm544-------------444444444sssssssssssssjjjjjjjjjjssssssssssBBBBB",
"BBBBBBBBBBBBBBBBm544-------------44444444444445ssssssssjjjjjjjjjjsssss44444NBBBB",
"BBBBBBBBBBBBBBBBm544-------------44444444444444ssssssssjjjjjjjjjjsssss44444mBBBB",
"BBBBBBBBBBBBBBBBm544-------------44444444444444sssssssssssssssssssssss44444mBBBB",
"BBBBBBBBBBBBBBBBm544-------------44444444444444sssssssssssssssssssssss44444mBBBB",
"BBBBBBBBBBBBBBBBm544444444444444444444444444444sssssssssssssssssssssss44444mBBBB",
"BBBBBBBBBBBBBBBBB544444444444444444444444455555sssssssss----------sssssssssBBBBB",
"BBBBBBBBBBBBBBBBm5444444444444444444444444ssssssssssssss----------sssssssssBBBBB",
"BBBBBBBBBBBBBBBBm5444444444444444444444444ssssssssssssss----------sssssssssBBBBB",
"BBBBBBBBBBBBBBBBm5444444444444444444444444ssssssssssssss:=--------sssssssssBBBBB",
"BBBBBBBBBBBBBBBBm5444444444444444444444444ssssssssssssss:---------sssssssssBBBBB",
"BBBBBBBBBBBBBBBBm544444444444444444444444444444sssssssss----------ssss44444mBBBB",
"BBBBBBBBBBBBBBBBm544444444444444444444444444444sssssssss----------ssss44444BBBBB",
"BBBBBBBBBBBBBBBBm544444444444444444444444444444sssssssss----------ssss44444mBBBB",
"BBBBBBBBBBBBBBBBm544444444444-------44444444444sssssssss----------ssss44444mBBBB",
"BBBBBBBBBBBBBBBBm544444444444-------44444444445sssssssss----------ssss44444NBBBB",
"BBBBBBBBBBBBBBBBm544444444444-------444444sssssssssssssssssssssssssssssssssBBBBB",
"BBBBBBBBBBBBBBBBm544444444444-------444444sssssssssssssssssssssssssssssssssBBBBB",
"BBBBBBBBBBBBBBBBm544444444444-------444444sssssssssssssssssssssssssssssssssBBBBB",
"BBBBBBBBBBBBBBBBB5444444444444444444444444sssssssssssssssssssssssssssssssssBBBBB",
"BBBBBBBBBBBBBBBBm5444444444444444444444444sssssssssssssssssssssssssssssssssBBBBB",
"BBBBBBBBBBBBBBBBm5444444444444444444444444ssjjjjjjjjjjjssssss44444444444444mBBBB",
"BBBBBBBBBBBBBBBBm5444444444444444444444444ssjjjjjjjjjjjssssss44444444444444mBBBB",
"BBBBBBBBBBBBBBBBm4444444444444444444444444ssjjjjjjjjjjjssssss44444444444444mBBBB",
"BBBBBBBBBBBBBBBBm444------------4444444444ssjjjjjjjjjjjssssss44444444444444mBBBB",
"BBBBBBBBBBBBBBBBm444------------4444444444sssssssssssssssssssssssssssssssssBBBBB",
"BBBBBBBBBBBBBBBBm544------------4444444444sssssssssssssssssssssssssssssssssBBBBB",
"BBBBBBBBBBBBBBBBm544------------4444444444sssssssssssssssssssssssssssssssssBBBBB",
"BBBBBBBBBBBBBBBBm544------------4444444444sssssssssssssssssssjjjjjjjjjjssssBBBBB",
"BBBBBBBBBBBBBBBBm5444444444444444444444444sssssssssssssssssssjjjjjjjjjjssssBBBBB",
"BBBBBBBBBBBBBBBBm544444444444444444444444444444444444444sssssjjjjjjjjjjssssBBBBB",
"BBBBBBBBBBBBBBBBm544444444444444444444444444444444444444sssssjjjjjjjjjjssssBBBBB",
"BBBBBBBBBBBBBBBBm544444444444444444444444444444444444444sssssssssssssssssssBBBBB",
"BBBBBBBBBBBBBBBBB544444444444444444444444444444444444444sssssssssssssssssssBBBBB",
"BBBBBBBBBBBBBBBBm544444444444444444444444444444444444444sssssssssssssssssssBBBBB",
"BBBBBBBBBBBBBBBBm54444444444444444444444444444ssssssssss----------ssss<<<<<mBBBB",
"BBBBBBBBBBBBBBBBm54444444444444444444444444444ssssssssss----------ssss<<<<<mBBBB",
"BBBBBBBBBBBBBBBBm54444444444444444444444444444ssssssssss----------ssss<<<<<mBBBB",
"BBBBBBBBBBBBBBBBm54444------------444444444444ssssssssss----------ssss<<<<<mBBBB",
"BBBBBBBBBBBBBBBBm54444------------444444444444ssssssssss----------ssss<<<<<NBBBB",
"BBBBBBBBBBBBBBBBm54444------------44444444ssssssssssssss----------sssssssssBBBBB",
"BBBBBBBBBBBBBBBBm54444------------44444444ssssssssssssss----------sssssssssBBBBB",
"BBBBBBBBBBBBBBBBm54444------------44444444ssssssssssssss----------sssssssssBBBBB",
"BBBBBBBBBBBBBBBBm54444------------44444444ssssssssssssss----------sssssssssBBBBB",
"BBBBBBBBBBBBBBBBm54444------44444444444444ssssssssssssss----------sssssssssBBBBB",
"BBBBBBBBBBBBBBBBm54444------44444444444444sssssssssssssssssssssssssssssssssBBBBB",
"BBBBBBBBBBBBBBBBm54444------44444444444444sssssssssssssssssssssssssssssssssBBBBB",
"BBBBBBBBBBBBBBBBB54444------44444444444444sssssssssssssssssssssssssssssssssBBBBB",
"BBBBBBBBBBBBBBBBm54444------44444444444444sssssssssssssssssssssssssssssssssBBBBB",
"BBBBBBBBBBBBBBBBm54444------444444444444444444jjjjjjjjssssssssssssssss<<<<<NBBBB",
"BBBBBBBBBBBBBBBBm54444------444444444444444444jjjjjjjjssssssssssssssss<<<<<mBBBB",
"BBBBBBBBBBBBBBBBm54444------444444444444444444jjjjjjjjssssssssssssssss<<<<<mBBBB",
"BBBBBBBBBBBBBBBBm54444-----------------4444444jjjjjjjjssssssssssssssss<<<<<mBBBB",
"BBBBBBBBBBBBBBBBm54444-----------------4444444ssssssssssssssssssssssss<<<<<mBBBB",
"BBBBBBBBBBBBBBBBm54444-----------------444sssssssssssssssssssssssssssssssssBBBBB",
"BBBBBBBBBBBBBBBBm54444-----------------444sssssssssssssssssssssssssssssssssBBBBB",
"BBBBBBBBBBBBBBBBm54444-----------------444sssssssssssssssssssssssssssssssssBBBBB",
"BBBBBBBBBBBBBBBBm5444444444444444444444444sssssssssssssssssssssssssssssssssBBBBB",
"BBBBBBBBBBBBBBBBm5444444444444444444444444sssssssssssssssssssssssssssssssssBBBBB",
"BBBBBBBBBBBBBBBBm544444444444444444444444444444444444444ssssssssss<<<<<<<<<mBBBB",
"BBBBBBBBBBBBBBBBm544444444444444444444444444444444444444ssssssssss<<<<<<<<<mBBBB",
"BBBBBBBBBBBBBBBBm544444---------444444444444444444444444ssssssssss<<<<<<<<<mBBBB",
"BBBBBBBBBBBBmmmmm544444---------444444444444444444444444ssssssssss<<<<<<<<<mBBBB",
"BBBBBBBBBBBB65555444444---------444444444444444444444444ssssssssss<<<<<<<<<mBBBB",
"BBBBBBBBBBBB54444444444---------44444sssssssssssssssssssssssssssssssssssssssssss",
"BBBBBBBBBBBB54444444444---------44444sssssssssssssssssssssssssssssssssssssssssss",
"BBBBBBBBBBBB4444444444444444444444444sssssssssssssssssssssssssssssssssssssssssss",
"BBBBBBBBBBBB4444444444444444444444444sssssssssssssssssssssssssssssssssssssssssss",
"BBBBBBBBBBBB4444444444444444444444444sssssssssssssssssssssssssssssssssssssssssss",
"BBBBBBBBBBBB4444-----------44444444444444sssssssssssssss7777777777****ssssssssss",
"BBBBBBBBBBBB4444-----------44444444444444sssssssssssssss7777777777****ssssssssss",
"BBBBBBBBBBBB5444-----------44444444444444sssssssssssssss7777777777****ssssssssss",
"BBBBBBBBBBBB5444-----------44444444444444sssssssssssssss7777777777****ssssssssss",
"BBBBBBBBBBBx5444-----------4444444444sssssssssssssssssss7777777777****sssss<<<<<",
"BBBBBBBBBBBx5444444444444444444444444sssssssssssssssssss7777777777****sssss<<<<<",
"BBBBBBBBBBBx5444444444444444444444444sssssssssssssssssss7777777777****sssss<<<<<",
"BBBBBBBBBBBz5444444444444444444444444sssssssssssssssssss7777777777****sssss<<<<<",
"BBBBBBBBBBBz5444444444444444444444444sssssssssssssssssss7777777777****sssss<<<<<"
};
