/* XPM */
static char *Ptower6[] = {
/* columns rows colors chars-per-pixel */
"80 130 47 1 ",
"  c #000000",
". c #030201",
"X c #020202",
"o c #040404",
"O c #52312E",
"+ c #525245",
"@ c #565649",
"# c #57574A",
"$ c #59594C",
"% c #5A5A4D",
"& c #5F5F5F",
"* c #636353",
"= c #646454",
"- c #747464",
"; c #757565",
": c #767666",
"> c #916144",
", c #906145",
"< c #916245",
"1 c #936448",
"2 c #C237FC",
"3 c #A9A999",
"4 c #ABAB9B",
"5 c #ACAC9C",
"6 c #AEAE9E",
"7 c #AFAF9F",
"8 c #B0B0A0",
"9 c #B1B1A1",
"0 c #B1B1A2",
"q c #B2B2A2",
"w c #B3B3A3",
"e c #B6B6A6",
"r c #B7B7A7",
"t c #C7C7B2",
"y c #C8C8B3",
"u c #C8C8B4",
"i c #C9C9B4",
"p c #C9C9B5",
"a c #FFFFFE",
"s c #FFFFFE",
"d c #FFFFFE",
"f c #FFFFFE",
"g c #FFFFFE",
"h c #FFFFFE",
"j c #FFFFFE",
"k c #FFFFFE",
"l c #FFFFFE",
/* pixels */
"llllllllllllllllllllllllllllllllllllllllllllllllllllllllloooooolllllllllllllllll",
"llllllllllllllllllllllllllllllllllllllllllllllllllllllllo======ollllllllllllllll",
"lllllllllllllllllllllllllllllllllllllllllllllllllllllllo==XXXX==olllllllllllllll",
"lllllllllllllllllllllllllllllllllllllllllllllllllllllllo%XXXXXX=olllllllllllllll",
"lllllllllllllllllllllllllllllllllllllllllllllllllllllllo=XXXXXX=olllllllllllllll",
"lllllllllllllllllllllllllllllllllllllllllllllllllllllllo=XXXXXX=olllllllllllllll",
"22222222222222222222222222222222lllllllllllllllllllllllo=&XXXX&=olllllllllllllll",
"22222222222222222222222222222222lllllllllllllllllllllllo==&&&&%=.lllllllllllllll",
"22222222222222222222222222222222lllllllllllllllllllllllo======%=olllllllllllllll",
"22222222222222222222222222222222lllllllllllllllllllllllo======%=olllllllllllllll",
"22222222222222222222222222222222lllllllllllllllllllllllo======%=olllllllllllllll",
"22222222222222222222222222222222lllllllllllllllllllllllo========olllllllllllllll",
"22222222222222222222222222222222lllllllllllllllllllllllo========olllllllllllllll",
"22222222222222222222222222222222lllllllllllllllllllllllo========olllllllllllllll",
"22222222222222222222222222222222lllllllllllllllllllllllo========olllllllllllllll",
"llllllllllllllllll22222222222222lllllllllllllllllllllllo========olllllllllllllll",
"lllllllllllllllllg22222222222222lllllllllllllllllllllllo========olllllllllllllll",
"llllllllllllllllld22222222222222llllllllllllllllllllllloXXXXXXX=olllllllllllllll",
"llllllllllllllllls22222222222222llllllllllllllllllllllXo,,,,,,,XXollllllllllllll",
"lllllllllllllllllg22222222222222llllllllllllllllllllXX,,XX,,,XX,,1oollllllllllll",
"lllllllllllllllllllllllllll>>>>>lllllllllllllllllloX,,XXlX,,,XlXX,,1oollllllllll",
"llllllllllllllllllllllllllj<>>><llllllllllllllllllo111ollo111ollo11111olllllllll",
"llllllllllllllllllllllllllj<>>><lllllllllllllllllo1o111ooo111olo>>1o1o1oolllllll",
"lllllllllllllllllllllllllll<>>><llllllllllllllllo1olo1111o111oo1>1olo1ol1ollllll",
"llllllllllll#@@@@#wwwwwwwww>>>>>;;;;;:qqqwllll:;;;;;;;;;uuuui 1>1ollo1:;;;;uuuuu",
"llllllllllll#@@@@#qqqqqqqqq>>>>>-----;qqqqllll;---------yyyyy111olllo1;----yyyyy",
"llllllllllll#@@@@#qqqqqqqqq>>>>>-----;qqqqllll;---------yyyyy11oooooo1;----yyyyy",
"llllllllllll@@@@@@qqqqqqqqq>>>>>-----;qqqqllll;---------yyyyy111111111;----yyyyy",
"llllllllllll@@@@@@qqqqqqqqq>>>>>-----;qqqwllll;---------yyyyy111111111;----yyyyy",
"llllllllllll@@@@@@-------------------;qqqq;;;;----------yyyyi:::::::::-----tyyyy",
"llllllllllll@@@@@@-------------------;qqqq--------------6qqqq--------------qqqqq",
"llllllllllll@@@@@@-------------------;qqqq--------------8qqqq--------------qqqqq",
"llllllllllll#@@@@@-------------------;qqqq--------------8qqqq--------------qqqqq",
"llllllllllll#@@@@@-------@@@@@@@@----;;;;---------------8qqqq--------------qqqqq",
"llllllllllll;------------@@@@@@@@---------qqqqyyyyyyyyyywqqqq4553yyyyyyyyyy-----",
"llllllllllll;------------@@@@@@@@---------qqqqyyyyyyyyyyw9qqwreewyyyyyyyyyy-----",
"llllllllllll;------------@@@@@@@@---------qqqqyyyyyyyyyyw9qqqqqq7yyyyyyyyyy-----",
"llllllllllll;------------@@@@@@@@---------qqqqyyyyyyyyyyw9qqqqqq7yyyyyyyyyy-----",
"llllllllllll;------------@@@@@------------qqqqyyyyyyyyyyw9qqqqqq7yyyyyyyyyy-----",
"llllllllllll;------------@@@@@-------;9qqwqqqqq999999990qqqqqqqqqq999999999wqqqq",
"llllllllllll;------------@@@@@-------;qqqqqqqqqqqqqqqqqqqqqqqqqqqqqqqqqqqqqqqqqq",
"llllllllllll;------------@@@@@-------;qqqqqqqqqqqqqqqqqqqqqqqqqqqqqqqqqqqqqqqqqq",
"llllllllllll;------------@@@@@-------;qqqqqqqqqqqqqqqqqqqqqqqqqqqqqqqqqqqqqqqqqq",
"llllllllllll;;;;;--------@@@@@-------;-------------------------------------:hhhh",
"llllllllllllhhhhf;---------------------------------------------------------:llll",
"lllllllllllllllll;---------------------------------------------------------;llll",
"llllllllllllllllh;---------------------------------------------------------;llll",
"llllllllllllllllh;---------------------------------------------------------;llll",
"llllllllllllllllh;---------------------------------------------------------;llll",
"llllllllllllllllh;------------------------9qqqqqqqqqqqqqqqqqqqqqqqqqqqqqqqqlllll",
"llllllllllllllllh;------------------------qqqqqqqqqqqqqqqqqqqqqqqqqqqqqqqqqlllll",
"llllllllllllllllh;------------------------qqqqqqqqqqqqqyyyyyyyyyyqqqqqqqqqqlllll",
"llllllllllllllllh;--@@@@@@@@@@@@@---------qqqqqqqqqqqqqyyyyyyyyyyqqqqqqqqqqlllll",
"llllllllllllllllh;--@@@@@@@@@@@@@-------------;qqqqqqqqyyyyyyyyyyqqqqq-----kllll",
"llllllllllllllllh;--@@@@@@@@@@@@@--------------qqqqqqqqyyyyyyyyyyqqqqq-----hllll",
"llllllllllllllllh;--@@@@@@@@@@@@@--------------qqqqqqqqqqqqqqqqqqqqqqq-----hllll",
"llllllllllllllllh;--@@@@@@@@@@@@@--------------qqqqqqqqqqqqqqqqqqqqqqq-----hllll",
"llllllllllllllllh;-----------------------------qqqqqqqqqqqqqqqqqqqqqqq-----hllll",
"lllllllllllllllll;------------------------;;;;;qqqqqqqqq@@@@@@@@@@qqqqqqqqqlllll",
"llllllllllllllllh;------------------------qqqqqqqqqqqqqq@@@@@@@@@@qqqqqqqqqlllll",
"llllllllllllllllh;------------------------qqqqqqqqqqqqqq@@@@@@@@@@qqqqqqqqqlllll",
"llllllllllllllllh;------------------------qqqqqqqqqqqqqq$+@@@@@@@@qqqqqqqqqlllll",
"llllllllllllllllh;------------------------qqqqqqqqqqqqqq$@@@@@@@@@qqqqqqqqqlllll",
"llllllllllllllllh;-----------------------------qqqqqqqqq@@@@@@@@@@qqqq-----hllll",
"llllllllllllllllh;-----------------------------qqqqqqqqq@@@@@@@@@@qqqq-----lllll",
"llllllllllllllllh;-----------------------------qqqqqqqqq@@@@@@@@@@qqqq-----hllll",
"llllllllllllllllh;-----------@@@@@@@-----------qqqqqqqqq@@@@@@@@@@qqqq-----hllll",
"llllllllllllllllh;-----------@@@@@@@----------;qqqqqqqqq@@@@@@@@@@qqqq-----kllll",
"llllllllllllllllh;-----------@@@@@@@------qqqqqqqqqqqqqqqqqqqqqqqqqqqqqqqqqlllll",
"llllllllllllllllh;-----------@@@@@@@------qqqqqqqqqqqqqqqqqqqqqqqqqqqqqqqqqlllll",
"llllllllllllllllh;-----------@@@@@@@------qqqqqqqqqqqqqqqqqqqqqqqqqqqqqqqqqlllll",
"lllllllllllllllll;------------------------qqqqqqqqqqqqqqqqqqqqqqqqqqqqqqqqqlllll",
"llllllllllllllllh;------------------------qqqqqqqqqqqqqqqqqqqqqqqqqqqqqqqqqlllll",
"llllllllllllllllh;------------------------qqyyyyyyyyyyyqqqqqq--------------hllll",
"llllllllllllllllh;------------------------qqyyyyyyyyyyyqqqqqq--------------hllll",
"llllllllllllllllh-------------------------qqyyyyyyyyyyyqqqqqq--------------hllll",
"llllllllllllllllh---@@@@@@@@@@@@----------qqyyyyyyyyyyyqqqqqq--------------hllll",
"llllllllllllllllh---@@@@@@@@@@@@----------qqqqqqqqqqqqqqqqqqqqqqqqqqqqqqqqqlllll",
"llllllllllllllllh;--@@@@@@@@@@@@----------qqqqqqqqqqqqqqqqqqqqqqqqqqqqqqqqqlllll",
"llllllllllllllllh;--@@@@@@@@@@@@----------qqqqqqqqqqqqqqqqqqqqqqqqqqqqqqqqqlllll",
"llllllllllllllllh;--@@@@@@@@@@@@----------qqqqqqqqqqqqqqqqqqqyyyyyyyyyyqqqqlllll",
"llllllllllllllllh;------------------------qqqqqqqqqqqqqqqqqqqyyyyyyyyyyqqqqlllll",
"llllllllllllllllh;--------------------------------------qqqqqyyyyyyyyyyqqqqlllll",
"llllllllllllllllh;--------------------------------------qqqqqyyyyyyyyyyqqqqlllll",
"llllllllllllllllh;--------------------------------------qqqqqqqqqqqqqqqqqqqlllll",
"lllllllllllllllll;--------------------------------------qqqqqqqqqqqqqqqqqqqlllll",
"llllllllllllllllh;--------------------------------------qqqqqqqqqqqqqqqqqqqlllll",
"llllllllllllllllh;----------------------------qqqqqqqqqq@@@@@@@@@@qqqq*****hllll",
"llllllllllllllllh;----------------------------qqqqqqqqqq@@@@@@@@@@qqqq*****hllll",
"llllllllllllllllh;----------------------------qqqqqqqqqq@@@@@@@@@@qqqq*****hllll",
"llllllllllllllllh;----@@@@@@@@@@@@------------qqqqqqqqqq@@@@@@@@@@qqqq*****hllll",
"llllllllllllllllh;----@@@@@@@@@@@@------------qqqqqqqqqq@@@@@@@@@@qqqq*****kllll",
"llllllllllllllllh;----@@@@@@@@@@@@--------qqqqqqqqqqqqqq@@@@@@@@@@qqqqqqqqqlllll",
"llllllllllllllllh;----@@@@@@@@@@@@--------qqqqqqqqqqqqqq@@@@@@@@@@qqqqqqqqqlllll",
"llllllllllllllllh;----@@@@@@@@@@@@--------qqqqqqqqqqqqqq@@@@@@@@@@qqqqqqqqqlllll",
"llllllllllllllllh;----@@@@@@@@@@@@--------qqqqqqqqqqqqqq@@@@@@@@@@qqqqqqqqqlllll",
"llllllllllllllllh;----@@@@@@--------------qqqqqqqqqqqqqq@@@@@@@@@@qqqqqqqqqlllll",
"llllllllllllllllh;----@@@@@@--------------qqqqqqqqqqqqqqqqqqqqqqqqqqqqqqqqqlllll",
"llllllllllllllllh;----@@@@@@--------------qqqqqqqqqqqqqqqqqqqqqqqqqqqqqqqqqlllll",
"lllllllllllllllll;----@@@@@@--------------qqqqqqqqqqqqqqqqqqqqqqqqqqqqqqqqqlllll",
"llllllllllllllllh;----@@@@@@--------------qqqqqqqqqqqqqqqqqqqqqqqqqqqqqqqqqlllll",
"llllllllllllllllh;----@@@@@@------------------yyyyyyyyqqqqqqqqqqqqqqqq*****kllll",
"llllllllllllllllh;----@@@@@@------------------yyyyyyyyqqqqqqqqqqqqqqqq*****hllll",
"llllllllllllllllh;----@@@@@@------------------yyyyyyyyqqqqqqqqqqqqqqqq*****hllll",
"llllllllllllllllh;----@@@@@@@@@@@@@@@@@-------yyyyyyyyqqqqqqqqqqqqqqqq*****hllll",
"llllllllllllllllh;----@@@@@@@@@@@@@@@@@-------qqqqqqqqqqqqqqqqqqqqqqqq*****hllll",
"llllllllllllllllh;----@@@@@@@@@@@@@@@@@---qqqqqqqqqqqqqqqqqqqqqqqqqqqqqqqqqlllll",
"llllllllllllllllh;----@@@@@@@@@@@@@@@@@---qqqqqqqqqqqqqqqqqqqqqqqqqqqqqqqqqlllll",
"llllllllllllllllh;----@@@@@@@@@@@@@@@@@---qqqqqqqqqqqqqqqqqqqqqqqqqqqqqqqqqlllll",
"llllllllllllllllh;------------------------qqqqqqqqqqqqqqqqqqqqqqqqqqqqqqqqqlllll",
"llllllllllllllllh;------------------------qqqqqqqqqqqqqqqqqqqqqqqqqqqqqqqqqlllll",
"llllllllllllllllh;--------------------------------------qqqqqqqqqq*********hllll",
"llllllllllllllllh;--------------------------------------qqqqqqqqqq*********hllll",
"llllllllllllllllh;-----@@@@@@@@@------------------------qqqqqqqqqq*********hllll",
"llllllllllllhhhhh;-----@@@@@@@@@------------------------qqqqqqqqqq*********hllll",
"llllllllllll:;;;;------@@@@@@@@@------------------------qqqqqqqqqq*********hllll",
"llllllllllll;----------@@@@@@@@@-----qqqqqqqqqqqqqqqqqqqqqqqqqqqqqqqqqqqqqqqqqqq",
"llllllllllll;----------@@@@@@@@@-----qqqqqqqqqqqqqqqqqqqqqqqqqqqqqqqqqqqqqqqqqqq",
"llllllllllll-------------------------qqqqqqqqqqqqqqqqqqqqqqqqqqqqqqqqqqqqqqqqqqq",
"llllllllllll-------------------------qqqqqqqqqqqqqqqqqqqqqqqqqqqqqqqqqqqqqqqqqqq",
"llllllllllll-------------------------qqqqqqqqqqqqqqqqqqqqqqqqqqqqqqqqqqqqqqqqqqq",
"llllllllllll----@@@@@@@@@@@--------------qqqqqqqqqqqqqqq>>>>>>>>>>OOOOqqqqqqqqqq",
"llllllllllll----@@@@@@@@@@@--------------qqqqqqqqqqqqqqq>>>>>>>>>>OOOOqqqqqqqqqq",
"llllllllllll;---@@@@@@@@@@@--------------qqqqqqqqqqqqqqq>>>>>>>>>>OOOOqqqqqqqqqq",
"llllllllllll;---@@@@@@@@@@@--------------qqqqqqqqqqqqqqq>>>>>>>>>>OOOOqqqqqqqqqq",
"llllllllllla;---@@@@@@@@@@@----------qqqqqqqqqqqqqqqqqqq>>>>>>>>>>OOOOqqqqq*****",
"llllllllllla;------------------------qqqqqqqqqqqqqqqqqqq>>>>>>>>>>OOOOqqqqq*****",
"llllllllllla;------------------------qqqqqqqqqqqqqqqqqqq>>>>>>>>>>OOOOqqqqq*****",
"lllllllllllp;------------------------qqqqqqqqqqqqqqqqqqq>>>>>>>>>>OOOOqqqqq*****",
"lllllllllllp;------------------------qqqqqqqqqqqqqqqqqqq>>>>>>>>>>OOOOqqqqq*****"
};
