/* XPM */
static char *Ptower4[] = {
/* columns rows colors chars-per-pixel */
"80 130 55 1 ",
"  c #000000",
". c #020202",
"X c #0A0A0A",
"o c #0B0B0B",
"O c #0C0C0C",
"+ c #101010",
"@ c #151515",
"# c #1A1A1A",
"$ c #1B1B1B",
"% c #1E1E1E",
"& c #52312E",
"* c #525245",
"= c #565649",
"- c #57574A",
"; c #59594C",
": c #5A5A4D",
"> c #5F5F5F",
", c #636353",
"< c #646453",
"1 c #646454",
"2 c #747464",
"3 c #757565",
"4 c #767666",
"5 c #916144",
"6 c #906145",
"7 c #916245",
"8 c #936448",
"9 c #96694E",
"0 c #C237FC",
"q c #A9A999",
"w c #ABAB9B",
"e c #ACAC9C",
"r c #AEAE9E",
"t c #AFAF9F",
"y c #B0B0A0",
"u c #B1B1A1",
"i c #B1B1A2",
"p c #B2B2A2",
"a c #B3B3A3",
"s c #B6B6A6",
"d c #B7B7A7",
"f c #C7C7B2",
"g c #C8C8B3",
"h c #C8C8B4",
"j c #C9C9B4",
"k c #C9C9B5",
"l c #FFFFFE",
"z c #FFFFFE",
"x c #FFFFFE",
"c c #FFFFFE",
"v c #FFFFFE",
"b c #FFFFFE",
"n c #FFFFFE",
"m c #FFFFFE",
"M c #FFFFFE",
/* pixels */
"MMMMMMMMMMMMMMMMMMMMMMMMMMMMMMMMMMMMMMMMMMMMMMMMMMMMMMMMMMMMMMMMMMMMMMMMMMMMMMMM",
"MMMMMMMMMMMMMMMMMMMMMMMMMMMMMMMMMMMMMMMMMMMMMMMMMMMMMMMMMMMMMMMMMMMMMMMMMMMMMMMM",
"MMMMMMMMMMMMMMMMMMMMMMMMMMMMMMMMMMMMMMMMMMMMMMMMMMMMMMMMMMMMMMMMMMMMMMMMMMMMMMMM",
"MMMMMMMMMMMMMMMMMMMMMMMMMMMMMMMMMMMMMMMMMMMMMMMMMMMMMMMMMMMMMMMMMMMMMMMMMMMMMMMM",
"MMMMMMMMMMMMMMMMMMMMMMMMMMMMMMMMMMMMMMMMMMMMMMMMMMMMMMMMMMMMMMMMM@XXoOo@MMMMMMMM",
"MMMMMMMMMMMMMMMMMMMMMMMMMMMMMMMMMMMMMMMMMMMMMMMMMMMMMMMMMMMMMMMM@X<:1:<O@MMMMMMM",
"00000000000000000000000000000000MMMMMMMMMMMMMMMMMMMMMMMMMMMMMM@Oo::####:@$MMMMMM",
"00000000000000000000000000000000MMMMMMMMMMMMMMMMMMMMMMMMMMMMMMO:::######:X$MMMMM",
"00000000000000000000000000000000MMMMMMMMMMMMMMMMMMMMMMMMMMMMM@O1:#@###@@<:$MMMMM",
"00000000000000000000000000000000MMMMMMMMMMMMMMMMMMMMMMMMMMMM@@::<#######<:$MMMMM",
"00000000000000000000000000000000MMMMMMMMMMMMMMMMMMMMMMMMMMMM@::::#@#####::%MMMMM",
"00000000000000000000000000000000MMMMMMMMMMMMMMMMMMMMMMMMMMM@o:<<::###@##<:%MMMMM",
"00000000000000000000000000000000MMMMMMMMMMMMMMMMMMMMMMMMMMM@:::<<<#####<<X$MMMMM",
"00000000000000000000000000000000MMMMMMMMMMMMMMMMMMMMMMMMMM@o::<<<<<<:::::XMMMMMM",
"00000000000000000000000000000000MMMMMMMMMMMMMMMMMMMMMMMMMMo:::<<<<<<<<::o%MMMMMM",
"MMMMMMMMMMMMMMMMMM00000000000000MMMMMMMMMMMMMMMMMMMMMMMMM@o::<<<<<<<<:<>O%MMMMMM",
"MMMMMMMMMMMMMMMMMv00000000000000MMMMMMMMMMMMMMMMMMMMMMMMM@::<<<<<<<11<:+%MMMMMMM",
"MMMMMMMMMMMMMMMMMx00000000000000MMMMMMMMMMMMMMMMMMMMMMMM.......1<<<1<1:%MMMMMMMM",
"MMMMMMMMMMMMMMMMMz00000000000000MMMMMMMMMMMMMMMMMMMMMM..6666666..11111@#MMMMMMMM",
"MMMMMMMMMMMMMMMMMv00000000000000MMMMMMMMMMMMMMMMMMMM..66..666..66..11:$MMMMMMMMM",
"MMMMMMMMMMMMMMMMMMMMMMMMMMM55555MMMMMMMMMMMMMMMMMMX.66..1.666.1..66.:@$MMMMMMMMM",
"MMMMMMMMMMMMMMMMMMMMMMMMMMn75557MMMMMMMMMMMMMMMMMMX888X11X888X11X888X$9$MMMMMMMM",
"MMMMMMMMMMMMMMMMMMMMMMMMMMn75557MMMMMMMMMMMMMMMMMX8X888XXX888X1X558X8XM8XMMMMMMM",
"MMMMMMMMMMMMMMMMMMMMMMMMMMM75557MMMMMMMMMMMMMMMMX8XMX8888X888XX858X1X8XM8XMMMMMM",
"MMMMMMMMMMMM-====-aaaaaaaaa55555333334pppaMMMM4333333333hhhhj 858X1@X843333hhhhh",
"MMMMMMMMMMMM-====-ppppppppp55555222223ppppMMMM3222222222ggggg888X1@MX832222ggggg",
"MMMMMMMMMMMM-====-ppppppppp55555222223ppppMMMM3222222222ggggg88XXXXXX832222ggggg",
"MMMMMMMMMMMM======ppppppppp55555222223ppppMMMM3222222222ggggg88888888832222ggggg",
"MMMMMMMMMMMM======ppppppppp55555222223pppaMMMM3222222222ggggg88888888832222ggggg",
"MMMMMMMMMMMM======22222222222222222223pppp33332222222222ggggj44444444422222fgggg",
"MMMMMMMMMMMM======22222222222222222223pppp22222222222222rpppp22222222222222ppppp",
"MMMMMMMMMMMM======22222222222222222223pppp22222222222222ypppp22222222222222ppppp",
"MMMMMMMMMMMM-=====22222222222222222223pppp22222222222222ypppp22222222222222ppppp",
"MMMMMMMMMMMM-=====2222222========22223333222222222222222ypppp22222222222222ppppp",
"MMMMMMMMMMMM3222222222222========222222222ppppggggggggggappppweeqgggggggggg22222",
"MMMMMMMMMMMM3222222222222========222222222ppppggggggggggauppadssagggggggggg22222",
"MMMMMMMMMMMM3222222222222========222222222ppppggggggggggaupppppptgggggggggg22222",
"MMMMMMMMMMMM3222222222222========222222222ppppggggggggggaupppppptgggggggggg22222",
"MMMMMMMMMMMM3222222222222=====222222222222ppppggggggggggaupppppptgggggggggg22222",
"MMMMMMMMMMMM3222222222222=====22222223uppapppppuuuuuuuuippppppppppuuuuuuuuuapppp",
"MMMMMMMMMMMM3222222222222=====22222223pppppppppppppppppppppppppppppppppppppppppp",
"MMMMMMMMMMMM3222222222222=====22222223pppppppppppppppppppppppppppppppppppppppppp",
"MMMMMMMMMMMM3222222222222=====22222223pppppppppppppppppppppppppppppppppppppppppp",
"MMMMMMMMMMMM3333322222222=====2222222322222222222222222222222222222222222224bbbb",
"MMMMMMMMMMMMbbbbc32222222222222222222222222222222222222222222222222222222224MMMM",
"MMMMMMMMMMMMMMMMM32222222222222222222222222222222222222222222222222222222223MMMM",
"MMMMMMMMMMMMMMMMb32222222222222222222222222222222222222222222222222222222223MMMM",
"MMMMMMMMMMMMMMMMb32222222222222222222222222222222222222222222222222222222223MMMM",
"MMMMMMMMMMMMMMMMb32222222222222222222222222222222222222222222222222222222223MMMM",
"MMMMMMMMMMMMMMMMb3222222222222222222222222uppppppppppppppppppppppppppppppppMMMMM",
"MMMMMMMMMMMMMMMMb3222222222222222222222222pppppppppppppppppppppppppppppppppMMMMM",
"MMMMMMMMMMMMMMMMb3222222222222222222222222pppppppppppppggggggggggppppppppppMMMMM",
"MMMMMMMMMMMMMMMMb322=============222222222pppppppppppppggggggggggppppppppppMMMMM",
"MMMMMMMMMMMMMMMMb322=============22222222222223ppppppppggggggggggppppp22222mMMMM",
"MMMMMMMMMMMMMMMMb322=============22222222222222ppppppppggggggggggppppp22222bMMMM",
"MMMMMMMMMMMMMMMMb322=============22222222222222ppppppppppppppppppppppp22222bMMMM",
"MMMMMMMMMMMMMMMMb322=============22222222222222ppppppppppppppppppppppp22222bMMMM",
"MMMMMMMMMMMMMMMMb322222222222222222222222222222ppppppppppppppppppppppp22222bMMMM",
"MMMMMMMMMMMMMMMMM322222222222222222222222233333ppppppppp==========pppppppppMMMMM",
"MMMMMMMMMMMMMMMMb3222222222222222222222222pppppppppppppp==========pppppppppMMMMM",
"MMMMMMMMMMMMMMMMb3222222222222222222222222pppppppppppppp==========pppppppppMMMMM",
"MMMMMMMMMMMMMMMMb3222222222222222222222222pppppppppppppp;*========pppppppppMMMMM",
"MMMMMMMMMMMMMMMMb3222222222222222222222222pppppppppppppp;=========pppppppppMMMMM",
"MMMMMMMMMMMMMMMMb322222222222222222222222222222ppppppppp==========pppp22222bMMMM",
"MMMMMMMMMMMMMMMMb322222222222222222222222222222ppppppppp==========pppp22222MMMMM",
"MMMMMMMMMMMMMMMMb322222222222222222222222222222ppppppppp==========pppp22222bMMMM",
"MMMMMMMMMMMMMMMMb322222222222=======22222222222ppppppppp==========pppp22222bMMMM",
"MMMMMMMMMMMMMMMMb322222222222=======22222222223ppppppppp==========pppp22222mMMMM",
"MMMMMMMMMMMMMMMMb322222222222=======222222pppppppppppppppppppppppppppppppppMMMMM",
"MMMMMMMMMMMMMMMMb322222222222=======222222pppppppppppppppppppppppppppppppppMMMMM",
"MMMMMMMMMMMMMMMMb322222222222=======222222pppppppppppppppppppppppppppppppppMMMMM",
"MMMMMMMMMMMMMMMMM3222222222222222222222222pppppppppppppppppppppppppppppppppMMMMM",
"MMMMMMMMMMMMMMMMb3222222222222222222222222pppppppppppppppppppppppppppppppppMMMMM",
"MMMMMMMMMMMMMMMMb3222222222222222222222222ppgggggggggggpppppp22222222222222bMMMM",
"MMMMMMMMMMMMMMMMb3222222222222222222222222ppgggggggggggpppppp22222222222222bMMMM",
"MMMMMMMMMMMMMMMMb2222222222222222222222222ppgggggggggggpppppp22222222222222bMMMM",
"MMMMMMMMMMMMMMMMb222============2222222222ppgggggggggggpppppp22222222222222bMMMM",
"MMMMMMMMMMMMMMMMb222============2222222222pppppppppppppppppppppppppppppppppMMMMM",
"MMMMMMMMMMMMMMMMb322============2222222222pppppppppppppppppppppppppppppppppMMMMM",
"MMMMMMMMMMMMMMMMb322============2222222222pppppppppppppppppppppppppppppppppMMMMM",
"MMMMMMMMMMMMMMMMb322============2222222222pppppppppppppppppppggggggggggppppMMMMM",
"MMMMMMMMMMMMMMMMb3222222222222222222222222pppppppppppppppppppggggggggggppppMMMMM",
"MMMMMMMMMMMMMMMMb322222222222222222222222222222222222222pppppggggggggggppppMMMMM",
"MMMMMMMMMMMMMMMMb322222222222222222222222222222222222222pppppggggggggggppppMMMMM",
"MMMMMMMMMMMMMMMMb322222222222222222222222222222222222222pppppppppppppppppppMMMMM",
"MMMMMMMMMMMMMMMMM322222222222222222222222222222222222222pppppppppppppppppppMMMMM",
"MMMMMMMMMMMMMMMMb322222222222222222222222222222222222222pppppppppppppppppppMMMMM",
"MMMMMMMMMMMMMMMMb32222222222222222222222222222pppppppppp==========pppp,,,,,bMMMM",
"MMMMMMMMMMMMMMMMb32222222222222222222222222222pppppppppp==========pppp,,,,,bMMMM",
"MMMMMMMMMMMMMMMMb32222222222222222222222222222pppppppppp==========pppp,,,,,bMMMM",
"MMMMMMMMMMMMMMMMb32222============222222222222pppppppppp==========pppp,,,,,bMMMM",
"MMMMMMMMMMMMMMMMb32222============222222222222pppppppppp==========pppp,,,,,mMMMM",
"MMMMMMMMMMMMMMMMb32222============22222222pppppppppppppp==========pppppppppMMMMM",
"MMMMMMMMMMMMMMMMb32222============22222222pppppppppppppp==========pppppppppMMMMM",
"MMMMMMMMMMMMMMMMb32222============22222222pppppppppppppp==========pppppppppMMMMM",
"MMMMMMMMMMMMMMMMb32222============22222222pppppppppppppp==========pppppppppMMMMM",
"MMMMMMMMMMMMMMMMb32222======22222222222222pppppppppppppp==========pppppppppMMMMM",
"MMMMMMMMMMMMMMMMb32222======22222222222222pppppppppppppppppppppppppppppppppMMMMM",
"MMMMMMMMMMMMMMMMb32222======22222222222222pppppppppppppppppppppppppppppppppMMMMM",
"MMMMMMMMMMMMMMMMM32222======22222222222222pppppppppppppppppppppppppppppppppMMMMM",
"MMMMMMMMMMMMMMMMb32222======22222222222222pppppppppppppppppppppppppppppppppMMMMM",
"MMMMMMMMMMMMMMMMb32222======222222222222222222ggggggggpppppppppppppppp,,,,,mMMMM",
"MMMMMMMMMMMMMMMMb32222======222222222222222222ggggggggpppppppppppppppp,,,,,bMMMM",
"MMMMMMMMMMMMMMMMb32222======222222222222222222ggggggggpppppppppppppppp,,,,,bMMMM",
"MMMMMMMMMMMMMMMMb32222=================2222222ggggggggpppppppppppppppp,,,,,bMMMM",
"MMMMMMMMMMMMMMMMb32222=================2222222pppppppppppppppppppppppp,,,,,bMMMM",
"MMMMMMMMMMMMMMMMb32222=================222pppppppppppppppppppppppppppppppppMMMMM",
"MMMMMMMMMMMMMMMMb32222=================222pppppppppppppppppppppppppppppppppMMMMM",
"MMMMMMMMMMMMMMMMb32222=================222pppppppppppppppppppppppppppppppppMMMMM",
"MMMMMMMMMMMMMMMMb3222222222222222222222222pppppppppppppppppppppppppppppppppMMMMM",
"MMMMMMMMMMMMMMMMb3222222222222222222222222pppppppppppppppppppppppppppppppppMMMMM",
"MMMMMMMMMMMMMMMMb322222222222222222222222222222222222222pppppppppp,,,,,,,,,bMMMM",
"MMMMMMMMMMMMMMMMb322222222222222222222222222222222222222pppppppppp,,,,,,,,,bMMMM",
"MMMMMMMMMMMMMMMMb322222=========222222222222222222222222pppppppppp,,,,,,,,,bMMMM",
"MMMMMMMMMMMMbbbbb322222=========222222222222222222222222pppppppppp,,,,,,,,,bMMMM",
"MMMMMMMMMMMM43333222222=========222222222222222222222222pppppppppp,,,,,,,,,bMMMM",
"MMMMMMMMMMMM32222222222=========22222ppppppppppppppppppppppppppppppppppppppppppp",
"MMMMMMMMMMMM32222222222=========22222ppppppppppppppppppppppppppppppppppppppppppp",
"MMMMMMMMMMMM2222222222222222222222222ppppppppppppppppppppppppppppppppppppppppppp",
"MMMMMMMMMMMM2222222222222222222222222ppppppppppppppppppppppppppppppppppppppppppp",
"MMMMMMMMMMMM2222222222222222222222222ppppppppppppppppppppppppppppppppppppppppppp",
"MMMMMMMMMMMM2222===========22222222222222ppppppppppppppp5555555555&&&&pppppppppp",
"MMMMMMMMMMMM2222===========22222222222222ppppppppppppppp5555555555&&&&pppppppppp",
"MMMMMMMMMMMM3222===========22222222222222ppppppppppppppp5555555555&&&&pppppppppp",
"MMMMMMMMMMMM3222===========22222222222222ppppppppppppppp5555555555&&&&pppppppppp",
"MMMMMMMMMMMl3222===========2222222222ppppppppppppppppppp5555555555&&&&ppppp,,,,,",
"MMMMMMMMMMMl3222222222222222222222222ppppppppppppppppppp5555555555&&&&ppppp,,,,,",
"MMMMMMMMMMMl3222222222222222222222222ppppppppppppppppppp5555555555&&&&ppppp,,,,,",
"MMMMMMMMMMMk3222222222222222222222222ppppppppppppppppppp5555555555&&&&ppppp,,,,,",
"MMMMMMMMMMMk3222222222222222222222222ppppppppppppppppppp5555555555&&&&ppppp,,,,,"
};
