/* XPM */
static char *Ptower2[] = {
/* columns rows colors chars-per-pixel */
"80 130 57 1 ",
"  c #000000",
". c #020202",
"X c #030303",
"o c #040404",
"O c #0B0B0B",
"+ c #0C0C0C",
"@ c #101010",
"# c #141312",
"$ c #1A1A1A",
"% c #52312E",
"& c #525245",
"* c #565649",
"= c #57574A",
"- c #59594C",
"; c #5A5A4D",
": c #5F5F5F",
"> c #636353",
", c #646453",
"< c #646454",
"1 c #747464",
"2 c #757565",
"3 c #767666",
"4 c #CE542F",
"5 c #8E5F43",
"6 c #916144",
"7 c #906145",
"8 c #916245",
"9 c #936448",
"0 c #96694E",
"q c #CE902F",
"w c #C237FC",
"e c #A9A999",
"r c #ABAB9B",
"t c #ACAC9C",
"y c #AEAE9E",
"u c #AFAF9F",
"i c #B0B0A0",
"p c #B1B1A1",
"a c #B1B1A2",
"s c #B2B2A2",
"d c #B3B3A3",
"f c #B6B6A6",
"g c #B7B7A7",
"h c #C7C7B2",
"j c #C8C8B3",
"k c #C8C8B4",
"l c #C9C9B4",
"z c #C9C9B5",
"x c #FFFFFE",
"c c #FFFFFE",
"v c #FFFFFE",
"b c #FFFFFE",
"n c #FFFFFE",
"m c #FFFFFE",
"M c #FFFFFE",
"N c #FFFFFE",
"B c #FFFFFE",
/* pixels */
"BBBBBBBBBBBBBBBBBBBBBBBBBBBBBBBBBBBBBBBBBBBBBBBBBBBBBBBBBBBBBBBBBBBBBBBBBBBBBBBB",
"BBBBBBBBBBBBBBBBBBBBBBBBBBBBBBBBBBBBBBBBBBBBBBBBBBBBBBBBBBBBBBBBBBBBBBBBBBBBBBBB",
"BBBBBBBBBBBBBBBBBBBBBBBBBBBBBBBBBBBBBBBBBBBBBBBBBBBBBBBBBBBBBBBBBBBBBBBBBBBBBBBB",
"BBBBBBBBBBBBBBBBBBBBBBBBBBBBBBBBBBBBBBBBBBBBBBBBBBBBBBBBBBBBBBBBBBBBBBBBBBBBBBBB",
"BBBBBBBBBBBBBBBBBBBBBBBBBBBBBBBBBBBBBBBBBBBBBBBBBBBBBBBBBBBBBBBBBBBBBBBBBBBBBBBB",
"BBBBBBBBBBBBBBBBBBBBBBBBBBBBBBBBBBBBBBBBBBBBBBBBBBBBBBBBBBBBBBBBBBBBBBBBBBBBBBBB",
"wwwwwwwwwwwwwwwwwwwwwwwwwwwwwwwwBBBBBBBBBBBBBBBBBBBBBBBBBBBBBBBBBBBBBBBBBBBBBBBB",
"wwwwwwwwwwwwwwwwwwwwwwwwwwwwwwwwBBBBBBBBBBBBBBBBBBBBBBBBBBBBBBBBBBBB++oXXXoBBBBB",
"wwwwwwwwwwwwwwwwwwwwwwwwwwwwwwwwBBBBBBBBBBBBBBBBBBBBBBBBBBBBBBBBBB+Oo;;;,;X+BBBB",
"wwwwwwwwwwwwwwwwwwwwwwwwwwwwwwwwBBBBBBBBBBBBBBBBBBBBBBBBBBBBBBBBB+o;;;OOo,;o+BBB",
"wwwwwwwwwwwwwwwwwwwwwwwwwwwwwwwwBBBBBBBBBBBBBBBBBBBBBBBBBBBBBBB+oo;;,O...o;,+BBB",
"wwwwwwwwwwwwwwwwwwwwwwwwwwwwwwwwBBBBBBBBBBBBBBBBBBBBBBBBBBBBBBoo;;,,O.....O,XBBB",
"wwwwwwwwwwwwwwwwwwwwwwwwwwwwwwwwBBBBBBBBBBBBBBBBBBBBBBBBBBBBooo;;,,,Oo.....,XBBB",
"wwwwwwwwwwwwwwwwwwwwwwwwwwwwwwwwBBBBBBBBBBBBBBBBBBBBBBBBBB+oo;;,,,,,OO...XX,XBBB",
"wwwwwwwwwwwwwwwwwwwwwwwwwwwwwwwwBBBBBBBBBBBBBBBBB4BqBBBBBoo;;,,,,,,,;O....;,oBBB",
"BBBBBBBBBBBBBBBBBBwwwwwwwwwwwwwwBBBBBBBBBBBBBBBBBB4XBB+ooX;,,,,,,,,,,,.O.;,;XBBB",
"BBBBBBBBBBBBBBBBBnwwwwwwwwwwwwwwBBBBBBBBBBBBBBBBBBBBX$o;;;,,,,,,,,,,,,:,,,,+BBBB",
"BBBBBBBBBBBBBBBBBvwwwwwwwwwwwwwwBBBBBBBBBBBBBBBBBBB+@;<<.......<<,,<,;,;;XXBBBBB",
"BBBBBBBBBBBBBBBBBcwwwwwwwwwwwwwwBBBBBBBBBBBBBBBBBBB+;;..7777777..<,<<,,;$oBBBBBB",
"BBBBBBBBBBBBBBBBBnwwwwwwwwwwwwwwBBBBBBBBBBBBBBBBBB$<..77..777..77..<<@X#+BBBBBBB",
"BBBBBBBBBBBBBBBBBBBBBBBBBBB66666BBBBBBBBBBBBBBBBBBX.77..<.777.<..77.@$@BBBBBBBBB",
"BBBBBBBBBBBBBBBBBBBBBBBBBBM86668BBBBBBBBBBBBBBBBBBX999X<<X999X<<X999X00@BBBBBBBB",
"BBBBBBBBBBBBBBBBBBBBBBBBBBM86668BBBBBBBBBBBBBBBBBX9X999XXX999X@ 669X9XB9XBBBBBBB",
"BBBBBBBBBBBBBBBBBBBBBBBBBBB86668BBBBBBBBBBBBBBBBX9X<X9995 999XX969XBX9XB9XBBBBBB",
"BBBBBBBBBBBB=****=ddddddddd66666222223sssdBBBB3222222222kkkkl 969XBBX932222kkkkk",
"BBBBBBBBBBBB=****=sssssssss66666111112ssssBBBB2111111111jjjjj999XBBBX921111jjjjj",
"BBBBBBBBBBBB=****=sssssssss66666111112ssssBBBB2111111111jjjjj99XXXXXX921111jjjjj",
"BBBBBBBBBBBB******sssssssss66666111112ssssBBBB2111111111jjjjj99999999921111jjjjj",
"BBBBBBBBBBBB******sssssssss66666111112sssdBBBB2111111111jjjjj99999999921111jjjjj",
"BBBBBBBBBBBB******11111111111111111112ssss22221111111111jjjjl33333333311111hjjjj",
"BBBBBBBBBBBB******11111111111111111112ssss11111111111111yssss11111111111111sssss",
"BBBBBBBBBBBB******11111111111111111112ssss11111111111111issss11111111111111sssss",
"BBBBBBBBBBBB=*****11111111111111111112ssss11111111111111issss11111111111111sssss",
"BBBBBBBBBBBB=*****1111111********11112222111111111111111issss11111111111111sssss",
"BBBBBBBBBBBB2111111111111********111111111ssssjjjjjjjjjjdssssrttejjjjjjjjjj11111",
"BBBBBBBBBBBB2111111111111********111111111ssssjjjjjjjjjjdpssdgffdjjjjjjjjjj11111",
"BBBBBBBBBBBB2111111111111********111111111ssssjjjjjjjjjjdpssssssujjjjjjjjjj11111",
"BBBBBBBBBBBB2111111111111********111111111ssssjjjjjjjjjjdpssssssujjjjjjjjjj11111",
"BBBBBBBBBBBB2111111111111*****111111111111ssssjjjjjjjjjjdpssssssujjjjjjjjjj11111",
"BBBBBBBBBBBB2111111111111*****11111112pssdsssssppppppppasssssssssspppppppppdssss",
"BBBBBBBBBBBB2111111111111*****11111112ssssssssssssssssssssssssssssssssssssssssss",
"BBBBBBBBBBBB2111111111111*****11111112ssssssssssssssssssssssssssssssssssssssssss",
"BBBBBBBBBBBB2111111111111*****11111112ssssssssssssssssssssssssssssssssssssssssss",
"BBBBBBBBBBBB2222211111111*****1111111211111111111111111111111111111111111113mmmm",
"BBBBBBBBBBBBmmmmb21111111111111111111111111111111111111111111111111111111113BBBB",
"BBBBBBBBBBBBBBBBB21111111111111111111111111111111111111111111111111111111112BBBB",
"BBBBBBBBBBBBBBBBm21111111111111111111111111111111111111111111111111111111112BBBB",
"BBBBBBBBBBBBBBBBm21111111111111111111111111111111111111111111111111111111112BBBB",
"BBBBBBBBBBBBBBBBm21111111111111111111111111111111111111111111111111111111112BBBB",
"BBBBBBBBBBBBBBBBm2111111111111111111111111pssssssssssssssssssssssssssssssssBBBBB",
"BBBBBBBBBBBBBBBBm2111111111111111111111111sssssssssssssssssssssssssssssssssBBBBB",
"BBBBBBBBBBBBBBBBm2111111111111111111111111sssssssssssssjjjjjjjjjjssssssssssBBBBB",
"BBBBBBBBBBBBBBBBm211*************111111111sssssssssssssjjjjjjjjjjssssssssssBBBBB",
"BBBBBBBBBBBBBBBBm211*************11111111111112ssssssssjjjjjjjjjjsssss11111NBBBB",
"BBBBBBBBBBBBBBBBm211*************11111111111111ssssssssjjjjjjjjjjsssss11111mBBBB",
"BBBBBBBBBBBBBBBBm211*************11111111111111sssssssssssssssssssssss11111mBBBB",
"BBBBBBBBBBBBBBBBm211*************11111111111111sssssssssssssssssssssss11111mBBBB",
"BBBBBBBBBBBBBBBBm211111111111111111111111111111sssssssssssssssssssssss11111mBBBB",
"BBBBBBBBBBBBBBBBB211111111111111111111111122222sssssssss**********sssssssssBBBBB",
"BBBBBBBBBBBBBBBBm2111111111111111111111111ssssssssssssss**********sssssssssBBBBB",
"BBBBBBBBBBBBBBBBm2111111111111111111111111ssssssssssssss**********sssssssssBBBBB",
"BBBBBBBBBBBBBBBBm2111111111111111111111111ssssssssssssss-&********sssssssssBBBBB",
"BBBBBBBBBBBBBBBBm2111111111111111111111111ssssssssssssss-*********sssssssssBBBBB",
"BBBBBBBBBBBBBBBBm211111111111111111111111111111sssssssss**********ssss11111mBBBB",
"BBBBBBBBBBBBBBBBm211111111111111111111111111111sssssssss**********ssss11111BBBBB",
"BBBBBBBBBBBBBBBBm211111111111111111111111111111sssssssss**********ssss11111mBBBB",
"BBBBBBBBBBBBBBBBm211111111111*******11111111111sssssssss**********ssss11111mBBBB",
"BBBBBBBBBBBBBBBBm211111111111*******11111111112sssssssss**********ssss11111NBBBB",
"BBBBBBBBBBBBBBBBm211111111111*******111111sssssssssssssssssssssssssssssssssBBBBB",
"BBBBBBBBBBBBBBBBm211111111111*******111111sssssssssssssssssssssssssssssssssBBBBB",
"BBBBBBBBBBBBBBBBm211111111111*******111111sssssssssssssssssssssssssssssssssBBBBB",
"BBBBBBBBBBBBBBBBB2111111111111111111111111sssssssssssssssssssssssssssssssssBBBBB",
"BBBBBBBBBBBBBBBBm2111111111111111111111111sssssssssssssssssssssssssssssssssBBBBB",
"BBBBBBBBBBBBBBBBm2111111111111111111111111ssjjjjjjjjjjjssssss11111111111111mBBBB",
"BBBBBBBBBBBBBBBBm2111111111111111111111111ssjjjjjjjjjjjssssss11111111111111mBBBB",
"BBBBBBBBBBBBBBBBm1111111111111111111111111ssjjjjjjjjjjjssssss11111111111111mBBBB",
"BBBBBBBBBBBBBBBBm111************1111111111ssjjjjjjjjjjjssssss11111111111111mBBBB",
"BBBBBBBBBBBBBBBBm111************1111111111sssssssssssssssssssssssssssssssssBBBBB",
"BBBBBBBBBBBBBBBBm211************1111111111sssssssssssssssssssssssssssssssssBBBBB",
"BBBBBBBBBBBBBBBBm211************1111111111sssssssssssssssssssssssssssssssssBBBBB",
"BBBBBBBBBBBBBBBBm211************1111111111sssssssssssssssssssjjjjjjjjjjssssBBBBB",
"BBBBBBBBBBBBBBBBm2111111111111111111111111sssssssssssssssssssjjjjjjjjjjssssBBBBB",
"BBBBBBBBBBBBBBBBm211111111111111111111111111111111111111sssssjjjjjjjjjjssssBBBBB",
"BBBBBBBBBBBBBBBBm211111111111111111111111111111111111111sssssjjjjjjjjjjssssBBBBB",
"BBBBBBBBBBBBBBBBm211111111111111111111111111111111111111sssssssssssssssssssBBBBB",
"BBBBBBBBBBBBBBBBB211111111111111111111111111111111111111sssssssssssssssssssBBBBB",
"BBBBBBBBBBBBBBBBm211111111111111111111111111111111111111sssssssssssssssssssBBBBB",
"BBBBBBBBBBBBBBBBm21111111111111111111111111111ssssssssss**********ssss>>>>>mBBBB",
"BBBBBBBBBBBBBBBBm21111111111111111111111111111ssssssssss**********ssss>>>>>mBBBB",
"BBBBBBBBBBBBBBBBm21111111111111111111111111111ssssssssss**********ssss>>>>>mBBBB",
"BBBBBBBBBBBBBBBBm21111************111111111111ssssssssss**********ssss>>>>>mBBBB",
"BBBBBBBBBBBBBBBBm21111************111111111111ssssssssss**********ssss>>>>>NBBBB",
"BBBBBBBBBBBBBBBBm21111************11111111ssssssssssssss**********sssssssssBBBBB",
"BBBBBBBBBBBBBBBBm21111************11111111ssssssssssssss**********sssssssssBBBBB",
"BBBBBBBBBBBBBBBBm21111************11111111ssssssssssssss**********sssssssssBBBBB",
"BBBBBBBBBBBBBBBBm21111************11111111ssssssssssssss**********sssssssssBBBBB",
"BBBBBBBBBBBBBBBBm21111******11111111111111ssssssssssssss**********sssssssssBBBBB",
"BBBBBBBBBBBBBBBBm21111******11111111111111sssssssssssssssssssssssssssssssssBBBBB",
"BBBBBBBBBBBBBBBBm21111******11111111111111sssssssssssssssssssssssssssssssssBBBBB",
"BBBBBBBBBBBBBBBBB21111******11111111111111sssssssssssssssssssssssssssssssssBBBBB",
"BBBBBBBBBBBBBBBBm21111******11111111111111sssssssssssssssssssssssssssssssssBBBBB",
"BBBBBBBBBBBBBBBBm21111******111111111111111111jjjjjjjjssssssssssssssss>>>>>NBBBB",
"BBBBBBBBBBBBBBBBm21111******111111111111111111jjjjjjjjssssssssssssssss>>>>>mBBBB",
"BBBBBBBBBBBBBBBBm21111******111111111111111111jjjjjjjjssssssssssssssss>>>>>mBBBB",
"BBBBBBBBBBBBBBBBm21111*****************1111111jjjjjjjjssssssssssssssss>>>>>mBBBB",
"BBBBBBBBBBBBBBBBm21111*****************1111111ssssssssssssssssssssssss>>>>>mBBBB",
"BBBBBBBBBBBBBBBBm21111*****************111sssssssssssssssssssssssssssssssssBBBBB",
"BBBBBBBBBBBBBBBBm21111*****************111sssssssssssssssssssssssssssssssssBBBBB",
"BBBBBBBBBBBBBBBBm21111*****************111sssssssssssssssssssssssssssssssssBBBBB",
"BBBBBBBBBBBBBBBBm2111111111111111111111111sssssssssssssssssssssssssssssssssBBBBB",
"BBBBBBBBBBBBBBBBm2111111111111111111111111sssssssssssssssssssssssssssssssssBBBBB",
"BBBBBBBBBBBBBBBBm211111111111111111111111111111111111111ssssssssss>>>>>>>>>mBBBB",
"BBBBBBBBBBBBBBBBm211111111111111111111111111111111111111ssssssssss>>>>>>>>>mBBBB",
"BBBBBBBBBBBBBBBBm211111*********111111111111111111111111ssssssssss>>>>>>>>>mBBBB",
"BBBBBBBBBBBBmmmmm211111*********111111111111111111111111ssssssssss>>>>>>>>>mBBBB",
"BBBBBBBBBBBB32222111111*********111111111111111111111111ssssssssss>>>>>>>>>mBBBB",
"BBBBBBBBBBBB21111111111*********11111sssssssssssssssssssssssssssssssssssssssssss",
"BBBBBBBBBBBB21111111111*********11111sssssssssssssssssssssssssssssssssssssssssss",
"BBBBBBBBBBBB1111111111111111111111111sssssssssssssssssssssssssssssssssssssssssss",
"BBBBBBBBBBBB1111111111111111111111111sssssssssssssssssssssssssssssssssssssssssss",
"BBBBBBBBBBBB1111111111111111111111111sssssssssssssssssssssssssssssssssssssssssss",
"BBBBBBBBBBBB1111***********11111111111111sssssssssssssss6666666666%%%%ssssssssss",
"BBBBBBBBBBBB1111***********11111111111111sssssssssssssss6666666666%%%%ssssssssss",
"BBBBBBBBBBBB2111***********11111111111111sssssssssssssss6666666666%%%%ssssssssss",
"BBBBBBBBBBBB2111***********11111111111111sssssssssssssss6666666666%%%%ssssssssss",
"BBBBBBBBBBBx2111***********1111111111sssssssssssssssssss6666666666%%%%sssss>>>>>",
"BBBBBBBBBBBx2111111111111111111111111sssssssssssssssssss6666666666%%%%sssss>>>>>",
"BBBBBBBBBBBx2111111111111111111111111sssssssssssssssssss6666666666%%%%sssss>>>>>",
"BBBBBBBBBBBz2111111111111111111111111sssssssssssssssssss6666666666%%%%sssss>>>>>",
"BBBBBBBBBBBz2111111111111111111111111sssssssssssssssssss6666666666%%%%sssss>>>>>"
};
