/* XPM */
static char *health_bar_100_xpm[] = {
/* columns rows colors chars-per-pixel */
"150 20 8 1 ",
"  c #000000",
". c #010000",
"X c #000001",
"o c #010101",
"O c #F71212",
"+ c #FA1212",
"@ c #0000FC",
"# c #FFFFFF",
/* pixels */
"@@@@@                                                                                                                                            @@@@@",
"@@@@                                                                                                                                              @@@@",
"@@@XXooo........................................................................................................................................ oX@@@",
"@@X     O++++++++++++++++++++++++++++++++++++++++++++++++++++++++OO++OOOO+++++++++++++++++++++++++++++++OOO+OOOOO+++++++++++++++++++++++++++++      @@",
"@ o    ++++++++++++++++++++++++++++++++++++++++++++++++++++++++++++++++++++++++++++++++++++++++++++++++++++++++++++++++++++++++++++++++++++++++      @",
"  o   O+++++++++++++++++++++++++++++++++++++++++++++++++++++++++++++++++++++++++++++++++++++++++++++++++++++++++++++++++++++++++++++++++++++++++      ",
"  .  ++++++++++++++++++++++++++++++++++++++++++++++++++++++++++++++++++++++++++++++++++++++++++++++++++++++++++++++++++++++++++++++++++++++++++++     ",
"  . ++++++++++++++++++++++++++++++++++++++++++++++++++++++++++++++++++++++++++++++++++++++++++++++++++++++++++++++++++++++++++++++++++++++++++++++    ",
"  .O++++++++++++++++++++++++++++++++++++++++++++++++++++++++++++++++++++++++++++++++++++++++++++++++++++++++++++++++++++++++++++++++++++++++++++++Oo  ",
"  .O++++++++++++++++++++++++++++++++++++++++++++++++++++++++++++++++++++++++++++++++++++++++++++++++++++++++++++++++++++++++++++++++++++++++++++++Oo  ",
"  .O++++++++++++++++++++++++++++++++++++++++++++++++++++++++++++++++++++++++++++++++++++++++++++++++++++++++++++++++++++++++++++++++++++++++++++++Oo  ",
"  .O++++++++++++++++++++++++++++++++++++++++++++++++++++++++++++++++++++++++++++++++++++++++++++++++++++++++++++++++++++++++++++++++++++++++++++++Oo  ",
"  . ++++++++++++++++++++++++++++++++++++++++++++++++++++++++++++++++++++++++++++++++++++++++++++++++++++++++++++++++++++++++++++++++++++++++++++++ o  ",
"     ++++++++++++++++++++++++++++++++++++++++++++++++++++++++++++++++++++++++++++++++++++++++++++++++++++++++++++++++++++++++++++++++++++++++++++     ",
"      ++++++++++++++++++++++++++++++++++++++++++++++++++++++++++++++++++++++++++++++++++++++++++++++++++++++++++++++++++++++++++++++++++++++++++      ",
"#      ++++++++++++++++++++++++++++++++++++++++++++++++++++++++++++++++++++++++++++++++++++++++++++++++++++++++++++++++++++++++++++++++++++++++    o @",
"@@o     O++++++++++++++++++++++++++++++++++++++++++++++++++++++++OO++OOOO+++++++++++++++++++++++++++++++OOO+OOOOO+++++++++++++++++++++++++++++     X@@",
"@@@ooooo......................................................................................................................................  ooX@@@",
"@@@@                                                                                                                                              @@@@",
"@@@@@                                                                                                                                            @@@@@"
};
