/* XPM */
static char *health_bar_00_xpm[] = {
/* columns rows colors chars-per-pixel */
"150 20 8 1 ",
"  c #000000",
". c #010000",
"X c #000001",
"o c #010101",
"O c #0000FC",
"+ c #FFFFFE",
"@ c #FAFAFA",
"# c #FFFFFF",
/* pixels */
"OOOOO                                                                                                                                            OOOOO",
"OOOO                                                                                                                                              OOOO",
"OOOXXooooooooooooooooooooooooooooooooooooooooooooooooooooooooooooooooooooooooooooooooooooooooooooooooooooooooooooooooooooooooooooooooooooooooo.. oXOOO",
"OOX     @########################################################@@##@@@@###############################@@@#@@@@@#############################      OO",
"O o    ########################################################################################################################################      O",
"  o   @#########################################################################################################################################      ",
"  o  ############################################################################################################################################     ",
"  o ##############################################################################################################################################    ",
"  o@##############################################################################################################################################@o  ",
"  o@##############################################################################################################################################@o  ",
"  o@##############################################################################################################################################@o  ",
"  o@##############################################################################################################################################@o  ",
"  o ############################################################################################################################################## o  ",
"     ############################################################################################################################################     ",
"      ##########################################################################################################################################      ",
"+      ########################################################################################################################################    o O",
"OOo     @########################################################@@##@@@@###############################@@@#@@@@@#############################     XOO",
"OOOoooooooooooooooooooooooooooooooooooooooooooooooooooooooooooooooooooooooooooooooooooooooooooooooooooooooooooooooooooooooooooooooooooooo.....  ooXOOO",
"OOOO                                                                                                                                              OOOO",
"OOOOO                                                                                                                                            OOOOO"
};
