/* XPM */
static char *health_bar_60_xpm[] = {
/* columns rows colors chars-per-pixel */
"150 20 10 1 ",
"  c #000000",
". c #010000",
"X c #000001",
"o c #010101",
"O c #F71212",
"+ c #FA1212",
"@ c #0000FC",
"# c #FFFFFE",
"$ c #FAFAFA",
"% c #FFFFFF",
/* pixels */
"@@@@@                                                                                                                                            @@@@@",
"@@@@                                                                                                                                              @@@@",
"@@@XXooo.............................................................................................ooooooooooooooooooooooooooooooooooooooooo.. oX@@@",
"@@X     O++++++++++++++++++++++++++++++++++++++++++++++++++++++++OO++OOOO++++++++++++++++++++++++++++%%%$$$%$$$$$%%%%%%%%%%%%%%%%%%%%%%%%%%%%%      @@",
"@ o    ++++++++++++++++++++++++++++++++++++++++++++++++++++++++++++++++++++++++++++++++++++++++++++++%%%%%%%%%%%%%%%%%%%%%%%%%%%%%%%%%%%%%%%%%%      @",
"  o   O++++++++++++++++++++++++++++++++++++++++++++++++++++++++++++++++++++++++++++++++++++++++++++++%%%%%%%%%%%%%%%%%%%%%%%%%%%%%%%%%%%%%%%%%%%      ",
"  .  ++++++++++++++++++++++++++++++++++++++++++++++++++++++++++++++++++++++++++++++++++++++++++++++++%%%%%%%%%%%%%%%%%%%%%%%%%%%%%%%%%%%%%%%%%%%%     ",
"  . +++++++++++++++++++++++++++++++++++++++++++++++++++++++++++++++++++++++++++++++++++++++++++++++++%%%%%%%%%%%%%%%%%%%%%%%%%%%%%%%%%%%%%%%%%%%%%    ",
"  .O+++++++++++++++++++++++++++++++++++++++++++++++++++++++++++++++++++++++++++++++++++++++++++++++++%%%%%%%%%%%%%%%%%%%%%%%%%%%%%%%%%%%%%%%%%%%%%$o  ",
"  .O+++++++++++++++++++++++++++++++++++++++++++++++++++++++++++++++++++++++++++++++++++++++++++++++++%%%%%%%%%%%%%%%%%%%%%%%%%%%%%%%%%%%%%%%%%%%%%$o  ",
"  .O+++++++++++++++++++++++++++++++++++++++++++++++++++++++++++++++++++++++++++++++++++++++++++++++++%%%%%%%%%%%%%%%%%%%%%%%%%%%%%%%%%%%%%%%%%%%%%$o  ",
"  .O+++++++++++++++++++++++++++++++++++++++++++++++++++++++++++++++++++++++++++++++++++++++++++++++++%%%%%%%%%%%%%%%%%%%%%%%%%%%%%%%%%%%%%%%%%%%%%$o  ",
"  . +++++++++++++++++++++++++++++++++++++++++++++++++++++++++++++++++++++++++++++++++++++++++++++++++%%%%%%%%%%%%%%%%%%%%%%%%%%%%%%%%%%%%%%%%%%%%% o  ",
"     ++++++++++++++++++++++++++++++++++++++++++++++++++++++++++++++++++++++++++++++++++++++++++++++++%%%%%%%%%%%%%%%%%%%%%%%%%%%%%%%%%%%%%%%%%%%%     ",
"      +++++++++++++++++++++++++++++++++++++++++++++++++++++++++++++++++++++++++++++++++++++++++++++++%%%%%%%%%%%%%%%%%%%%%%%%%%%%%%%%%%%%%%%%%%%      ",
"#      ++++++++++++++++++++++++++++++++++++++++++++++++++++++++++++++++++++++++++++++++++++++++++++++%%%%%%%%%%%%%%%%%%%%%%%%%%%%%%%%%%%%%%%%%%    o @",
"@@o     O++++++++++++++++++++++++++++++++++++++++++++++++++++++++OO++OOOO++++++++++++++++++++++++++++%%%$$$%$$$$$%%%%%%%%%%%%%%%%%%%%%%%%%%%%%     X@@",
"@@@ooooo.............................................................................................oooooooooooooooooooooooooooooooooooo.....  ooX@@@",
"@@@@                                                                                                                                              @@@@",
"@@@@@                                                                                                                                            @@@@@"
};
