/* XPM */
static char *velocity_bar_02[] = {
/* columns rows colors chars-per-pixel */
"30 130 8 1 ",
"  c #000000",
". c #010101",
"X c #020202",
"o c #061B03",
"O c #060A1E",
"+ c #202020",
"@ c #3051ED",
"# c #FFFFFE",
/* pixels */
"##############################",
"#####XX###XXXXXX#X XXXX#######",
"####XXX###XXXXXX#X XXXX#######",
"### XXX###XX##XX#  ##XX#######",
"###XXXX###XX##XX# X##XX#######",
"#####XX###XX##XX# X##XX##X##X#",
"#####XX###XX##XX# X##XX####X##",
"#####XX###XX##XX#XX##XX###X###",
"###XX XXX#XXXXXX#XXXXXX##X####",
"###XXXXXX#XXXXXX#XXXXXX#X##X##",
"##############################",
"##XXXXXX           XXXXXXXXX##",
"#XXXXXXXXXXXXXXXXXXXXXXXXXXXX#",
"                              ",
"                              ",
"       ################       ",
"     ####################     ",
"    ######################    ",
"   ########################   ",
"  ##########################  ",
"  ##########################  ",
"  ##########################  ",
"  ##########################  ",
"  ##########################  ",
"  ##########################  ",
"  ##########################  ",
"  ##########################  ",
"  ##########################  ",
"  ##########################  ",
"  ##########################  ",
"  ##########################  ",
"  ##########################  ",
"  ##########################  ",
"  ##########################  ",
"  ##########################  ",
"  ##########################  ",
"  ##########################  ",
"  ##########################  ",
"  ##########################  ",
"  ##########################  ",
"  ##########################  ",
"  ##########################  ",
"  ##########################  ",
"  ##########################  ",
"  ##########################  ",
"  ##########################  ",
"  ##########################  ",
"  ##########################  ",
"  ##########################  ",
"  ##########################  ",
"  ##########################  ",
"  ##########################  ",
"  ##########################  ",
"  ##########################  ",
"  ##########################  ",
"  ##########################  ",
" .##########################  ",
" .##########################  ",
" .##########################  ",
" .##########################. ",
" .##########################. ",
" .##########################. ",
" .##########################. ",
" .##########################. ",
" .##########################. ",
" .##########################. ",
" .##########################. ",
" .##########################+ ",
" .##########################+ ",
" +##########################+ ",
" +##########################+ ",
" +##########################+ ",
" o##########################+ ",
" O##########################+ ",
" o##########################+ ",
" o##########################+ ",
" o##########################+ ",
" o##########################+ ",
" o##########################+ ",
" +##########################+ ",
" +##########################+ ",
" +##########################+ ",
" +##########################+ ",
" +##########################+ ",
" +##########################+ ",
" O##########################+ ",
" O##########################+ ",
" O##########################+ ",
" O##########################+ ",
" +##########################+ ",
" +##########################+ ",
" +##########################+ ",
" +##########################+ ",
" O##########################+ ",
" O##########################+ ",
" O##########################+ ",
" O##########################+ ",
" O##########################+ ",
" O##########################+ ",
" O##########################+ ",
" O##########################+ ",
" +##########################+ ",
" +##########################+ ",
" +##########################. ",
" .##########################  ",
"  ##########################  ",
"  ##########################  ",
"  ##########################  ",
"  ##########################  ",
"  ##########################  ",
"  ##########################  ",
"   ########################   ",
"    ######################    ",
"     @@@@@@@@@@@@@@@@@@@@     ",
"       @@@@@@@@@@@@@@@@       ",
"                              ",
"                              ",
"#XXXXXXXXXXXXXXXXXXXXXXXXXXXX#",
"##XXXXXXXXXXXXXXXXXXXXXXXXXX##",
"##############################",
"##########XXXXXXX#############",
"##########X XXXXX#############",
"##########XX###XX#############",
"##########XX###XX#############",
"##########XX###XX##X##X#######",
"##########XX###XX####X########",
"##########XX###XX###X#########",
"##########XXXXXXX##X##########",
"##########XXXXXXX#X##X########",
"##############################"
};
