/* XPM */
static char *back_button_xpm[] = {
/* columns rows colors chars-per-pixel */
"100 50 4 1 ",
"  c #000000",
". c #020202",
"X c #B400FF",
"o c #FFFFFF",
/* pixels */
"                                                                                                    ",
"                             .......           .................................................... ",
"  oooooooooooooooooooooooooooooooooooooooooooooooooooooooooooooooooooooooooooooooooooooooooooooooo. ",
"  oooooooooooooooooooooooooooooooooooooooooooooooooooooooooooooooooooooooooooooooooooooooooooooooo. ",
"  oooooooooooooooooooooooooooooooooooooooooooooooooooooooooooooooooooooooooooooooooooooooooooooooo. ",
"  oooooooooooooooooooooooooooooooooooooooooooooooooooooooooooooooooooooooooooooooooooooooooooooooo. ",
"  oooooooooooooooooooooooooooooooooooooooooooooooooooooooooooooooooooooooooooooooooooooooooooooooo. ",
"  oooooooooooooooooooooooooooooooooooooooooooooooooooooooooooooooooooooooooooooooooooooooooooooooo. ",
"  oooooooooooooooooooooooooooooooooooooooooooooooooooooooooooooooooooooooooooooooooooooooooooooooo. ",
"  oooooooooooooooooooooooooooooooooooooooooooooooooooooooooooooooooooooooooooooooooooooooooooooooo. ",
"  oooooooooooooooooooooooooooooooooooooooooooooooooooooooooooooooooooooooooooooooooooooooooooooooo. ",
"  oooooooooooooooooooooooooooooooooooooooooooooooooooooooooooooooooooooooooooooooooooooooooooooooo. ",
"  oooooooooooooooooooooooooooooooooooooooooooooooooooooooooooooooooooooooooooooooooooooooooooooooo. ",
"  oooooooooooooo             oooooo             oooo               oo     ooooo     oooooooooooooo. ",
"  oooooooooooooo XXXXXXXXXXXX oooo XXXXXXXXXXXXX ooo XXXXXXXXXXXXX oo XXX ooooo XXX oooooooooooooo. ",
"  oooooooooooooo XXXXXXXXXXXXX ooo XXXXXXXXXXXXX ooo XXXXXXXXXXXXX oo XXX ooooo XXX oooooooooooooo. ",
"  oooooooooooooo XXXXXXXXXXXXX ooo XXXXXXXXXXXXX ooo XXXXXXXXXXXXX oo XXX oooo XXX ooooooooooooooo. ",
"  oooooooooooooo XXX      XXXX ooo XXXX     XXXX ooo XXX           oo XXX oooo XXX ooooooooooooooo. ",
" .oooooooooooooo XXX ooooo XXX ooo XXX ooooo XXX ooo XXX oooooooooooo XXX ooo XXX oooooooooooooooo. ",
" .oooooooooooooo XXX ooooo XXX ooo XXX ooooo XXX ooo XXX oooooooooooo XXX ooo XXX oooooooooooooooo. ",
" .oooooooooooooo XXX ooooo XXX ooo XXX ooooo XXX ooo XXX oooooooooooo XXX oo XXX ooooooooooooooooo. ",
" .oooooooooooooo XXX ooooo XXX ooo XXX ooooo XXX ooo XXX oooooooooooo XXX   XXXX ooooooooooooooooo. ",
" .oooooooooooooo XXX      XXXX ooo XXX ooooo XXX ooo XXX oooooooooooo XXXXXXXXX oooooooooooooooooo. ",
" .oooooooooooooo XXXXXXXXXXXXX ooo XXX       XXX ooo XXX oooooooooooo XXXXXXXX ooooooooooooooooooo. ",
" .oooooooooooooo XXXXXXXXXXXXX ooo XXXXXXXXXXXXX ooo XXX oooooooooooo XXXXXXXX ooooooooooooooooooo. ",
" .oooooooooooooo XXXXXXXXXXXX oooo XXXXXXXXXXXXX ooo XXX oooooooooooo XXXXXXXX ooooooooooooooooooo. ",
" .oooooooooooooo XXXXXXXXXXX ooooo XXXXXXXXXXXXX ooo XXX oooooooooooo XXXXXXXX ooooooooooooooooooo. ",
" .oooooooooooooo XXXXXXXXXXXX oooo XXX       XXX ooo XXX oooooooooooo XXX   XXX oooooooooooooooooo. ",
" .oooooooooooooo XXX      XXXX ooo XXX ooooo XXX ooo XXX oooooooooooo XXX oo XXX ooooooooooooooooo. ",
" .oooooooooooooo XXX ooooo XXX ooo XXX ooooo XXX ooo XXX oooooooooooo XXX oo XXX ooooooooooooooooo. ",
" .oooooooooooooo XXX ooooo XXX ooo XXX ooooo XXX ooo XXX oooooooooooo XXX ooo XXX oooooooooooooooo. ",
" .oooooooooooooo XXX ooooo XXX ooo XXX ooooo XXX ooo XXX oooooooooooo XXX ooo XXX oooooooooooooooo. ",
" .oooooooooooooo XXX ooooo XXX ooo XXX ooooo XXX ooo XXX oooooooooooo XXX oooo XXX ooooooooooooooo. ",
" .oooooooooooooo XXX      XXXX ooo XXX ooooo XXX ooo XXX           oo XXX oooo XXX ooooooooooooooo. ",
" .oooooooooooooo XXXXXXXXXXXXX ooo XXX ooooo XXX ooo XXXXXXXXXXXXX oo XXX ooooo XXX oooooooooooooo. ",
" .oooooooooooooo XXXXXXXXXXXXX ooo XXX ooooo XXX ooo XXXXXXXXXXXXX oo XXX ooooo XXX oooooooooooooo. ",
" .oooooooooooooo XXXXXXXXXXXX oooo XXX ooooo XXX ooo XXXXXXXXXXXXX oo XXX ooooo XXX oooooooooooooo. ",
" .oooooooooooooo             ooooo     ooooo     ooo               oo     ooooo     oooooooooooooo. ",
" .oooooooooooooooooooooooooooooooooooooooooooooooooooooooooooooooooooooooooooooooooooooooooooooooo. ",
" .oooooooooooooooooooooooooooooooooooooooooooooooooooooooooooooooooooooooooooooooooooooooooooooooo. ",
" .oooooooooooooooooooooooooooooooooooooooooooooooooooooooooooooooooooooooooooooooooooooooooooooooo. ",
" .oooooooooooooooooooooooooooooooooooooooooooooooooooooooooooooooooooooooooooooooooooooooooooooooo. ",
" .oooooooooooooooooooooooooooooooooooooooooooooooooooooooooooooooooooooooooooooooooooooooooooooooo. ",
" .oooooooooooooooooooooooooooooooooooooooooooooooooooooooooooooooooooooooooooooooooooooooooooooooo. ",
" .oooooooooooooooooooooooooooooooooooooooooooooooooooooooooooooooooooooooooooooooooooooooooooooooo. ",
" .oooooooooooooooooooooooooooooooooooooooooooooooooooooooooooooooooooooooooooooooooooooooooooooooo. ",
" .oooooooooooooooooooooooooooooooooooooooooooooooooooooooooooooooooooooooooooooooooooooooooooooooo. ",
" .oooooooooooooooooooooooooooooooooooooooooooooooooooooooooooooooooooooooooooooooooooooooooooooooo. ",
" .................................................................................................. ",
"                                                                                                    "
};
