/* XPM */
static char *game_over_xpm[] = {
/* columns rows colors chars-per-pixel */
"100 50 4 1 ",
"  c #000000",
". c #020202",
"X c #DB12CA",
"o c #FFFFFF",
/* pixels */
"                                                                                                    ",
"                             .......           .................................................... ",
"  oooooooooooooooooooooooooooooooooooooooooooooooooooooooooooooooooooooooooooooooooooooooooooooooo. ",
"  oooooooooooooooooooooooooooooooooooooooooooooooooooooooooooooooooooooooooooooooooooooooooooooooo. ",
"  oooooooooooooooooooooooooooooooooooooooooooooooooooooooooooooooooooooooooooooooooooooooooooooooo. ",
"  oooooooooooooooooooooooooooooooooooooooooooooooooooooooooooooooooooooooooooooooooooooooooooooooo. ",
"  oooooooooooooooooooooooooooooooooooooooooooooooooooooooooooooooooooooooooooooooooooooooooooooooo. ",
"  oooooooooooooooooooooooooooooooooooooooooooooooooooooooooooooooooooooooooooooooooooooooooooooooo. ",
"  oooooooooooooooooooooooooooooooooooooooooooooooooooooooooooooooooooooooooooooooooooooooooooooooo. ",
"  ooooooooooooooooooooo          oo          oo      ooooo      oo          oooooooooooooooooooooo. ",
"  ooooooooooooooooooooo XXXXXXXX oo XXXXXXXX oo XXXXX ooo XXXXX oo XXXXXXXX oooooooooooooooooooooo. ",
"  ooooooooooooooooooooo XXXXXXXX oo XXXXXXXX oo XXXXX ooo XXXXX oo XXXXXXXX oooooooooooooooooooooo. ",
"  ooooooooooooooooooooo XX       oo XXX  XXX oo XXXXXX o XXXXXX oo XX       oooooooooooooooooooooo. ",
"  ooooooooooooooooooooo XX oooooooo XX oo XX oo XX  XXX XXX  XX oo XX oooooooooooooooooooooooooooo. ",
"  ooooooooooooooooooooo XX oooooooo XX oo XX oo XX o XXXXX o XX oo XX     oooooooooooooooooooooooo. ",
"  ooooooooooooooooooooo XX o     oo XX    XX oo XX o XXXXX o XX oo XXXXXX oooooooooooooooooooooooo. ",
"  ooooooooooooooooooooo XX o XXX oo XXXXXXXX oo XX oo XXX oo XX oo XXXXXX oooooooooooooooooooooooo. ",
"  ooooooooooooooooooooo XX o  XX oo XXXXXXXX oo XX oo XXX oo XX oo XX     oooooooooooooooooooooooo. ",
" .ooooooooooooooooooooo XX oo XX oo XX    XX oo XX ooo X ooo XX oo XX oooooooooooooooooooooooooooo. ",
" .ooooooooooooooooooooo XX oo XX oo XX oo XX oo XX ooo X ooo XX oo XX oooooooooooooooooooooooooooo. ",
" .ooooooooooooooooooooo XX    XX oo XX oo XX oo XX oooo oooo XX oo XX       oooooooooooooooooooooo. ",
" .ooooooooooooooooooooo XXXXXXXX oo XX oo XX oo XX ooooooooo XX oo XXXXXXXX oooooooooooooooooooooo. ",
" .ooooooooooooooooooooo XXXXXXXX oo XX oo XX oo XX ooooooooo XX oo XXXXXXXX oooooooooooooooooooooo. ",
" .ooooooooooooooooooooo          oo    oo    oo    ooooooooo    oo          oooooooooooooooooooooo. ",
" .oooooooooooooooooooooooooooooooooooooooooooooooooooooooooooooooooooooooooooooooooooooooooooooooo. ",
" .oooooooooooooooooooooooooooooooooooooooooooooooooooooooooooooooooooooooooooooooooooooooooooooooo. ",
" .oooooooooooooooooooooooo          oo   oooo   oo          oo          oooooooooooooooooooooooooo. ",
" .oooooooooooooooooooooooo XXXXXXXX oo XX oo XX oo XXXXXXXX oo XXXXXXXX oooooooooooooooooooooooooo. ",
" .oooooooooooooooooooooooo XXXXXXXX oo XX oo XX oo XXXXXXXX oo XXXXXXXX oooooooooooooooooooooooooo. ",
" .oooooooooooooooooooooooo XX    XX oo XX oo XX oo XX       oo XX   XXX oooooooooooooooooooooooooo. ",
" .oooooooooooooooooooooooo XX oo XX oo XX oo XX oo XX oooooooo XX oo XX oooooooooooooooooooooooooo. ",
" .oooooooooooooooooooooooo XX oo XX oo XX oo XX oo XX     oooo XX oo XX oooooooooooooooooooooooooo. ",
" .oooooooooooooooooooooooo XX oo XX oo XX oo XX oo XXXXXX oooo XX   XXX oooooooooooooooooooooooooo. ",
" .oooooooooooooooooooooooo XX oo XX ooo X oo X ooo XXXXXX oooo XXXXXXXX oooooooooooooooooooooooooo. ",
" .oooooooooooooooooooooooo XX oo XX ooo XX  XX ooo XX     oooo XXXXXXXX oooooooooooooooooooooooooo. ",
" .oooooooooooooooooooooooo XX oo XX ooo XXXXXX ooo XX oooooooo XX   XX ooooooooooooooooooooooooooo. ",
" .oooooooooooooooooooooooo XX oo XX ooo XXXXXX ooo XX oooooooo XX o XX ooooooooooooooooooooooooooo. ",
" .oooooooooooooooooooooooo XX    XX oooo XXXX oooo XX       oo XX oo XX oooooooooooooooooooooooooo. ",
" .oooooooooooooooooooooooo XXXXXXXX oooo XXXX oooo XXXXXXXX oo XX oo XX oooooooooooooooooooooooooo. ",
" .oooooooooooooooooooooooo XXXXXXXX oooo XXXX oooo XXXXXXXX oo XX oo XX oooooooooooooooooooooooooo. ",
" .oooooooooooooooooooooooo          ooooo    ooooo          oo    oo    oooooooooooooooooooooooooo. ",
" .oooooooooooooooooooooooooooooooooooooooooooooooooooooooooooooooooooooooooooooooooooooooooooooooo. ",
" .oooooooooooooooooooooooooooooooooooooooooooooooooooooooooooooooooooooooooooooooooooooooooooooooo. ",
" .oooooooooooooooooooooooooooooooooooooooooooooooooooooooooooooooooooooooooooooooooooooooooooooooo. ",
" .oooooooooooooooooooooooooooooooooooooooooooooooooooooooooooooooooooooooooooooooooooooooooooooooo. ",
" .oooooooooooooooooooooooooooooooooooooooooooooooooooooooooooooooooooooooooooooooooooooooooooooooo. ",
" .oooooooooooooooooooooooooooooooooooooooooooooooooooooooooooooooooooooooooooooooooooooooooooooooo. ",
" .oooooooooooooooooooooooooooooooooooooooooooooooooooooooooooooooooooooooooooooooooooooooooooooooo. ",
" .................................................................................................. ",
"                                                                                                    "
};
