/* XPM */
static char *game_paused_xpm[] = {
/* columns rows colors chars-per-pixel */
"250 50 3 1 ",
"  c #000000",
". c #00E5FF",
"X c #FFFFFF",
/* pixels */
"                                                                                                                                                                                                                                                          ",
"                                                                                                                                                                                                                                                          ",
"  XXXXXXXXXXXXXXXXXXXXXXXXXXXXXXXXXXXXXXXXXXXXXXXXXXXXXXXXXXXXXXXXXXXXXXXXXXXXXXXXXXXXXXXXXXXXXXXXXXXXXXXXXXXXXXXXXXXXXXXXXXXXXXXXXXXXXXXXXXXXXXXXXXXXXXXXXXXXXXXXXXXXXXXXXXXXXXXXXXXXXXXXXXXXXXXXXXXXXXXXXXXXXXXXXXXXXXXXXXXXXXXXXXXXXXXXXXXXXXXXXXXXXX  ",
"  XXXXXXXXXXXXXXXXXXXXXXXXXXXXXXXXXXXXXXXXXXXXXXXXXXXXXXXXXXXXXXXXXXXXXXXXXXXXXXXXXXXXXXXXXXXXXXXXXXXXXXXXXXXXXXXXXXXXXXXXXXXXXXXXXXXXXXXXXXXXXXXXXXXXXXXXXXXXXXXXXXXXXXXXXXXXXXXXXXXXXXXXXXXXXXXXXXXXXXXXXXXXXXXXXXXXXXXXXXXXXXXXXXXXXXXXXXXXXXXXXXXXXX  ",
"  XXXXXXXXXXXXXXXXXXXXXXXXXXXXXXXXXXXXXXXXXXXXXXXXXXXXXXXXXXXXXXXXXXXXXXXXXXXXXXXXXXXXXXXXXXXXXXXXXXXXXXXXXXXXXXXXXXXXXXXXXXXXXXXXXXXXXXXXXXXXXXXXXXXXXXXXXXXXXXXXXXXXXXXXXXXXXXXXXXXXXXXXXXXXXXXXXXXXXXXXXXXXXXXXXXXXXXXXXXXXXXXXXXXXXXXXXXXXXXXXXXXXXX  ",
"  XXXXXXXXXXXXXXXXXXXXXXXXXXXXXXXXXXXXXXXXXXXXXXXXXXXXXXXXXXXXXXXXXXXXXXXXXXXXXXXXXXXXXXXXXXXXXXXXXXXXXXXXXXXXXXXXXXXXXXXXXXXXXXXXXXXXXXXXXXXXXXXXXXXXXXXXXXXXXXXXXXXXXXXXXXXXXXXXXXXXXXXXXXXXXXXXXXXXXXXXXXXXXXXXXXXXXXXXXXXXXXXXXXXXXXXXXXXXXXXXXXXXXX  ",
"  XXXXXXXXXXXXXXXXXXXXXXXXXXXXXXXXXXXXXXXXXXXXXXXXXXXXXXXXXXXXXXXXXXXXXXXXXXXXXXXXXXXXXXXXXXXXXXXXXXXXXXXXXXXXXXXXXXXXXXXXXXXXXXXXXXXXXXXXXXXXXXXXXXXXXXXXXXXXXXXXXXXXXXXXXXXXXXXXXXXXXXXXXXXXXXXXXXXXXXXXXXXXXXXXXXXXXXXXXXXXXXXXXXXXXXXXXXXXXXXXXXXXXX  ",
"  XXXXXXXXXXXXXXXXXXXXXXXXXXXXXXXXXXXXXXXXXXXXXXXXXXXXXXXXXXXXXXXXXXXXXXXXXXXXXXXXXXXXXXXXXXXXXXXXXXXXXXXXXXXXXXXXXXXXXXXXXXXXXXXXXXXXXXXXXXXXXXXXXXXXXXXXXXXXXXXXXXXXXXXXXXXXXXXXXXXXXXXXXXXXXXXXXXXXXXXXXXXXXXXXXXXXXXXXXXXXXXXXXXXXXXXXXXXXXXXXXXXXXX  ",
"  XXXXXXXXXXXXXXXXXXXXXXXXXXXXXXXXXXXXXXXXXXXXXXXXXXXXXXXXXXXXXXXXXXXXXXXXXXXXXXXXXXXXXXXXXXXXXXXXXXXXXXXXXXXXXXXXXXXXXXXXXXXXXXXXXXXXXXXXXXXXXXXXXXXXXXXXXXXXXXXXXXXXXXXXXXXXXXXXXXXXXXXXXXXXXXXXXXXXXXXXXXXXXXXXXXXXXXXXXXXXXXXXXXXXXXXXXXXXXXXXXXXXXX  ",
"  XXXXXXXXXXXXXXXXXXXXXXXXXXXXXXXXXXXXXXXXXXXXXXXXXXXXXXXXXXXXXXXXXXXXXXXXXXXXXXXXXXXXXXXXXXXXXXXXXXXXXXXXXXXXXXXXXXXXXXXXXXXXXXXXXXXXXXXXXXXXXXXXXXXXXXXXXXXXXXXXXXXXXXXXXXXXXXXXXXXXXXXXXXXXXXXXXXXXXXXXXXXXXXXXXXXXXXXXXXXXXXXXXXXXXXXXXXXXXXXXXXXXXX  ",
"  XXXXXXXXXXXXXXXXXXXXXXXXXXXXXXXXXXXXXXXXXXXXXXXXXXXXXXXXXXXXXXXXXXXXXXXXXXXXXXXXXXXXXXXXXXXXXXXXXXXXXXXXXXXXXXXXXXXXXXXXXXXXXXXXXXXXXXXXXXXXXXXXXXXXXXXXXXXXXXXXXXXXXXXXXXXXXXXXXXXXXXXXXXXXXXXXXXXXXXXXXXXXXXXXXXXXXXXXXXXXXXXXXXXXXXXXXXXXXXXXXXXXXX  ",
"  XXXXXXXXXXXXXXXXXXXXXXXXXXXXXXXXXXXXXXXXXXXXXXXXXXXXXXXXXXXXXXXXXXXXXXXXXXXXXXXXXXXXXXXXXXXXXXXXXXXXXXXXXXXXXXXXXXXXXXXXXXXXXXXXXXXXXXXXXXXXXXXXXXXXXXXXXXXXXXXXXXXXXXXXXXXXXXXXXXXXXXXXXXXXXXXXXXXXXXXXXXXXXXXXXXXXXXXXXXXXXXXXXXXXXXXXXXXXXXXXXXXXXX  ",
"  XXXXXXXXXXX               XX              XXX     XXXXX     XX               XXXXXXXXXXXXX               XX               XXXXXXXXXXXXXXX               XX              XXX     XXXXX     XX               XX               XX            XXXXXXXXXXXX  ",
"  XXXXXXXXXXX ............. XX ............  XX ... XXXXX ... XX ............. XXXXXXXXXXXXX ............. XX ............. XXXXXXXXXXXXXXX ............. XX ............  XX ... XXXXX ... XX ............. XX ............. XX ........... XXXXXXXXXXX  ",
"  XXXXXXXXXXX ............. XX ............. XX ... XXXXX ... XX ............. XXXXXXXXXXXXX ............. XX ............. XXXXXXXXXXXXXXX ............. XX ............. XX ... XXXXX ... XX ............. XX ............. XX ............ XXXXXXXXXX  ",
"  XXXXXXXXXXX ............. XX ............. XX .... XXX .... XX ............. XXXXXXXXXXXXX ............. XX ............. XXXXXXXXXXXXXXX ............. XX ............. XX ... XXXXX ... XX ............. XX ............. XX ............. XXXXXXXXX  ",
"  XXXXXXXXXXX ...           XX ............. XX .... XXX .... XX ...           XXXXXXXXXXXXX      ...      XX ...           XXXXXXXXXXXXXXX ...      .... XX ............. XX ... XXXXX ... XX ...           XX ...           XX ...     ..... XXXXXXXXX  ",
"  XXXXXXXXXXX ... XXXXXXXXXXXX ...      .... XX .... XXX .... XX ... XXXXXXXXXXXXXXXXXXXXXXXXXXXX ... XXXXXXX ... XXXXXXXXXXXXXXXXXXXXXXXXX ... XXXXX ... XX ...      .... XX ... XXXXX ... XX ... XXXXXXXXXXXX ... XXXXXXXXXXXX ... XXXX .... XXXXXXXXX  ",
"  XXXXXXXXXXX ... XXXXXXXXXXXX ... XXXX  ... XX ..... X ..... XX ... XXXXXXXXXXXXXXXXXXXXXXXXXXXX ... XXXXXXX ... XXXXXXXXXXXXXXXXXXXXXXXXX ... XXXXX ... XX ... XXXX  ... XX ... XXXXX ... XX ... XXXXXXXXXXXX ... XXXXXXXXXXXX ... XXXXX ... XXXXXXXXX  ",
"  XXXXXXXXXXX ... XXXXXXXXXXXX ... XXXXX ... XX ..... X ..... XX ... XXXXXXXXXXXXXXXXXXXXXXXXXXXX ... XXXXXXX ... XXXXXXXXXXXXXXXXXXXXXXXXX ... XXXXX ... XX ... XXXXX ... XX ... XXXXX ... XX ... XXXXXXXXXXXX ... XXXXXXXXXXXX ... XXXXX ... XXXXXXXXX  ",
"  XXXXXXXXXXX ... XXXXXXXXXXXX ... XXXXX ... XX ..... X ..... XX ... XXXXXXXXXXXXXXXXXXXXXXXXXXXX ... XXXXXXX ... XXXXXXXXXXXXXXXXXXXXXXXXX ...      .... XX ... XXXXX ... XX ... XXXXX ... XX ... XXXXXXXXXXXX ... XXXXXXXXXXXX ... XXXXX ... XXXXXXXXX  ",
"  XXXXXXXXXXX ... XXXXXXXXXXXX ... XXXXX ... XX ...... ...... XX ... XXXXXXXXXXXXXXXXXXXXXXXXXXXX ... XXXXXXX ...           XXXXXXXXXXXXXXX ............. XX ... XXXXX ... XX ... XXXXX ... XX ...           XX ... XXXXXXXXXXXX ... XXXXX ... XXXXXXXXX  ",
"  XXXXXXXXXXX ... XXXXXXXXXXXX ... XXXXX ... XX ............. XX ...       XXXXXXXXXXXXXXXXXXXXXX ... XXXXXXX ............. XXXXXXXXXXXXXXX ............. XX ... XXXXX ... XX ... XXXXX ... XX ............. XX ...       XXXXXX ... XXXXX ... XXXXXXXXX  ",
"  XXXXXXXXXXX ... XXX       XX ...       ... XX ............. XX ......... XXXXXXXXXXXXXXXXXXXXXX ... XXXXXXX ............. XXXXXXXXXXXXXXX ............. XX ...       ... XX ... XXXXX ... XX ............. XX ......... XXXXXX ... XXXXX ... XXXXXXXXX  ",
"  XXXXXXXXXXX ... XXX ..... XX ............. XX ............. XX ......... XXXXXXXXXXXXXXXXXXXXXX ... XXXXXXX ............. XXXXXXXXXXXXXXX ...           XX ............. XX ... XXXXX ... XX ............. XX ......... XXXXXX ... XXXXX ... XXXXXXXXX  ",
"  XXXXXXXXXXX ... XXX ..... XX ............. XX ............. XX ......... XXXXXXXXXXXXXXXXXXXXXX ... XXXXXXX           ... XXXXXXXXXXXXXXX ... XXXXXXXXXXXX ............. XX ... XXXXX ... XX           ... XX ......... XXXXXX ... XXXXX ... XXXXXXXXX  ",
"  XXXXXXXXXXX ... XXX ..... XX ............. XX ............. XX ...       XXXXXXXXXXXXXXXXXXXXXX ... XXXXXXXXXXXXXXXXX ... XXXXXXXXXXXXXXX ... XXXXXXXXXXXX ............. XX ... XXXXX ... XXXXXXXXXXXX ... XX ...       XXXXXX ... XXXXX ... XXXXXXXXX  ",
"  XXXXXXXXXXX ... XXX   ... XX ...       ... XX ...  ...  ... XX ... XXXXXXXXXXXXXXXXXXXXXXXXXXXX ... XXXXXXXXXXXXXXXXX ... XXXXXXXXXXXXXXX ... XXXXXXXXXXXX ...       ... XX ... XXXXX ... XXXXXXXXXXXX ... XX ... XXXXXXXXXXXX ... XXXXX ... XXXXXXXXX  ",
"  XXXXXXXXXXX ... XXXXX ... XX ... XXXXX ... XX ... X . X ... XX ... XXXXXXXXXXXXXXXXXXXXXXXXXXXX ... XXXXXXXXXXXXXXXXX ... XXXXXXXXXXXXXXX ... XXXXXXXXXXXX ... XXXXX ... XX ... XXXXX ... XXXXXXXXXXXX ... XX ... XXXXXXXXXXXX ... XXXXX ... XXXXXXXXX  ",
"  XXXXXXXXXXX ... XXXXX ... XX ... XXXXX ... XX ... X . X ... XX ... XXXXXXXXXXXXXXXXXXXXXXXXXXXX ... XXXXXXXXXXXXXXXXX ... XXXXXXXXXXXXXXX ... XXXXXXXXXXXX ... XXXXX ... XX ... XXXXX ... XXXXXXXXXXXX ... XX ... XXXXXXXXXXXX ... XXXXX ... XXXXXXXXX  ",
"  XXXXXXXXXXX ... XXXXX ... XX ... XXXXX ... XX ... X . X ... XX ... XXXXXXXXXXXXXXXXXXXXXXXXXXXX ... XXXXXXXXXXXXXXXXX ... XXXXXXXXXXXXXXX ... XXXXXXXXXXXX ... XXXXX ... XX ... XXXXX ... XXXXXXXXXXXX ... XX ... XXXXXXXXXXXX ... XXXXX ... XXXXXXXXX  ",
"  XXXXXXXXXXX ... XXXXX ... XX ... XXXXX ... XX ... XX XX ... XX ... XXXXXXXXXXXXXXXXXXXXXXXXXXXX ... XXXXXXXXXXXXXXXXX ... XXXXXXXXXXXXXXX ... XXXXXXXXXXXX ... XXXXX ... XX ... XXXXX ... XXXXXXXXXXXX ... XX ... XXXXXXXXXXXX ... XXXXX ... XXXXXXXXX  ",
"  XXXXXXXXXXX ... XXXXX ... XX ... XXXXX ... XX ... XXXXX ... XX ... XXXXXXXXXXXXXXXXXXXXXXXXXXXX ... XXXXXXXXXXXXXXXXX ... XXXXXXXXXXXXXXX ... XXXXXXXXXXXX ... XXXXX ... XX ... XXXXX ... XXXXXXXXXXXX ... XX ... XXXXXXXXXXXX ... XXXX .... XXXXXXXXX  ",
"  XXXXXXXXXXX ...       ... XX ... XXXXX ... XX ... XXXXX ... XX ...           XXXXXXXXXXXXX      ...      XX           ... XXXXXXXXXXXXXXX ... XXXXXXXXXXXX ... XXXXX ... XX ...       ... XX           ... XX ...           XX ...     ..... XXXXXXXXX  ",
"  XXXXXXXXXXX ............. XX ... XXXXX ... XX ... XXXXX ... XX ............. XXXXXXXXXXXXX ............. XX ............. XXXXXXXXXXXXXXX ... XXXXXXXXXXXX ... XXXXX ... XX ............. XX ............. XX ............. XX ............. XXXXXXXXX  ",
"  XXXXXXXXXXX ............. XX ... XXXXX ... XX ... XXXXX ... XX ............. XXXXXXXXXXXXX ............. XX ............. XXXXXXXXXXXXXXX ... XXXXXXXXXXXX ... XXXXX ... XX ............. XX ............. XX ............. XX ............ XXXXXXXXXX  ",
"  XXXXXXXXXXX ............. XX ... XXXXX ... XX ... XXXXX ... XX ............. XXXXXXXXXXXXX ............. XX ............. XXXXXXXXXXXXXXX ... XXXXXXXXXXXX ... XXXXX ... XX ............. XX ............. XX ............. XX ........... XXXXXXXXXXX  ",
"  XXXXXXXXXXX               XX     XXXXX     XX     XXXXX     XX               XXXXXXXXXXXXX               XX               XXXXXXXXXXXXXXX     XXXXXXXXXXXX     XXXXX     XX               XX               XX               XX            XXXXXXXXXXXX  ",
"  XXXXXXXXXXXXXXXXXXXXXXXXXXXXXXXXXXXXXXXXXXXXXXXXXXXXXXXXXXXXXXXXXXXXXXXXXXXXXXXXXXXXXXXXXXXXXXXXXXXXXXXXXXXXXXXXXXXXXXXXXXXXXXXXXXXXXXXXXXXXXXXXXXXXXXXXXXXXXXXXXXXXXXXXXXXXXXXXXXXXXXXXXXXXXXXXXXXXXXXXXXXXXXXXXXXXXXXXXXXXXXXXXXXXXXXXXXXXXXXXXXXXXX  ",
"  XXXXXXXXXXXXXXXXXXXXXXXXXXXXXXXXXXXXXXXXXXXXXXXXXXXXXXXXXXXXXXXXXXXXXXXXXXXXXXXXXXXXXXXXXXXXXXXXXXXXXXXXXXXXXXXXXXXXXXXXXXXXXXXXXXXXXXXXXXXXXXXXXXXXXXXXXXXXXXXXXXXXXXXXXXXXXXXXXXXXXXXXXXXXXXXXXXXXXXXXXXXXXXXXXXXXXXXXXXXXXXXXXXXXXXXXXXXXXXXXXXXXXX  ",
"  XXXXXXXXXXXXXXXXXXXXXXXXXXXXXXXXXXXXXXXXXXXXXXXXXXXXXXXXXXXXXXXXXXXXXXXXXXXXXXXXXXXXXXXXXXXXXXXXXXXXXXXXXXXXXXXXXXXXXXXXXXXXXXXXXXXXXXXXXXXXXXXXXXXXXXXXXXXXXXXXXXXXXXXXXXXXXXXXXXXXXXXXXXXXXXXXXXXXXXXXXXXXXXXXXXXXXXXXXXXXXXXXXXXXXXXXXXXXXXXXXXXXXX  ",
"  XXXXXXXXXXXXXXXXXXXXXXXXXXXXXXXXXXXXXXXXXXXXXXXXXXXXXXXXXXXXXXXXXXXXXXXXXXXXXXXXXXXXXXXXXXXXXXXXXXXXXXXXXXXXXXXXXXXXXXXXXXXXXXXXXXXXXXXXXXXXXXXXXXXXXXXXXXXXXXXXXXXXXXXXXXXXXXXXXXXXXXXXXXXXXXXXXXXXXXXXXXXXXXXXXXXXXXXXXXXXXXXXXXXXXXXXXXXXXXXXXXXXXX  ",
"  XXXXXXXXXXXXXXXXXXXXXXXXXXXXXXXXXXXXXXXXXXXXXXXXXXXXXXXXXXXXXXXXXXXXXXXXXXXXXXXXXXXXXXXXXXXXXXXXXXXXXXXXXXXXXXXXXXXXXXXXXXXXXXXXXXXXXXXXXXXXXXXXXXXXXXXXXXXXXXXXXXXXXXXXXXXXXXXXXXXXXXXXXXXXXXXXXXXXXXXXXXXXXXXXXXXXXXXXXXXXXXXXXXXXXXXXXXXXXXXXXXXXXX  ",
"  XXXXXXXXXXXXXXXXXXXXXXXXXXXXXXXXXXXXXXXXXXXXXXXXXXXXXXXXXXXXXXXXXXXXXXXXXXXXXXXXXXXXXXXXXXXXXXXXXXXXXXXXXXXXXXXXXXXXXXXXXXXXXXXXXXXXXXXXXXXXXXXXXXXXXXXXXXXXXXXXXXXXXXXXXXXXXXXXXXXXXXXXXXXXXXXXXXXXXXXXXXXXXXXXXXXXXXXXXXXXXXXXXXXXXXXXXXXXXXXXXXXXXX  ",
"  XXXXXXXXXXXXXXXXXXXXXXXXXXXXXXXXXXXXXXXXXXXXXXXXXXXXXXXXXXXXXXXXXXXXXXXXXXXXXXXXXXXXXXXXXXXXXXXXXXXXXXXXXXXXXXXXXXXXXXXXXXXXXXXXXXXXXXXXXXXXXXXXXXXXXXXXXXXXXXXXXXXXXXXXXXXXXXXXXXXXXXXXXXXXXXXXXXXXXXXXXXXXXXXXXXXXXXXXXXXXXXXXXXXXXXXXXXXXXXXXXXXXXX  ",
"  XXXXXXXXXXXXXXXXXXXXXXXXXXXXXXXXXXXXXXXXXXXXXXXXXXXXXXXXXXXXXXXXXXXXXXXXXXXXXXXXXXXXXXXXXXXXXXXXXXXXXXXXXXXXXXXXXXXXXXXXXXXXXXXXXXXXXXXXXXXXXXXXXXXXXXXXXXXXXXXXXXXXXXXXXXXXXXXXXXXXXXXXXXXXXXXXXXXXXXXXXXXXXXXXXXXXXXXXXXXXXXXXXXXXXXXXXXXXXXXXXXXXXX  ",
"  XXXXXXXXXXXXXXXXXXXXXXXXXXXXXXXXXXXXXXXXXXXXXXXXXXXXXXXXXXXXXXXXXXXXXXXXXXXXXXXXXXXXXXXXXXXXXXXXXXXXXXXXXXXXXXXXXXXXXXXXXXXXXXXXXXXXXXXXXXXXXXXXXXXXXXXXXXXXXXXXXXXXXXXXXXXXXXXXXXXXXXXXXXXXXXXXXXXXXXXXXXXXXXXXXXXXXXXXXXXXXXXXXXXXXXXXXXXXXXXXXXXXXX  ",
"  XXXXXXXXXXXXXXXXXXXXXXXXXXXXXXXXXXXXXXXXXXXXXXXXXXXXXXXXXXXXXXXXXXXXXXXXXXXXXXXXXXXXXXXXXXXXXXXXXXXXXXXXXXXXXXXXXXXXXXXXXXXXXXXXXXXXXXXXXXXXXXXXXXXXXXXXXXXXXXXXXXXXXXXXXXXXXXXXXXXXXXXXXXXXXXXXXXXXXXXXXXXXXXXXXXXXXXXXXXXXXXXXXXXXXXXXXXXXXXXXXXXXXX  ",
"                                                                                                                                                                                                                                                          ",
"                                                                                                                                                                                                                                                          "
};
