/* XPM */
static char *help_button_xpm[] = {
/* columns rows colors chars-per-pixel */
"100 50 3 1 ",
"  c #000000",
"o c #FAA31E",
"+ c #FFFFFF",
/* pixels */
"                                                                                                    ",
"                                                                                                    ",
"  ++++++++++++++++++++++++++++++++++++++++++++++++++++++++++++++++++++++++++++++++++++++++++++++++  ",
"  ++++++++++++++++++++++++++++++++++++++++++++++++++++++++++++++++++++++++++++++++++++++++++++++++  ",
"  ++++++++++++++++++++++++++++++++++++++++++++++++++++++++++++++++++++++++++++++++++++++++++++++++  ",
"  ++++++++++++++++++++++++++++++++++++++++++++++++++++++++++++++++++++++++++++++++++++++++++++++++  ",
"  ++++++++++++++++++++++++++++++++++++++++++++++++++++++++++++++++++++++++++++++++++++++++++++++++  ",
"  ++++++++++++++++++++++++++++++++++++++++++++++++++++++++++++++++++++++++++++++++++++++++++++++++  ",
"  ++++++++++++++++++++++++++++++++++++++++++++++++++++++++++++++++++++++++++++++++++++++++++++++++  ",
"  ++++++++++++++++++++++++++++++++++++++++++++++++++++++++++++++++++++++++++++++++++++++++++++++++  ",
"  ++++++++++++++++++++++++++++++++++++++++++++++++++++++++++++++++++++++++++++++++++++++++++++++++  ",
"  ++++++++++++++++++++++++++++++++++++++++++++++++++++++++++++++++++++++++++++++++++++++++++++++++  ",
"  ++++++++     +++++     +++++++               ++++++++     +++++++++++++++               ++++++++  ",
"  ++++++++ ooo +++++ ooo +++++++ ooooooooooooo ++++++++ ooo +++++++++++++++ ooooooooooooo ++++++++  ",
"  ++++++++ ooo +++++ ooo +++++++ ooooooooooooo ++++++++ ooo +++++++++++++++ ooooooooooooo ++++++++  ",
"  ++++++++ ooo +++++ ooo +++++++ ooooooooooooo ++++++++ ooo +++++++++++++++ ooooooooooooo ++++++++  ",
"  ++++++++ ooo +++++ ooo +++++++ ooo           ++++++++ ooo +++++++++++++++ ooo      oooo ++++++++  ",
"  ++++++++ ooo +++++ ooo +++++++ ooo ++++++++++++++++++ ooo +++++++++++++++ ooo +++++ ooo ++++++++  ",
"  ++++++++ ooo +++++ ooo +++++++ ooo ++++++++++++++++++ ooo +++++++++++++++ ooo +++++ ooo ++++++++  ",
"  ++++++++ ooo +++++ ooo +++++++ ooo ++++++++++++++++++ ooo +++++++++++++++ ooo +++++ ooo ++++++++  ",
"  ++++++++ ooo +++++ ooo +++++++ ooo ++++++++++++++++++ ooo +++++++++++++++ ooo      oooo ++++++++  ",
"  ++++++++ ooo +++++ ooo +++++++ ooo ++++++++++++++++++ ooo +++++++++++++++ ooooooooooooo ++++++++  ",
"  ++++++++ ooo       ooo +++++++ ooo         ++++++++++ ooo +++++++++++++++ ooooooooooooo ++++++++  ",
"  ++++++++ ooooooooooooo +++++++ ooooooooooo ++++++++++ ooo +++++++++++++++ ooooooooooooo ++++++++  ",
"  ++++++++ ooooooooooooo +++++++ ooooooooooo ++++++++++ ooo +++++++++++++++ ooooooooooooo ++++++++  ",
"  ++++++++ ooooooooooooo +++++++ ooooooooooo ++++++++++ ooo +++++++++++++++ ooo           ++++++++  ",
"  ++++++++ ooo       ooo +++++++ ooo         ++++++++++ ooo +++++++++++++++ ooo ++++++++++++++++++  ",
"  ++++++++ ooo +++++ ooo +++++++ ooo ++++++++++++++++++ ooo +++++++++++++++ ooo ++++++++++++++++++  ",
"  ++++++++ ooo +++++ ooo +++++++ ooo ++++++++++++++++++ ooo +++++++++++++++ ooo ++++++++++++++++++  ",
"  ++++++++ ooo +++++ ooo +++++++ ooo ++++++++++++++++++ ooo +++++++++++++++ ooo ++++++++++++++++++  ",
"  ++++++++ ooo +++++ ooo +++++++ ooo ++++++++++++++++++ ooo +++++++++++++++ ooo ++++++++++++++++++  ",
"  ++++++++ ooo +++++ ooo +++++++ ooo ++++++++++++++++++ ooo +++++++++++++++ ooo ++++++++++++++++++  ",
"  ++++++++ ooo +++++ ooo +++++++ ooo           ++++++++ ooo           +++++ ooo ++++++++++++++++++  ",
"  ++++++++ ooo +++++ ooo +++++++ ooooooooooooo ++++++++ ooooooooooooo +++++ ooo ++++++++++++++++++  ",
"  ++++++++ ooo +++++ ooo +++++++ ooooooooooooo ++++++++ ooooooooooooo +++++ ooo ++++++++++++++++++  ",
"  ++++++++ ooo +++++ ooo +++++++ ooooooooooooo ++++++++ ooooooooooooo +++++ ooo ++++++++++++++++++  ",
"  ++++++++     +++++     +++++++               ++++++++               +++++     ++++++++++++++++++  ",
"  ++++++++++++++++++++++++++++++++++++++++++++++++++++++++++++++++++++++++++++++++++++++++++++++++  ",
"  ++++++++++++++++++++++++++++++++++++++++++++++++++++++++++++++++++++++++++++++++++++++++++++++++  ",
"  ++++++++++++++++++++++++++++++++++++++++++++++++++++++++++++++++++++++++++++++++++++++++++++++++  ",
"  ++++++++++++++++++++++++++++++++++++++++++++++++++++++++++++++++++++++++++++++++++++++++++++++++  ",
"  ++++++++++++++++++++++++++++++++++++++++++++++++++++++++++++++++++++++++++++++++++++++++++++++++  ",
"  ++++++++++++++++++++++++++++++++++++++++++++++++++++++++++++++++++++++++++++++++++++++++++++++++  ",
"  ++++++++++++++++++++++++++++++++++++++++++++++++++++++++++++++++++++++++++++++++++++++++++++++++  ",
"  ++++++++++++++++++++++++++++++++++++++++++++++++++++++++++++++++++++++++++++++++++++++++++++++++  ",
"  ++++++++++++++++++++++++++++++++++++++++++++++++++++++++++++++++++++++++++++++++++++++++++++++++  ",
"  ++++++++++++++++++++++++++++++++++++++++++++++++++++++++++++++++++++++++++++++++++++++++++++++++  ",
"  ++++++++++++++++++++++++++++++++++++++++++++++++++++++++++++++++++++++++++++++++++++++++++++++++  ",
"                                                                                                    ",
"                                                                                                    "
};
