/* XPM */
static char *menu_button_xpm[] = {
/* columns rows colors chars-per-pixel */
"100 50 4 1 ",
"  c #000000",
". c #020202",
"X c #21F40B",
"o c #FFFFFF",
/* pixels */
"                                                                                                    ",
"                             .......           .................................................... ",
"  oooooooooooooooooooooooooooooooooooooooooooooooooooooooooooooooooooooooooooooooooooooooooooooooo. ",
"  oooooooooooooooooooooooooooooooooooooooooooooooooooooooooooooooooooooooooooooooooooooooooooooooo. ",
"  oooooooooooooooooooooooooooooooooooooooooooooooooooooooooooooooooooooooooooooooooooooooooooooooo. ",
"  oooooooooooooooooooooooooooooooooooooooooooooooooooooooooooooooooooooooooooooooooooooooooooooooo. ",
"  oooooooooooooooooooooooooooooooooooooooooooooooooooooooooooooooooooooooooooooooooooooooooooooooo. ",
"  oooooooooooooooooooooooooooooooooooooooooooooooooooooooooooooooooooooooooooooooooooooooooooooooo. ",
"  oooooooooooooooooooooooooooooooooooooooooooooooooooooooooooooooooooooooooooooooooooooooooooooooo. ",
"  oooooooooooooooooooooooooooooooooooooooooooooooooooooooooooooooooooooooooooooooooooooooooooooooo. ",
"  oooooooooooooooooooooooooooooooooooooooooooooooooooooooooooooooooooooooooooooooooooooooooooooooo. ",
"  oooooooooooooooooooooooooooooooooooooooooooooooooooooooooooooooooooooooooooooooooooooooooooooooo. ",
"  ooooooooooo      oooo      oo               oo     oooooo     oo     oooooo     oooooooooooooooo. ",
"  ooooooooooo XXXX oooo XXXX oo XXXXXXXXXXXXX oo XXX oooooo XXX oo XXX oooooo XXX oooooooooooooooo. ",
"  ooooooooooo XXXX oooo XXXX oo XXXXXXXXXXXXX oo XXX oooooo XXX oo XXX oooooo XXX oooooooooooooooo. ",
"  ooooooooooo XXXX oooo XXXX oo XXXXXXXXXXXXX oo XXXX ooooo XXX oo XXX oooooo XXX oooooooooooooooo. ",
"  ooooooooooo XXXXX oo XXXXX oo XXX           oo XXXX ooooo XXX oo XXX oooooo XXX oooooooooooooooo. ",
"  ooooooooooo XXXXX oo XXXXX oo XXX oooooooooooo XXXXX oooo XXX oo XXX oooooo XXX oooooooooooooooo. ",
" .ooooooooooo XXXXX oo XXXXX oo XXX oooooooooooo XXXXX oooo XXX oo XXX oooooo XXX oooooooooooooooo. ",
" .ooooooooooo XXXXX oo XXXXX oo XXX oooooooooooo XXXXXX ooo XXX oo XXX oooooo XXX oooooooooooooooo. ",
" .ooooooooooo XXXXXX  XXXXXX oo XXX oooooooooooo XXXXXX ooo XXX oo XXX oooooo XXX oooooooooooooooo. ",
" .ooooooooooo XXXXXXXXXXXXXX oo XXX oooooooooooo XXXXXXX oo XXX oo XXX oooooo XXX oooooooooooooooo. ",
" .ooooooooooo XXXXXXXXXXXXXX oo XXX       oooooo XXXXXXX oo XXX oo XXX oooooo XXX oooooooooooooooo. ",
" .ooooooooooo XXXXXXXXXXXXXX oo XXXXXXXXX oooooo XXXXXXXX o XXX oo XXX oooooo XXX oooooooooooooooo. ",
" .ooooooooooo XXXXXXXXXXXXXX oo XXXXXXXXX oooooo XXXXXXXX o XXX oo XXX oooooo XXX oooooooooooooooo. ",
" .ooooooooooo XXXXXXXXXXXXXX oo XXXXXXXXX oooooo XXX  XXXX  XXX oo XXX oooooo XXX oooooooooooooooo. ",
" .ooooooooooo XXXXXXXXXXXXXX oo XXX       oooooo XXX o XXXX XXX oo XXX oooooo XXX oooooooooooooooo. ",
" .ooooooooooo XXX  XXXX  XXX oo XXX oooooooooooo XXX o XXXXXXXX oo XXX oooooo XXX oooooooooooooooo. ",
" .ooooooooooo XXX o XX o XXX oo XXX oooooooooooo XXX oo XXXXXXX oo XXX oooooo XXX oooooooooooooooo. ",
" .ooooooooooo XXX o XX o XXX oo XXX oooooooooooo XXX oo XXXXXXX oo XXX oooooo XXX oooooooooooooooo. ",
" .ooooooooooo XXX oo  oo XXX oo XXX oooooooooooo XXX ooo XXXXXX oo XXX oooooo XXX oooooooooooooooo. ",
" .ooooooooooo XXX oooooo XXX oo XXX oooooooooooo XXX ooo XXXXXX oo XXX oooooo XXX oooooooooooooooo. ",
" .ooooooooooo XXX oooooo XXX oo XXX oooooooooooo XXX oooo XXXXX oo XXX oooooo XXX oooooooooooooooo. ",
" .ooooooooooo XXX oooooo XXX oo XXX           oo XXX oooo XXXXX oo XXX        XXX oooooooooooooooo. ",
" .ooooooooooo XXX oooooo XXX oo XXXXXXXXXXXXX oo XXX ooooo XXXX oo XXXXXXXXXXXXXX oooooooooooooooo. ",
" .ooooooooooo XXX oooooo XXX oo XXXXXXXXXXXXX oo XXX ooooo  XXX oo XXXXXXXXXXXXXX oooooooooooooooo. ",
" .ooooooooooo XXX oooooo XXX oo XXXXXXXXXXXXX oo XXX oooooo XXX oo XXXXXXXXXXXXXX oooooooooooooooo. ",
" .ooooooooooo     oooooo     oo               oo     oooooo     oo                oooooooooooooooo. ",
" .oooooooooooooooooooooooooooooooooooooooooooooooooooooooooooooooooooooooooooooooooooooooooooooooo. ",
" .oooooooooooooooooooooooooooooooooooooooooooooooooooooooooooooooooooooooooooooooooooooooooooooooo. ",
" .oooooooooooooooooooooooooooooooooooooooooooooooooooooooooooooooooooooooooooooooooooooooooooooooo. ",
" .oooooooooooooooooooooooooooooooooooooooooooooooooooooooooooooooooooooooooooooooooooooooooooooooo. ",
" .oooooooooooooooooooooooooooooooooooooooooooooooooooooooooooooooooooooooooooooooooooooooooooooooo. ",
" .oooooooooooooooooooooooooooooooooooooooooooooooooooooooooooooooooooooooooooooooooooooooooooooooo. ",
" .oooooooooooooooooooooooooooooooooooooooooooooooooooooooooooooooooooooooooooooooooooooooooooooooo. ",
" .oooooooooooooooooooooooooooooooooooooooooooooooooooooooooooooooooooooooooooooooooooooooooooooooo. ",
" .oooooooooooooooooooooooooooooooooooooooooooooooooooooooooooooooooooooooooooooooooooooooooooooooo. ",
" .oooooooooooooooooooooooooooooooooooooooooooooooooooooooooooooooooooooooooooooooooooooooooooooooo. ",
" .................................................................................................. ",
"                                                                                                    "
};
