/* XPM */
static char *multiplayer_button_xpm[] = {
/* columns rows colors chars-per-pixel */
"100 50 4 1 ",
"  c #000000",
". c #020202",
"X c #95D2F0",
"o c #FFFFFF",
/* pixels */
"                                                                                                    ",
"                             .......           .................................................... ",
"  oooooooooooooooooooooooooooooooooooooooooooooooooooooooooooooooooooooooooooooooooooooooooooooooo. ",
"  oooooooooooooooooooooooooooooooooooooooooooooooooooooooooooooooooooooooooooooooooooooooooooooooo. ",
"  oooooooooooooooooooooooooooooooooooooooooooooooooooooooooooooooooooooooooooooooooooooooooooooooo. ",
"  oooooooooooooooooooooooooooooooooooooooooooooooooooooooooooooooooooooooooooooooooooooooooooooooo. ",
"  oooooooooooooooooooooooooooooooooooooooooooooooooooooooooooooooooooooooooooooooooooooooooooooooo. ",
"  oooooooooooooo      ooooo      ooo    oo    ooo    oooooooo          ooo          oooooooooooooo. ",
"  oooooooooooooo XXXXX ooo XXXXX ooo XX oo XX ooo XX oooooooo XXXXXXXX ooo XXXXXXXX oooooooooooooo. ",
"  oooooooooooooo XXXXX ooo XXXXX ooo XX oo XX ooo XX oooooooo XXXXXXXX ooo XXXXXXXX oooooooooooooo. ",
"  oooooooooooooo XXXXXX o XXXXXX ooo XX oo XX ooo XX oooooooo    XX    ooo    XX    oooooooooooooo. ",
"  oooooooooooooo XX  XXX XXX  XX ooo XX oo XX ooo XX ooooooooooo XX ooooooooo XX ooooooooooooooooo. ",
"  oooooooooooooo XX o XXXXX o XX ooo XX oo XX ooo XX ooooooooooo XX ooooooooo XX ooooooooooooooooo. ",
"  oooooooooooooo XX o XXXXX o XX ooo XX oo XX ooo XX ooooooooooo XX ooooooooo XX ooooooooooooooooo. ",
"  oooooooooooooo XX oo XXX oo XX ooo XX oo XX ooo XX ooooooooooo XX ooooooooo XX ooooooooooooooooo. ",
"  oooooooooooooo XX oo XXX oo XX ooo XX oo XX ooo XX ooooooooooo XX ooooooooo XX ooooooooooooooooo. ",
"  oooooooooooooo XX ooo X ooo XX ooo XX oo XX ooo XX ooooooooooo XX ooooooooo XX ooooooooooooooooo. ",
"  oooooooooooooo XX ooo X ooo XX ooo XX oo XX ooo XX ooooooooooo XX ooooooooo XX ooooooooooooooooo. ",
" .oooooooooooooo XX oooo oooo XX ooo XX    XX ooo XX       ooooo XX oooooo    XX    oooooooooooooo. ",
" .oooooooooooooo XX ooooooooo XX ooo XXXXXXXX ooo XXXXXXXX ooooo XX oooooo XXXXXXXX oooooooooooooo. ",
" .oooooooooooooo XX ooooooooo XX ooo XXXXXXXX ooo XXXXXXXX ooooo XX oooooo XXXXXXXX oooooooooooooo. ",
" .oooooooooooooo    ooooooooo    ooo          ooo          ooooo    oooooo          oooooooooooooo. ",
" .oooooooooooooooooooooooooooooooooooooooooooooooooooooooooooooooooooooooooooooooooooooooooooooooo. ",
" .oooooooooooooooooooooooooooooooooooooooooooooooooooooooooooooooooooooooooooooooooooooooooooooooo. ",
" .oooooooooooooooooooooooooooooooooooooooooooooooooooooooooooooooooooooooooooooooooooooooooooooooo. ",
" .oooooooooooooooooooooooooooooooooooooooooooooooooooooooooooooooooooooooooooooooooooooooooooooooo. ",
" .oooooooooooooooooooooooooooooooooooooooooooooooooooooooooooooooooooooooooooooooooooooooooooooooo. ",
" .oooooooooo          ooo    ooooooooo          ooo   oooo   ooo           ooo          oooooooooo. ",
" .oooooooooo XXXXXXXX ooo XX ooooooooo XXXXXXXX ooo XX oo XX ooo XXXXXXXXX ooo XXXXXXXX oooooooooo. ",
" .oooooooooo XXXXXXXX ooo XX ooooooooo XXXXXXXX ooo XX oo XX ooo XXXXXXXXX ooo XXXXXXXX oooooooooo. ",
" .oooooooooo XX   XXX ooo XX ooooooooo XX    XX ooo XX oo XX ooo XX        ooo XX    XX oooooooooo. ",
" .oooooooooo XX oo XX ooo XX ooooooooo XX oo XX ooo XXX  XXX ooo XX oooooooooo XX ooo X oooooooooo. ",
" .oooooooooo XX oo XX ooo XX ooooooooo XX oo XX oooo XXXXXX oooo XX     oooooo XX ooo X oooooooooo. ",
" .oooooooooo XX   XXX ooo XX ooooooooo XX    XX oooo XXXXXX oooo XXXXXX oooooo XX    XX oooooooooo. ",
" .oooooooooo XXXXXXXX ooo XX ooooooooo XXXXXXXX ooooo XXXX ooooo XXXXXX oooooo XXXXXXXX oooooooooo. ",
" .oooooooooo XXXXXXXX ooo XX ooooooooo XXXXXXXX oooooo XX oooooo XX     oooooo XXXXXXXX oooooooooo. ",
" .oooooooooo XX       ooo XX ooooooooo XX    XX oooooo XX oooooo XX oooooooooo XX  XXX ooooooooooo. ",
" .oooooooooo XX ooooooooo XX ooooooooo XX oo XX oooooo XX oooooo XX oooooooooo XX o XXX oooooooooo. ",
" .oooooooooo XX ooooooooo XX       ooo XX oo XX oooooo XX oooooo XX        ooo XX oo XX oooooooooo. ",
" .oooooooooo XX ooooooooo XXXXXXXX ooo XX oo XX oooooo XX oooooo XXXXXXXXX ooo XX oo XX oooooooooo. ",
" .oooooooooo XX ooooooooo XXXXXXXX ooo XX oo XX oooooo XX oooooo XXXXXXXXX ooo XX oo XX oooooooooo. ",
" .oooooooooo    ooooooooo          ooo    oo    oooooo    oooooo           ooo    oo    oooooooooo. ",
" .oooooooooooooooooooooooooooooooooooooooooooooooooooooooooooooooooooooooooooooooooooooooooooooooo. ",
" .oooooooooooooooooooooooooooooooooooooooooooooooooooooooooooooooooooooooooooooooooooooooooooooooo. ",
" .oooooooooooooooooooooooooooooooooooooooooooooooooooooooooooooooooooooooooooooooooooooooooooooooo. ",
" .oooooooooooooooooooooooooooooooooooooooooooooooooooooooooooooooooooooooooooooooooooooooooooooooo. ",
" .oooooooooooooooooooooooooooooooooooooooooooooooooooooooooooooooooooooooooooooooooooooooooooooooo. ",
" .oooooooooooooooooooooooooooooooooooooooooooooooooooooooooooooooooooooooooooooooooooooooooooooooo. ",
" .................................................................................................. ",
"                                                                                                    "
};
