/* XPM */
static char *name_xpm[] = {
/* columns rows colors chars-per-pixel */
"250 50 3 1 ",
"  c #000000",
". c #ED2024",
"X c #FFFFFF",
/* pixels */
"                                                                                                                                                                                                                                                          ",
"                                                                                                                                                                                                                                                          ",
"  XXXXXXXXXXXXXXXXXXXXXXXXXXXXXXXXXXXXXXXXXXXXXXXXXXXXXXXXXXXXXXXXXXXXXXXXXXXXXXXXXXXXXXXXXXXXXXXXXXXXXXXXXXXXXXXXXXXXXXXXXXXXXXXXXXXXXXXXXXXXXXXXXXXXXXXXXXXXXXXXXXXXXXXXXXXXXXXXXXXXXXXXXXXXXXXXXXXXXXXXXXXXXXXXXXXXXXXXXXXXXXXXXXXXXXXXXXXXXXXXXXXXXX  ",
"  XXXXXXXXXXXXXXXXXXXXXXXXXXXXXXXXXXXXXXXXXXXXXXXXXXXXXXXXXXXXXXXXXXXXXXXXXXXXXXXXXXXXXXXXXXXXXXXXXXXXXXXXXXXXXXXXXXXXXXXXXXXXXXXXXXXXXXXXXXXXXXXXXXXXXXXXXXXXXXXXXXXXXXXXXXXXXXXXXXXXXXXXXXXXXXXXXXXXXXXXXXXXXXXXXXXXXXXXXXXXXXXXXXXXXXXXXXXXXXXXXXXXXX  ",
"  XXXXXXXXXXXXXXXXXXXXXXXXXXXXXXXXXXXXXXXXXXXXXXXXXXXXXXXXXXXXXXXXXXXXXXXXXXXXXXXXXXXXXXXXXXXXXXXXXXXXXXXXXXXXXXXXXXXXXXXXXXXXXXXXXXXXXXXXXXXXXXXXXXXXXXXXXXXXXXXXXXXXXXXXXXXXXXXXXXXXXXXXXXXXXXXXXXXXXXXXXXXXXXXXXXXXXXXXXXXXXXXXXXXXXXXXXXXXXXXXXXXXXX  ",
"  XXXXXXXXXXXXXXXXXXXXXXXXXXXXXXXXXXXXXXXXXXXXXXXXXXXXXXXXXXXXXXXXXXXXXXXXXXXXXXXXXXXXXXXXXXXXXXXXXXXXXXXXXXXXXXXXXXXXXXXXXXXXXXXXXXXXXXXXXXXXXXXXXXXXXXXXXXXXXXXXXXXXXXXXXXXXXXXXXXXXXXXXXXXXXXXXXXXXXXXXXXXXXXXXXXXXXXXXXXXXXXXXXXXXXXXXXXXXXXXXXXXXXX  ",
"  XXXXXXXXXXXXXXXXXXXXXXXXXXXXXXXXXXXXXXXXXXXXXXXXXXXXXXXXXXXXXXXXXXXXXXXXXXXXXXXXXXXXXXXXXXXXXXXXXXXXXXXXXXXXXXXXXXXXXXXXXXXXXXXXXXXXXXXXXXXXXXXXXXXXXXXXXXXXXXXXXXXXXXXXXXXXXXXXXXXXXXXXXXXXXXXXXXXXXXXXXXXXXXXXXXXXXXXXXXXXXXXXXXXXXXXXXXXXXXXXXXXXXX  ",
"  XXXXXXXXXXXXXXXXXXXXXXXXXXXXXXXXXXXXXXXXXXXXXXXXXXXXXXXXXXXXXXXXXXXXXXXXXXXXXXXXXXXXXXXXXXXXXXXXXXXXXXXXXXXXXXXXXXXXXXXXXXXXXXXXXXXXXXXXXXXXXXXXXXXXXXXXXXXXXXXXXXXXXXXXXXXXXXXXXXXXXXXXXXXXXXXXXXXXXXXXXXXXXXXXXXXXXXXXXXXXXXXXXXXXXXXXXXXXXXXXXXXXXX  ",
"  XXXXXXXXXXXXXXXXXXXXXXXXXXXXXXXXXXXXXXXXXXXXXXXXXXXXXXXXXXXXXXXXXXXXXXXXXXXXXXXXXXXXXXXXXXXXXXXXXXXXXXXXXXXXXXXXXXXXXXXXXXXXXXXXXXXXXXXXXXXXXXXXXXXXXXXXXXXXXXXXXXXXXXXXXXXXXXXXXXXXXXXXXXXXXXXXXXXXXXXXXXXXXXXXXXXXXXXXXXXXXXXXXXXXXXXXXXXXXXXXXXXXXX  ",
"  XXXXXXXXXXXXXXXXXXXXXXXXXXXXXXXXXXXXXXXXXXXXXXXXXXXXXXXXXXXXXXXXXXXXXXXXXXXXXXXXXXXXXXXXXXXXXXXXXXXXXXXXXXXXXXXXXXXXXXXXXXXXXXXXXXXXXXXXXXXXXXXXXXXXXXXXXXXXXXXXXXXXXXXXXXXXXXXXXXXXXXXXXXXXXXXXXXXXXXXXXXXXXXXXXXXXXXXXXXXXXXXXXXXXXXXXXXXXXXXXXXXXXX  ",
"  XXXXXXXXXXXXXXXXXXXXXXXXXXXXXXXXXXXXXXXXXXXXXXXXXXXXXXXXXXXXXXXXXXXXXXXXXXXXXXXXXXXXXXXXXXXXXXXXXXXXXXXXXXXXXXXXXXXXXXXXXXXXXXXXXXXXXXXXXXXXXXXXXXXXXXXXXXXXXXXXXXXXXXXXXXXXXXXXXXXXXXXXXXXXXXXXXXXXXXXXXXXXXXXXXXXXXXXXXXXXXXXXXXXXXXXXXXXXXXXXXXXXXX  ",
"  XXXXXXXXXXXXXXXXXXXXXXXXXXXXXXXXXXXXXXXXXXXXXXXXXXXXXXXXXXXXXXXXXXXXXXXXXXXXXXXXXXXXXXXXXXXXXXXXXXXXXXXXXXXXXXXXXXXXXXXXXXXXXXXXXXXXXXXXXXXXXXXXXXXXXXXXXXXXXXXXXXXXXXXXXXXXXXXXXXXXXXXXXXXXXXXXXXXXXXXXXXXXXXXXXXXXXXXXXXXXXXXXXXXXXXXXXXXXXXXXXXXXXX  ",
"  XXXXXXXXXXXXXXXXXXXXXX               XXX              XXX               XX               XX     XXXXXXXXXXXX               XXXXXXXXXXXXXXXXX               XX     XXXXXXXXXXXX              XXX               XX     XXXXX     XXXXXXXXXXXXXXXXXXXXXXX  ",
"  XXXXXXXXXXXXXXXXXXXXXX ............. XXX ............  XX ............. XX ............. XX ... XXXXXXXXXXXX ............. XXXXXXXXXXXXXXXXX ............. XX ... XXXXXXXXXXXX ............  XX ............. XX ... XXXXX ... XXXXXXXXXXXXXXXXXXXXXXX  ",
"  XXXXXXXXXXXXXXXXXXXXXX ............. XXX ............. XX ............. XX ............. XX ... XXXXXXXXXXXX ............. XXXXXXXXXXXXXXXXX ............. XX ... XXXXXXXXXXXX ............. XX ............. XX ... XXXXX ... XXXXXXXXXXXXXXXXXXXXXXX  ",
"  XXXXXXXXXXXXXXXXXXXXXX ............. XXX ............. XX ............. XX ............. XX ... XXXXXXXXXXXX ............. XXXXXXXXXXXXXXXXX ............. XX ... XXXXXXXXXXXX ............. XX ............. XX ... XXXXX ... XXXXXXXXXXXXXXXXXXXXXXX  ",
"  XXXXXXXXXXXXXXXXXXXXXX ...           XXX ............. XX ...           XX      ...      XX ... XXXXXXXXXXXX ...           XXXXXXXXXXXXXXXXX ...           XX ... XXXXXXXXXXXX ............. XX ...           XX ... XXXXX ... XXXXXXXXXXXXXXXXXXXXXXX  ",
"  XXXXXXXXXXXXXXXXXXXXXX ... XXXXXXXXXXXXX ...      .... XX ... XXXXXXXXXXXXXXXXX ... XXXXXXX ... XXXXXXXXXXXX ... XXXXXXXXXXXXXXXXXXXXXXXXXXX ... XXXXXXXXXXXX ... XXXXXXXXXXXX ...      .... XX ... XXXXXXXXXXXX ... XXXXX ... XXXXXXXXXXXXXXXXXXXXXXX  ",
"  XXXXXXXXXXXXXXXXXXXXXX ... XXXXXXXXXXXXX ... XXXX  ... XX ... XXXXXXXXXXXXXXXXX ... XXXXXXX ... XXXXXXXXXXXX ... XXXXXXXXXXXXXXXXXXXXXXXXXXX ... XXXXXXXXXXXX ... XXXXXXXXXXXX ... XXXX  ... XX ... XXXXXXXXXXXX ... XXXXX ... XXXXXXXXXXXXXXXXXXXXXXX  ",
"  XXXXXXXXXXXXXXXXXXXXXX ... XXXXXXXXXXXXX ... XXXXX ... XX ... XXXXXXXXXXXXXXXXX ... XXXXXXX ... XXXXXXXXXXXX ... XXXXXXXXXXXXXXXXXXXXXXXXXXX ... XXXXXXXXXXXX ... XXXXXXXXXXXX ... XXXXX ... XX ... XXXXXXXXXXXX ... XXXXX ... XXXXXXXXXXXXXXXXXXXXXXX  ",
"  XXXXXXXXXXXXXXXXXXXXXX ... XXXXXXXXXXXXX ... XXXXX ... XX ... XXXXXXXXXXXXXXXXX ... XXXXXXX ... XXXXXXXXXXXX ... XXXXXXXXXXXXXXXXXXXXXXXXXXX ... XXXXXXXXXXXX ... XXXXXXXXXXXX ... XXXXX ... XX ... XXXXXXXXXXXX ... XXXXX ... XXXXXXXXXXXXXXXXXXXXXXX  ",
"  XXXXXXXXXXXXXXXXXXXXXX ... XXXXXXXXXXXXX ... XXXXX ... XX ... XXXXXXXXXXXXXXXXX ... XXXXXXX ... XXXXXXXXXXXX ... XXXXXXXXXXXXXXXXXXXXXXXXXXX ... XXXXXXXXXXXX ... XXXXXXXXXXXX ... XXXXX ... XX ... XXXXXXXXXXXX ... XXXXX ... XXXXXXXXXXXXXXXXXXXXXXX  ",
"  XXXXXXXXXXXXXXXXXXXXXX ... XXXXXXXXXXXXX ... XXXXX ... XX ... XXXXXXXXXXXXXXXXX ... XXXXXXX ... XXXXXXXXXXXX ...       XXXXXXXXXXXXXXXXXXXXX ... XXXXXXXXXXXX ... XXXXXXXXXXXX ... XXXXX ... XX ... XXXXXXXXXXXX ...       ... XXXXXXXXXXXXXXXXXXXXXXX  ",
"  XXXXXXXXXXXXXXXXXXXXXX ... XXXXXXXXXXXXX ...       ... XX ...           XXXXXXX ... XXXXXXX ... XXXXXXXXXXXX ......... XXXXXXXXXXXXXXXXXXXXX ... XXXXXXXXXXXX ... XXXXXXXXXXXX ...       ... XX ...           XX ............. XXXXXXXXXXXXXXXXXXXXXXX  ",
"  XXXXXXXXXXXXXXXXXXXXXX ... XXXXXXXXXXXXX ............. XX ............. XXXXXXX ... XXXXXXX ... XXXXXXXXXXXX ......... XXXXXXXXXXXXXXXXXXXXX ... XXXXXXXXXXXX ... XXXXXXXXXXXX ............. XX ............. XX ............. XXXXXXXXXXXXXXXXXXXXXXX  ",
"  XXXXXXXXXXXXXXXXXXXXXX ... XXXXXXXXXXXXX ............. XX ............. XXXXXXX ... XXXXXXX ... XXXXXXXXXXXX ......... XXXXXXXXXXXXXXXXXXXXX ... XXXXXXXXXXXX ... XXXXXXXXXXXX ............. XX ............. XX ............. XXXXXXXXXXXXXXXXXXXXXXX  ",
"  XXXXXXXXXXXXXXXXXXXXXX ... XXXXXXXXXXXXX ............. XX ............. XXXXXXX ... XXXXXXX ... XXXXXXXXXXXX ...       XXXXXXXXXXXXXXXXXXXXX ... XXXXXXXXXXXX ... XXXXXXXXXXXX ............. XX ............. XX ...       ... XXXXXXXXXXXXXXXXXXXXXXX  ",
"  XXXXXXXXXXXXXXXXXXXXXX ... XXXXXXXXXXXXX ...       ... XX           ... XXXXXXX ... XXXXXXX ... XXXXXXXXXXXX ... XXXXXXXXXXXXXXXXXXXXXXXXXXX ... XXXXXXXXXXXX ... XXXXXXXXXXXX ...       ... XX           ... XX ... XXXXX ... XXXXXXXXXXXXXXXXXXXXXXX  ",
"  XXXXXXXXXXXXXXXXXXXXXX ... XXXXXXXXXXXXX ... XXXXX ... XXXXXXXXXXXX ... XXXXXXX ... XXXXXXX ... XXXXXXXXXXXX ... XXXXXXXXXXXXXXXXXXXXXXXXXXX ... XXXXXXXXXXXX ... XXXXXXXXXXXX ... XXXXX ... XXXXXXXXXXXX ... XX ... XXXXX ... XXXXXXXXXXXXXXXXXXXXXXX  ",
"  XXXXXXXXXXXXXXXXXXXXXX ... XXXXXXXXXXXXX ... XXXXX ... XXXXXXXXXXXX ... XXXXXXX ... XXXXXXX ... XXXXXXXXXXXX ... XXXXXXXXXXXXXXXXXXXXXXXXXXX ... XXXXXXXXXXXX ... XXXXXXXXXXXX ... XXXXX ... XXXXXXXXXXXX ... XX ... XXXXX ... XXXXXXXXXXXXXXXXXXXXXXX  ",
"  XXXXXXXXXXXXXXXXXXXXXX ... XXXXXXXXXXXXX ... XXXXX ... XXXXXXXXXXXX ... XXXXXXX ... XXXXXXX ... XXXXXXXXXXXX ... XXXXXXXXXXXXXXXXXXXXXXXXXXX ... XXXXXXXXXXXX ... XXXXXXXXXXXX ... XXXXX ... XXXXXXXXXXXX ... XX ... XXXXX ... XXXXXXXXXXXXXXXXXXXXXXX  ",
"  XXXXXXXXXXXXXXXXXXXXXX ... XXXXXXXXXXXXX ... XXXXX ... XXXXXXXXXXXX ... XXXXXXX ... XXXXXXX ... XXXXXXXXXXXX ... XXXXXXXXXXXXXXXXXXXXXXXXXXX ... XXXXXXXXXXXX ... XXXXXXXXXXXX ... XXXXX ... XXXXXXXXXXXX ... XX ... XXXXX ... XXXXXXXXXXXXXXXXXXXXXXX  ",
"  XXXXXXXXXXXXXXXXXXXXXX ... XXXXXXXXXXXXX ... XXXXX ... XXXXXXXXXXXX ... XXXXXXX ... XXXXXXX ... XXXXXXXXXXXX ... XXXXXXXXXXXXXXXXXXXXXXXXXXX ... XXXXXXXXXXXX ... XXXXXXXXXXXX ... XXXXX ... XXXXXXXXXXXX ... XX ... XXXXX ... XXXXXXXXXXXXXXXXXXXXXXX  ",
"  XXXXXXXXXXXXXXXXXXXXXX ...           XXX ... XXXXX ... XX           ... XXXXXXX ... XXXXXXX ...           XX ...           XXXXXXXXXXXXXXXXX ...           XX ...           XX ... XXXXX ... XX           ... XX ... XXXXX ... XXXXXXXXXXXXXXXXXXXXXXX  ",
"  XXXXXXXXXXXXXXXXXXXXXX ............. XXX ... XXXXX ... XX ............. XXXXXXX ... XXXXXXX ............. XX ............. XXXXXXXXXXXXXXXXX ............. XX ............. XX ... XXXXX ... XX ............. XX ... XXXXX ... XXXXXXXXXXXXXXXXXXXXXXX  ",
"  XXXXXXXXXXXXXXXXXXXXXX ............. XXX ... XXXXX ... XX ............. XXXXXXX ... XXXXXXX ............. XX ............. XXXXXXXXXXXXXXXXX ............. XX ............. XX ... XXXXX ... XX ............. XX ... XXXXX ... XXXXXXXXXXXXXXXXXXXXXXX  ",
"  XXXXXXXXXXXXXXXXXXXXXX ............. XXX ... XXXXX ... XX ............. XXXXXXX ... XXXXXXX ............. XX ............. XXXXXXXXXXXXXXXXX ............. XX ............. XX ... XXXXX ... XX ............. XX ... XXXXX ... XXXXXXXXXXXXXXXXXXXXXXX  ",
"  XXXXXXXXXXXXXXXXXXXXXX               XXX     XXXXX     XX               XXXXXXX     XXXXXXX               XX               XXXXXXXXXXXXXXXXX               XX               XX     XXXXX     XX               XX     XXXXX     XXXXXXXXXXXXXXXXXXXXXXX  ",
"  XXXXXXXXXXXXXXXXXXXXXXXXXXXXXXXXXXXXXXXXXXXXXXXXXXXXXXXXXXXXXXXXXXXXXXXXXXXXXXXXXXXXXXXXXXXXXXXXXXXXXXXXXXXXXXXXXXXXXXXXXXXXXXXXXXXXXXXXXXXXXXXXXXXXXXXXXXXXXXXXXXXXXXXXXXXXXXXXXXXXXXXXXXXXXXXXXXXXXXXXXXXXXXXXXXXXXXXXXXXXXXXXXXXXXXXXXXXXXXXXXXXXXX  ",
"  XXXXXXXXXXXXXXXXXXXXXXXXXXXXXXXXXXXXXXXXXXXXXXXXXXXXXXXXXXXXXXXXXXXXXXXXXXXXXXXXXXXXXXXXXXXXXXXXXXXXXXXXXXXXXXXXXXXXXXXXXXXXXXXXXXXXXXXXXXXXXXXXXXXXXXXXXXXXXXXXXXXXXXXXXXXXXXXXXXXXXXXXXXXXXXXXXXXXXXXXXXXXXXXXXXXXXXXXXXXXXXXXXXXXXXXXXXXXXXXXXXXXXX  ",
"  XXXXXXXXXXXXXXXXXXXXXXXXXXXXXXXXXXXXXXXXXXXXXXXXXXXXXXXXXXXXXXXXXXXXXXXXXXXXXXXXXXXXXXXXXXXXXXXXXXXXXXXXXXXXXXXXXXXXXXXXXXXXXXXXXXXXXXXXXXXXXXXXXXXXXXXXXXXXXXXXXXXXXXXXXXXXXXXXXXXXXXXXXXXXXXXXXXXXXXXXXXXXXXXXXXXXXXXXXXXXXXXXXXXXXXXXXXXXXXXXXXXXXX  ",
"  XXXXXXXXXXXXXXXXXXXXXXXXXXXXXXXXXXXXXXXXXXXXXXXXXXXXXXXXXXXXXXXXXXXXXXXXXXXXXXXXXXXXXXXXXXXXXXXXXXXXXXXXXXXXXXXXXXXXXXXXXXXXXXXXXXXXXXXXXXXXXXXXXXXXXXXXXXXXXXXXXXXXXXXXXXXXXXXXXXXXXXXXXXXXXXXXXXXXXXXXXXXXXXXXXXXXXXXXXXXXXXXXXXXXXXXXXXXXXXXXXXXXXX  ",
"  XXXXXXXXXXXXXXXXXXXXXXXXXXXXXXXXXXXXXXXXXXXXXXXXXXXXXXXXXXXXXXXXXXXXXXXXXXXXXXXXXXXXXXXXXXXXXXXXXXXXXXXXXXXXXXXXXXXXXXXXXXXXXXXXXXXXXXXXXXXXXXXXXXXXXXXXXXXXXXXXXXXXXXXXXXXXXXXXXXXXXXXXXXXXXXXXXXXXXXXXXXXXXXXXXXXXXXXXXXXXXXXXXXXXXXXXXXXXXXXXXXXXXX  ",
"  XXXXXXXXXXXXXXXXXXXXXXXXXXXXXXXXXXXXXXXXXXXXXXXXXXXXXXXXXXXXXXXXXXXXXXXXXXXXXXXXXXXXXXXXXXXXXXXXXXXXXXXXXXXXXXXXXXXXXXXXXXXXXXXXXXXXXXXXXXXXXXXXXXXXXXXXXXXXXXXXXXXXXXXXXXXXXXXXXXXXXXXXXXXXXXXXXXXXXXXXXXXXXXXXXXXXXXXXXXXXXXXXXXXXXXXXXXXXXXXXXXXXXX  ",
"  XXXXXXXXXXXXXXXXXXXXXXXXXXXXXXXXXXXXXXXXXXXXXXXXXXXXXXXXXXXXXXXXXXXXXXXXXXXXXXXXXXXXXXXXXXXXXXXXXXXXXXXXXXXXXXXXXXXXXXXXXXXXXXXXXXXXXXXXXXXXXXXXXXXXXXXXXXXXXXXXXXXXXXXXXXXXXXXXXXXXXXXXXXXXXXXXXXXXXXXXXXXXXXXXXXXXXXXXXXXXXXXXXXXXXXXXXXXXXXXXXXXXXX  ",
"  XXXXXXXXXXXXXXXXXXXXXXXXXXXXXXXXXXXXXXXXXXXXXXXXXXXXXXXXXXXXXXXXXXXXXXXXXXXXXXXXXXXXXXXXXXXXXXXXXXXXXXXXXXXXXXXXXXXXXXXXXXXXXXXXXXXXXXXXXXXXXXXXXXXXXXXXXXXXXXXXXXXXXXXXXXXXXXXXXXXXXXXXXXXXXXXXXXXXXXXXXXXXXXXXXXXXXXXXXXXXXXXXXXXXXXXXXXXXXXXXXXXXXX  ",
"  XXXXXXXXXXXXXXXXXXXXXXXXXXXXXXXXXXXXXXXXXXXXXXXXXXXXXXXXXXXXXXXXXXXXXXXXXXXXXXXXXXXXXXXXXXXXXXXXXXXXXXXXXXXXXXXXXXXXXXXXXXXXXXXXXXXXXXXXXXXXXXXXXXXXXXXXXXXXXXXXXXXXXXXXXXXXXXXXXXXXXXXXXXXXXXXXXXXXXXXXXXXXXXXXXXXXXXXXXXXXXXXXXXXXXXXXXXXXXXXXXXXXXX  ",
"  XXXXXXXXXXXXXXXXXXXXXXXXXXXXXXXXXXXXXXXXXXXXXXXXXXXXXXXXXXXXXXXXXXXXXXXXXXXXXXXXXXXXXXXXXXXXXXXXXXXXXXXXXXXXXXXXXXXXXXXXXXXXXXXXXXXXXXXXXXXXXXXXXXXXXXXXXXXXXXXXXXXXXXXXXXXXXXXXXXXXXXXXXXXXXXXXXXXXXXXXXXXXXXXXXXXXXXXXXXXXXXXXXXXXXXXXXXXXXXXXXXXXXX  ",
"                                                                                                                                                                                                                                                          ",
"                                                                                                                                                                                                                                                          "
};
