/* XPM */
static char *play_button_xpm[] = {
/* columns rows colors chars-per-pixel */
"100 50 3 1 ",
"  c #000000",
"+ c #F7EC22",
"@ c #FFFFFF",
/* pixels */
"                                                                                                    ",
"                                                                                                    ",                                    
"  @@@@@@@@@@@@@@@@@@@@@@@@@@@@@@@@@@@@@@@@@@@@@@@@@@@@@@@@@@@@@@@@@@@@@@@@@@@@@@@@@@@@@@@@@@@@@@@@  ",
"  @@@@@@@@@@@@@@@@@@@@@@@@@@@@@@@@@@@@@@@@@@@@@@@@@@@@@@@@@@@@@@@@@@@@@@@@@@@@@@@@@@@@@@@@@@@@@@@@  ",
"  @@@@@@@@@@@@@@@@@@@@@@@@@@@@@@@@@@@@@@@@@@@@@@@@@@@@@@@@@@@@@@@@@@@@@@@@@@@@@@@@@@@@@@@@@@@@@@@@  ",
"  @@@@@@@@@@@@@@@@@@@@@@@@@@@@@@@@@@@@@@@@@@@@@@@@@@@@@@@@@@@@@@@@@@@@@@@@@@@@@@@@@@@@@@@@@@@@@@@@  ",
"  @@@@@@@@@@@@@@@@@@@@@@@@@@@@@@@@@@@@@@@@@@@@@@@@@@@@@@@@@@@@@@@@@@@@@@@@@@@@@@@@@@@@@@@@@@@@@@@@  ",
"  @@@@@@@@@@@@@@@@@@@@@@@@@@@@@@@@@@@@@@@@@@@@@@@@@@@@@@@@@@@@@@@@@@@@@@@@@@@@@@@@@@@@@@@@@@@@@@@@  ",
"  @@@@@@@@@@@@@@@@@@@@@@@@@@@@@@@@@@@@@@@@@@@@@@@@@@@@@@@@@@@@@@@@@@@@@@@@@@@@@@@@@@@@@@@@@@@@@@@@  ",
"  @@@@@@@@@@@@@@@@@@@@@@@@@@@@@@@@@@@@@@@@@@@@@@@@@@@@@@@@@@@@@@@@@@@@@@@@@@@@@@@@@@@@@@@@@@@@@@@@  ",
"  @@@@@@@@@@@@@@@@@@@@@@@@@@@@@@@@@@@@@@@@@@@@@@@@@@@@@@@@@@@@@@@@@@@@@@@@@@@@@@@@@@@@@@@@@@@@@@@@  ",
"  @@@@@@@@@@@@@@@@@@@@@@@@@@@@@@@@@@@@@@@@@@@@@@@@@@@@@@@@@@@@@@@@@@@@@@@@@@@@@@@@@@@@@@@@@@@@@@@@  ",
"  @@@@@@@@@@@@@@@@@@@@@@@@@@@@@@@@@@@@@@@@@@@@@@@@@@@@@@@@@@@@@@@@@@@@@@@@@@@@@@@@@@@@@@@@@@@@@@@@  ",
"  @@@@@@@               @@@@@@     @@@@@@@@@@@@@@@@@               @@@@@@@@    @@@@@@@    @@@@@@@@  ",
"  @@@@@@@ +++++++++++++ @@@@@@ +++ @@@@@@@@@@@@@@@@@ +++++++++++++ @@@@@@@@ +++ @@@@@ +++ @@@@@@@@  ",
"  @@@@@@@ +++++++++++++ @@@@@@ +++ @@@@@@@@@@@@@@@@@ +++++++++++++ @@@@@@@@ ++++ @@@ ++++ @@@@@@@@  ",
"  @@@@@@@ +++++++++++++ @@@@@@ +++ @@@@@@@@@@@@@@@@@ +++++++++++++ @@@@@@@@@ +++ @@@ +++ @@@@@@@@@  ",
"  @@@@@@@ +++      ++++ @@@@@@ +++ @@@@@@@@@@@@@@@@@ ++++     ++++ @@@@@@@@@ +++ @@@ +++ @@@@@@@@@  ",
"  @@@@@@@ +++ @@@@@ +++ @@@@@@ +++ @@@@@@@@@@@@@@@@@ +++ @@@@@ +++ @@@@@@@@@ ++++ @ ++++ @@@@@@@@@  ",
"  @@@@@@@ +++ @@@@@ +++ @@@@@@ +++ @@@@@@@@@@@@@@@@@ +++ @@@@@ +++ @@@@@@@@@@ +++ @ +++ @@@@@@@@@@  ",
"  @@@@@@@ +++ @@@@@ +++ @@@@@@ +++ @@@@@@@@@@@@@@@@@ +++ @@@@@ +++ @@@@@@@@@@ +++ @ +++ @@@@@@@@@@  ",
"  @@@@@@@ +++      ++++ @@@@@@ +++ @@@@@@@@@@@@@@@@@ ++  @@@@@ +++ @@@@@@@@@@@ +++ +++ @@@@@@@@@@@  ",
"  @@@@@@@ +++++++++++++ @@@@@@ +++ @@@@@@@@@@@@@@@@@ ++++     ++++ @@@@@@@@@@@ +++++++ @@@@@@@@@@@  ",
"  @@@@@@@ +++++++++++++ @@@@@@ +++ @@@@@@@@@@@@@@@@@ +++++++++++++ @@@@@@@@@@@ +++++++ @@@@@@@@@@@  ",
"  @@@@@@@ +++++++++++++ @@@@@@ +++ @@@@@@@@@@@@@@@@@ +++++++++++++ @@@@@@@@@@@@ +++++ @@@@@@@@@@@@  ",
"  @@@@@@@ +++           @@@@@@ +++ @@@@@@@@@@@@@@@@@ +++++++++++++ @@@@@@@@@@@@ +++++ @@@@@@@@@@@@  ",
"  @@@@@@@ +++ @@@@@@@@@@@@@@@@ +++ @@@@@@@@@@@@@@@@@ +++       +++ @@@@@@@@@@@@ +++++ @@@@@@@@@@@@  ",
"  @@@@@@@ +++ @@@@@@@@@@@@@@@@ +++ @@@@@@@@@@@@@@@@@ +++ @@@@@ +++ @@@@@@@@@@@@@ +++ @@@@@@@@@@@@@  ",
"  @@@@@@@ +++ @@@@@@@@@@@@@@@@ +++ @@@@@@@@@@@@@@@@@ +++ @@@@@ +++ @@@@@@@@@@@@@ +++ @@@@@@@@@@@@@  ",
"  @@@@@@@ +++ @@@@@@@@@@@@@@@@ +++ @@@@@@@@@@@@@@@@@ +++ @@@@@ +++ @@@@@@@@@@@@@ +++ @@@@@@@@@@@@@  ",
"  @@@@@@@ +++ @@@@@@@@@@@@@@@@ +++ @@@@@@@@@@@@@@@@@ +++ @@@@@ +++ @@@@@@@@@@@@@ +++ @@@@@@@@@@@@@  ",
"  @@@@@@@ +++ @@@@@@@@@@@@@@@@ +++ @@@@@@@@@@@@@@@@@ +++ @@@@@ +++ @@@@@@@@@@@@@ +++ @@@@@@@@@@@@@  ",
"  @@@@@@@ +++ @@@@@@@@@@@@@@@@ +++ @@@@@@@@@@@@@@@@@ +++ @@@@@ +++ @@@@@@@@@@@@@ +++ @@@@@@@@@@@@@  ",
"  @@@@@@@ +++ @@@@@@@@@@@@@@@@ +++           @@@@@@@ +++ @@@@@ +++ @@@@@@@@@@@@@ +++ @@@@@@@@@@@@@  ",
"  @@@@@@@ +++ @@@@@@@@@@@@@@@@ +++++++++++++ @@@@@@@ +++ @@@@@ +++ @@@@@@@@@@@@@ +++ @@@@@@@@@@@@@  ",
"  @@@@@@@ +++ @@@@@@@@@@@@@@@@ +++++++++++++ @@@@@@@ +++ @@@@@ +++ @@@@@@@@@@@@@ +++ @@@@@@@@@@@@@  ",
"  @@@@@@@ +++ @@@@@@@@@@@@@@@@ +++++++++++++ @@@@@@@ +++ @@@@@ +++ @@@@@@@@@@@@@ +++ @@@@@@@@@@@@@  ",
"  @@@@@@@     @@@@@@@@@@@@@@@@               @@@@@@@     @@@@@     @@@@@@@@@@@@@@   @@@@@@@@@@@@@@  ",
"  @@@@@@@@@@@@@@@@@@@@@@@@@@@@@@@@@@@@@@@@@@@@@@@@@@@@@@@@@@@@@@@@@@@@@@@@@@@@@@@@@@@@@@@@@@@@@@@@  ",
"  @@@@@@@@@@@@@@@@@@@@@@@@@@@@@@@@@@@@@@@@@@@@@@@@@@@@@@@@@@@@@@@@@@@@@@@@@@@@@@@@@@@@@@@@@@@@@@@@  ",
"  @@@@@@@@@@@@@@@@@@@@@@@@@@@@@@@@@@@@@@@@@@@@@@@@@@@@@@@@@@@@@@@@@@@@@@@@@@@@@@@@@@@@@@@@@@@@@@@@  ",
"  @@@@@@@@@@@@@@@@@@@@@@@@@@@@@@@@@@@@@@@@@@@@@@@@@@@@@@@@@@@@@@@@@@@@@@@@@@@@@@@@@@@@@@@@@@@@@@@@  ",
"  @@@@@@@@@@@@@@@@@@@@@@@@@@@@@@@@@@@@@@@@@@@@@@@@@@@@@@@@@@@@@@@@@@@@@@@@@@@@@@@@@@@@@@@@@@@@@@@@  ",
"  @@@@@@@@@@@@@@@@@@@@@@@@@@@@@@@@@@@@@@@@@@@@@@@@@@@@@@@@@@@@@@@@@@@@@@@@@@@@@@@@@@@@@@@@@@@@@@@@  ",
"  @@@@@@@@@@@@@@@@@@@@@@@@@@@@@@@@@@@@@@@@@@@@@@@@@@@@@@@@@@@@@@@@@@@@@@@@@@@@@@@@@@@@@@@@@@@@@@@@  ",
"  @@@@@@@@@@@@@@@@@@@@@@@@@@@@@@@@@@@@@@@@@@@@@@@@@@@@@@@@@@@@@@@@@@@@@@@@@@@@@@@@@@@@@@@@@@@@@@@@  ",
"  @@@@@@@@@@@@@@@@@@@@@@@@@@@@@@@@@@@@@@@@@@@@@@@@@@@@@@@@@@@@@@@@@@@@@@@@@@@@@@@@@@@@@@@@@@@@@@@@  ",
"  @@@@@@@@@@@@@@@@@@@@@@@@@@@@@@@@@@@@@@@@@@@@@@@@@@@@@@@@@@@@@@@@@@@@@@@@@@@@@@@@@@@@@@@@@@@@@@@@  ",
"                                                                                                    ",
"                                                                                                    "
};
