/* XPM */
static char *play_again_button_xpm[] = {
/* columns rows colors chars-per-pixel */
"100 50 5 1 ",
"  c #000000",
". c #020202",
"X c #0A113E",
"o c #2641EA",
"O c #FFFFFF",
/* pixels */
"                                                                                                    ",
"                             .......           .................................................... ",
"  OOOOOOOOOOOOOOOOOOOOOOOOOOOOOOOOOOOOOOOOOOOOOOOOOOOOOOOOOOOOOOOOOOOOOOOOOOOOOOOOOOOOOOOOOOOOOOOO. ",
"  OOOOOOOOOOOOOOOOOOOOOOOOOOOOOOOOOOOOOOOOOOOOOOOOOOOOOOOOOOOOOOOOOOOOOOOOOOOOOOOOOOOOOOOOOOOOOOOO. ",
"  OOOOOOOOOOOOOOOOOOOOOOOOOOOOOOOOOOOOOOOOOOOOOOOOOOOOOOOOOOOOOOOOOOOOOOOOOOOOOOOOOOOOOOOOOOOOOOOO. ",
"  OOOOOOOOOOOOOOOOOOOOOOOOOOOOOOOOOOOOOOOOOOOOOOOOOOOOOOOOOOOOOOOOOOOOOOOOOOOOOOOOOOOOOOOOOOOOOOOO. ",
"  OOOOOOOOOOOOOOOOOOOOOOOOOOOOOOOOOOOOOOOOOOOOOOOOOOOOOOOOOOOOOOOOOOOOOOOOOOOOOOOOOOOOOOOOOOOOOOOO. ",
"  OOOOOOOOOOOOOOOOOOOOOOOOOOOOOOOOOOOOOOOOOOOOOOOOOOOOOOOOOOOOOOOOOOOOOOOOOOOOOOOOOOOOOOOOOOOOOOOO. ",
"  OOOOOOOOOOOOOOOOOOOOOOOOOOOOOOOOOOOOOOOOOOOOOOOOOOOOOOOOOOOOOOOOOOOOOOOOOOOOOOOOOOOOOOOOOOOOOOOO. ",
"  OOOOOOOOOOOOOOOOOOOOOOOO          OO    OOOOOOOOXXXXXXXXXXOO    OO    OOOOOOOOOOOOOOOOOOOOOOOOOO. ",
"  OOOOOOOOOOOOOOOOOOOOOOOO oooooooo OO oo OOOOOOOOXooooooooXOO oo OO oo OOOOOOOOOOOOOOOOOOOOOOOOOO. ",
"  OOOOOOOOOOOOOOOOOOOOOOOO oooooooo OO oo OOOOOOOOXooooooooXOO oo OO oo OOOOOOOOOOOOOOOOOOOOOOOOOO. ",
"  OOOOOOOOOOOOOOOOOOOOOOOO oo    oo OO oo OOOOOOOOXoooXXoooXOO oo OO oo OOOOOOOOOOOOOOOOOOOOOOOOOO. ",
"  OOOOOOOOOOOOOOOOOOOOOOOO oo OOO o OO oo OOOOOOOOXooXOOXooXOO oo OO oo OOOOOOOOOOOOOOOOOOOOOOOOOO. ",
"  OOOOOOOOOOOOOOOOOOOOOOOO oo OOO o OO oo OOOOOOOOXooXOOXooXOO oo OO oo OOOOOOOOOOOOOOOOOOOOOOOOOO. ",
"  OOOOOOOOOOOOOOOOOOOOOOOO oo    oo OO oo OOOOOOOOXooXXXXooXOOO oo  oo OOOOOOOOOOOOOOOOOOOOOOOOOOO. ",
"  OOOOOOOOOOOOOOOOOOOOOOOO oooooooo OO oo OOOOOOOOXooooooooXOOO oooooo OOOOOOOOOOOOOOOOOOOOOOOOOOO. ",
"  OOOOOOOOOOOOOOOOOOOOOOOO oooooooo OO oo OOOOOOOOXooooooooXOOOO oooo OOOOOOOOOOOOOOOOOOOOOOOOOOOO. ",
" .OOOOOOOOOOOOOOOOOOOOOOOO oo       OO oo OOOOOOOOXooXXXXooXOOOO oooo OOOOOOOOOOOOOOOOOOOOOOOOOOOO. ",
" .OOOOOOOOOOOOOOOOOOOOOOOO oo OOOOOOOO oo OOOOOOOOXooXOOXooXOOOOO oo OOOOOOOOOOOOOOOOOOOOOOOOOOOOO. ",
" .OOOOOOOOOOOOOOOOOOOOOOOO oo OOOOOOOO oo       OOXooXOOXooXOOOOO oo OOOOOOOOOOOOOOOOOOOOOOOOOOOOO. ",
" .OOOOOOOOOOOOOOOOOOOOOOOO oo OOOOOOOO oooooooo OOXooXOOXooXOOOOO oo OOOOOOOOOOOOOOOOOOOOOOOOOOOOO. ",
" .OOOOOOOOOOOOOOOOOOOOOOOO oo OOOOOOOO oooooooo OOXooXOOXooXOOOOO oo OOOOOOOOOOOOOOOOOOOOOOOOOOOOO. ",
" .OOOOOOOOOOOOOOOOOOOOOOOO    OOOOOOOO          OOXXXXOOXXXXOOOOO    OOOOOOOOOOOOOOOOOOOOOOOOOOOOO. ",
" .OOOOOOOOOOOOOOOOOOOOOOOOOOOOOOOOOOOOOOOOOOOOOOOOOOOOOOOOOOOOOOOOOOOOOOOOOOOOOOOOOOOOOOOOOOOOOOOO. ",
" .OOOOOOOOOOOOOOOOOOOOOOOOOOOOOOOOOOOOOOOOOOOOOOOOOOOOOOOOOOOOOOOOOOOOOOOOOOOOOOOOOOOOOOOOOOOOOOOO. ",
" .OOOOOOOOOOOOOOOOOOOOOOOOOOOOOOOOOOOOOOOOOOOOOOOOOOOOOOOOOOOOOOOOOOOOOOOOOOOOOOOOOOOOOOOOOOOOOOOO. ",
" .OOOOOOOOOOOOOOOOOOO  XXXXXXXXOOXXXXXXXXXXOOXXXXXXXXXXOO          OO    OO    OOOOOOOOOOOOOOOOOOO. ",
" .OOOOOOOOOOOOOOOOOOO ooooooooXOOXooooooooXOOXooooooooXOO oooooooo OO oo OO oo OOOOOOOOOOOOOOOOOOO. ",
" .OOOOOOOOOOOOOOOOOOO ooooooooXOOXooooooooXOOXooooooooXOO oooooooo OO oo OO oo OOOOOOOOOOOOOOOOOOO. ",
" .OOOOOOOOOOOOOOOOOOOXoooXXoooXOOXooXXXXXXXOOXoooXXoooXOO    oo    OO oo OO oo OOOOOOOOOOOOOOOOOOO. ",
" .OOOOOOOOOOOOOOOOOOOXooXOOXooXOOXooXOOOOOOOOXooXOOXooXOOOOO oo OOOOO ooo O oo OOOOOOOOOOOOOOOOOOO. ",
" .OOOOOOOOOOOOOOOOOOOXooXOOXooXOOXooXOOOOOOOOXooXOOXooXOOOOO oo OOOOO ooo O oo OOOOOOOOOOOOOOOOOOO. ",
" .OOOOOOOOOOOOOOOOOOOXooXXXXooXOOXooXOXXXXXOOXooXXXXooXOOOOO oo OOOOO oooo  oo OOOOOOOOOOOOOOOOOOO. ",
" .OOOOOOOOOOOOOOOOOOOXooooooooXOOXooXOXoooXOOXooooooooXOOOOO oo OOOOO oooooooo OOOOOOOOOOOOOOOOOOO. ",
" .OOOOOOOOOOOOOOOOOOOXooooooooXOOXooXOXXooXOOXooooooooXOOOOO oo OOOOO oooooooo OOOOOOOOOOOOOOOOOOO. ",
" .OOOOOOOOOOOOOOOOOOOXooXXXXooXOOXooXOOXooXOOXooXXXXooXOOOOO oo OOOOO oo  oooo OOOOOOOOOOOOOOOOOOO. ",
" .OOOOOOOOOOOOOOOOOOOXooXOOXooXOOXooXOOXooXOOXooXOOXooXOOOOO oo OOOOO oo O ooo OOOOOOOOOOOOOOOOOOO. ",
" .OOOOOOOOOOOOOOOOOOOXooXOOXooXOOXooXXXXooXOOXooXOOXooXOO    oo    OO oo OO oo OOOOOOOOOOOOOOOOOOO. ",
" .OOOOOOOOOOOOOOOOOOOXooXOOXooXOOXooooooooXOOXooXOOXooXOO oooooooo OO oo OO oo OOOOOOOOOOOOOOOOOOO. ",
" .OOOOOOOOOOOOOOOOOOOXooXOOXooXOOXooooooooXOOXooXOOXooXOO oooooooo OO oo OO oo OOOOOOOOOOOOOOOOOOO. ",
" .OOOOOOOOOOOOOOOOOOOXXXXOOXXXXOOXXXXXXXXXXOOXXXXOOXXXXOO          OO    OO    OOOOOOOOOOOOOOOOOOO. ",
" .OOOOOOOOOOOOOOOOOOOOOOOOOOOOOOOOOOOOOOOOOOOOOOOOOOOOOOOOOOOOOOOOOOOOOOOOOOOOOOOOOOOOOOOOOOOOOOOO. ",
" .OOOOOOOOOOOOOOOOOOOOOOOOOOOOOOOOOOOOOOOOOOOOOOOOOOOOOOOOOOOOOOOOOOOOOOOOOOOOOOOOOOOOOOOOOOOOOOOO. ",
" .OOOOOOOOOOOOOOOOOOOOOOOOOOOOOOOOOOOOOOOOOOOOOOOOOOOOOOOOOOOOOOOOOOOOOOOOOOOOOOOOOOOOOOOOOOOOOOOO. ",
" .OOOOOOOOOOOOOOOOOOOOOOOOOOOOOOOOOOOOOOOOOOOOOOOOOOOOOOOOOOOOOOOOOOOOOOOOOOOOOOOOOOOOOOOOOOOOOOOO. ",
" .OOOOOOOOOOOOOOOOOOOOOOOOOOOOOOOOOOOOOOOOOOOOOOOOOOOOOOOOOOOOOOOOOOOOOOOOOOOOOOOOOOOOOOOOOOOOOOOO. ",
" .OOOOOOOOOOOOOOOOOOOOOOOOOOOOOOOOOOOOOOOOOOOOOOOOOOOOOOOOOOOOOOOOOOOOOOOOOOOOOOOOOOOOOOOOOOOOOOOO. ",
" .................................................................................................. ",
"                                                                                                    "
};
