/* XPM */
static char *quit_button_xpm[] = {
/* columns rows colors chars-per-pixel */
"100 50 7 1 ",
"  c #000000",
"o c #008309",
"O c #088711",
"+ c #F7FBF7",
"@ c #FCFCFC",
"# c #FFFEFC",
"$ c #FFFFFF",
/* pixels */
"                                                                                                    ",
"                                                                                                    ",
"  $$$$$$$$$$$$$$$$$$$$$$$$$$$$$$$$$$$$$$$$$$$$$$$$$$$$$$$$$$$$$$$$$$$$$$$$$$$$$$$$$$$$$$$$$$$$$$$$  ",
"  $$$$$$$$$$$$$$$$$$$$$$$$$$$$$$$$$$$$$$$$$$$$$$$$$$$$$$$$$$$$$$$$$$$$$$$$$$$$$$$$$$$$$$$$$$$$$$$$  ",
"  $$$$$$$$$$$$$$$$$$$$$$$$$$$$$$$$$$$$$$$$$$$$$$$$$$$$$$$$$$$$$$$$$$$$$$$$$$$$$$$$$$$$$$$$$$$$$$$$  ",
"  $$$$$$$$$$$$$$$$$$$$$$$$$$$$$$$$$$$$$$$$$$$$$$$$$$$$$$$$$$$$$$$$$$$$$$$$$$$$$$$$$$$$$$$$$$$$$$$$  ",
"  $$$$$$$$$$$$$$$$$$$$$$$$$$$$$$$$$$$$$$$$$$$$$$$$$$$$$$$$$$$$$$$$$$$$$$$$$$$$$$$$$$$$$$$$$$$$$$$$  ",
"  $$$$$$$$$$$$$$$$$$$$$$$$$$$$$$$$$$$$$$$$$$$$$$$$$$$$$$$$$$$$$$$$$$$$$$$$$$$$$$$$$$$$$$$$$$$$$$$$  ",
"  $$$$$$$$$$$$$$$$$$$$$$$$$$$$$$$$$$$$$$$$$$$$$$$$$$$$$$$$$$$$$$$$$$$$$$$$$$$$$$$$$$$$$$$$$$$$$$$$  ",
"  $$$$$$$$$$$$$$$$$$$$$$$$$$$$$$$$$$$$$$$$$$$$$$$$$$$$$$$$$$$$$$$$$$$$$$$$$$$$$$$$$$$$$$$$$$$$$$$$  ",
"  $$$$$$$$$$$$$$$$$$$$$$$$$$$$$$$$$$$$$$$$$$$$$$$$$$$$$$$$$$$$$$$$$$$$$$$$$$$$$$$$$$$$$$$$$$$$$$$$  ",
"  $$$$$$$$$$$$$$$$$$$$$$$$$$$$$$$$$$$$$$$$$$$$$$$$$$$$$$$$$$$$$$$$$$$$$$$$$$$$$$$$$$$$$$$$$$$$$$$$  ",
"  $$$$$$$$$$               $$$$$$$$     $$$$$     $$$$$$               $$$$               $$$$$$$$  ",
"  $$$$$$$$$$ oooOOOOOOOooo $$$$$$$$ OOO $$$$$ OOO $$$$$$ OOoOoOoOoOoOO $$$$ OOOOOoOoOOOOO $$$$$$$$  ",
"  $$$$$$$$$$ oooOOOOOOOooo $$$$$$$$ OOO $$$$$ OOO $$$$$$ OOoOoOoOoOoOO $$$$ OOOOOoOoOOOOO $$$$$$$$  ",
"  $$$$$$$$$$ oooOOOOOOOooo $$$$$$$$ OOO $$$$$ OOO $$$$$$ OOoOoOoOoOoOO $$$$ OOOOOoOoOOOOO $$$$$$$$  ",
"  $$$$$$$$$$ OOO       OOO $$$$$$$$ OOO $$$$$ OOO $$$$$$      OOO      $$$$      OOO      $$$$$$$$  ",
"  $$$$$$$$$$ OOO $$$$$ OOO $$$$$$$$ OOO $$$$$ OOO $$$$$$$###$ ooo $###$$$$$$###$ OOO $###$$$$$$$$$  ",
"  $$$$$$$$$$ OOO $$$$$ OOO $$$$$$$$ OOO $$$$$ OOO $$$$$$$###$ ooo $###$$$$$$###$ OOO $###$$$$$$$$$  ",
"  $$$$$$$$$$ OOO $$$$$ OOO $$$$$$$$ OOO $$$$$ OOO $$$$$$$###$ ooo $###$$$$$$###$ OOO $###$$$$$$$$$  ",
"  $$$$$$$$$$ OOO $$$$$ OOO $$$$$$$$ OOO $$$$$ OOO $$$$$$$##$$ OOO $###$$$$$$##$$ OOO $###$$$$$$$$$  ",
"  $$$$$$$$$$ OOO $$$$$ OOO $$$$$$$$ OOO $$$$$ OOO $$$$$$$##$$ ooo $###$$$$$$##$$ ooo $###$$$$$$$$$  ",
"  $$$$$$$$$$ OOO @@@@@ OOO $$$$$$$$ OOO @@@@@ OOO $$$$$$$##$$ OOO $###$$$$$$##$$ OOO $###$$$$$$$$$  ",
"  $$$$$$$$$$ OOO $$$$$ OOO $$$$$$$$ OOO $$$$$ OOO $$$$$$$$$$$ ooo $$$$$$$$$$$$$$ ooo $$$$$$$$$$$$$  ",
"  $$$$$$$$$$ OOO $$$$$ OOO $$$$$$$$ OOO $$$$$ OOO $$$$$$$$$$$ OOO $$$$$$$$$$$$$$ OOO $$$$$$$$$$$$$  ",
"  $$$$$$$$$$ OOO $$$$$ OOO $$$$$$$$ OOO $$$$$ OOO $$$$$$$$$$$ ooo $$$$$$$$$$$$$$ ooo $$$$$$$$$$$$$  ",
"  $$$$$$$$$$ OOO @@@@@ OOO $$$$$$$$ OOO @@@@@ OOO $$$$$$$##$$ ooo $###$$$$$$##$$ OOO $###$$$$$$$$$  ",
"  $$$$$$$$$$ OOO $$$$$ OOO $$$$$$$$ OOO $$$$$ OOO $$$$$$$##$$ ooo $###$$$$$$##$$ OOO $###$$$$$$$$$  ",
"  $$$$$$$$$$ OOO $$$$$ OOO $$$$$$$$ OOO $$$$$ OOO $$$$$$$##$$ ooo $###$$$$$$##$$ ooo $###$$$$$$$$$  ",
"  $$$$$$$$$$ OOO $$$$$ OOO $$$$$$$$ OOO $$$$$ OOO $$$$$$$##$$ OOO $###$$$$$$##$$ OOO $###$$$$$$$$$  ",
"  $$$$$$$$$$ OOO $$$$$ OOO $$$$$$$$ OOO $$$$$ OOO $$$$$$$###$ ooo $###$$$$$$###$ ooo $###$$$$$$$$$  ",
"  $$$$$$$$$$ OOO $$$$   OO $$$$$$$$ OOO $$$$$ OOO $$$$$$$###$ ooo $$##$$$$$$###$ OOO $$##$$$$$$$$$  ",
"  $$$$$$$$$$ OOO      ++ O $$$$$$$$ OOO       OOO $$$$$$      ooo      $$$$$$$$$ OOO $$$$$$$$$$$$$  ",
"  $$$$$$$$$$ oooOOOOO OO+  $$$$$$$$ oooOOOOOOOoOO $$$$$$ OOooooooOoooO $$$$$$##@ ooo $##$$$$$$$$$$  ",
"  $$$$$$$$$$ oooOOOOOO OOO  $$$$$$$ oooOOOOOOOoOO $$$$$$ OOooooooOoooO $$$$$$##@ OOO $$$$$$$$$$$$$  ",
"  $$$$$$$$$$ oooOOOOOOO OOO  $$$$$$ oooOOOOOOOoOO $$$$$$ OOooooOoOoooO $$$$$$##@ OOO @$$$$$$$$$$$$  ",
"  $$$$$$$$$$             OOO  $$$$$               $$$$$$               $$$$$$$$$     $$$$$$$$$$$$$  ",
"  $$$$$$$$$$$$$$$$$$$$$$$     $$$$$$$$$$$$$$$$$$$$$$$$$$$$$$$$$$$$$$$$$$$$$$$$$$$$$$$$$$$$$$$$$$$$  ",
"  $$$$$$$$$$$$$$$$$$$$$$$$$$$$$$$$$$$$$$$$$$$$$$$$$$$$$$$$$$$$$$$$$$$$$$$$$$$$$$$$$$$$$$$$$$$$$$$$  ",
"  $$$$$$$$$$$$$$$$$$$$$$$$$$$$$$$$$$$$$$$$$$$$$$$$$$$$$$$$$$$$$$$$$$$$$$$$$$$$$$$$$$$$$$$$$$$$$$$$  ",
"  $$$$$$$$$$$$$$$$$$$$$$$$$$$$$$$$$$$$$$$$$$$$$$$$$$$$$$$$$$$$$$$$$$$$$$$$$$$$$$$$$$$$$$$$$$$$$$$$  ",
"  $$$$$$$$$$$$$$$$$$$$$$$$$$$$$$$$$$$$$$$$$$$$$$$$$$$$$$$$$$$$$$$$$$$$$$$$$$$$$$$$$$$$$$$$$$$$$$$$  ",
"  $$$$$$$$$$$$$$$$$$$$$$$$$$$$$$$$$$$$$$$$$$$$$$$$$$$$$$$$$$$$$$$$$$$$$$$$$$$$$$$$$$$$$$$$$$$$$$$$  ",
"  $$$$$$$$$$$$$$$$$$$$$$$$$$$$$$$$$$$$$$$$$$$$$$$$$$$$$$$$$$$$$$$$$$$$$$$$$$$$$$$$$$$$$$$$$$$$$$$$  ",
"  $$$$$$$$$$$$$$$$$$$$$$$$$$$$$$$$$$$$$$$$$$$$$$$$$$$$$$$$$$$$$$$$$$$$$$$$$$$$$$$$$$$$$$$$$$$$$$$$  ",
"  $$$$$$$$$$$$$$$$$$$$$$$$$$$$$$$$$$$$$$$$$$$$$$$$$$$$$$$$$$$$$$$$$$$$$$$$$$$$$$$$$$$$$$$$$$$$$$$$  ",
"  $$$$$$$$$$$$$$$$$$$$$$$$$$$$$$$$$$$$$$$$$$$$$$$$$$$$$$$$$$$$$$$$$$$$$$$$$$$$$$$$$$$$$$$$$$$$$$$$  ",
"  $$$$$$$$$$$$$$$$$$$$$$$$$$$$$$$$$$$$$$$$$$$$$$$$$$$$$$$$$$$$$$$$$$$$$$$$$$$$$$$$$$$$$$$$$$$$$$$$  ",
"                                                                                                    ",
"                                                                                                    "
};
