/* XPM */
static char *resume_button_xpm[] = {
/* columns rows colors chars-per-pixel */
"100 50 4 1 ",
"  c #000000",
". c #020202",
"X c #F82885",
"o c #FFFFFF",
/* pixels */
"                                                                                                    ",
"                             .......           .................................................... ",
"  oooooooooooooooooooooooooooooooooooooooooooooooooooooooooooooooooooooooooooooooooooooooooooooooo. ",
"  oooooooooooooooooooooooooooooooooooooooooooooooooooooooooooooooooooooooooooooooooooooooooooooooo. ",
"  oooooooooooooooooooooooooooooooooooooooooooooooooooooooooooooooooooooooooooooooooooooooooooooooo. ",
"  oooooooooooooooooooooooooooooooooooooooooooooooooooooooooooooooooooooooooooooooooooooooooooooooo. ",
"  oooooooooooooooooooooooooooooooooooooooooooooooooooooooooooooooooooooooooooooooooooooooooooooooo. ",
"  oooooooooooooooooooooooooooooooooooooooooooooooooooooooooooooooooooooooooooooooooooooooooooooooo. ",
"  oooooooooooooooooooooooooooooooooooooooooooooooooooooooooooooooooooooooooooooooooooooooooooooooo. ",
"  oooooooooooooooooooooooooooooooooooooooooooooooooooooooooooooooooooooooooooooooooooooooooooooooo. ",
"  oooooooooooooooooooooooooooooooooooooooooooooooooooooooooooooooooooooooooooooooooooooooooooooooo. ",
"  oooooooooooooooooooooooooooooooooooooooooooooooooooooooooooooooooooooooooooooooooooooooooooooooo. ",
"  oooooooooooooooooooooooooooooooooooooooooooooooooooooooooooooooooooooooooooooooooooooooooooooooo. ",
"  oooooooooooooooooooooooooooooooooooooooooooooooooooooooooooooooooooooooooooooooooooooooooooooooo. ",
"  oooooooooooooooooooooooooooooooooooooooooooooooooooooooooooooooooooooooooooooooooooooooooooooooo. ",
"  oooooooooooooooooooooooooooooooooooooooooooooooooooooooooooooooooooooooooooooooooooooooooooooooo. ",
"  oooooooooooooooooooooooooooooooooooooooooooooooooooooooooooooooooooooooooooooooooooooooooooooooo. ",
"  ooooooooo          oo          oo          oo    oo    oo      ooooo      oo          oooooooooo. ",
" .ooooooooo XXXXXXXX oo XXXXXXXX oo XXXXXXXX oo XX oo XX oo XXXXX ooo XXXXX oo XXXXXXXX oooooooooo. ",
" .ooooooooo XXXXXXXX oo XXXXXXXX oo XXXXXXXX oo XX oo XX oo XXXXX ooo XXXXX oo XXXXXXXX oooooooooo. ",
" .ooooooooo XX   XXX oo XX       oo XX       oo XX oo XX oo XXXXXX o XXXXXX oo XX       oooooooooo. ",
" .ooooooooo XX oo XX oo XX oooooooo XX oooooooo XX oo XX oo XX  XXX XXX  XX oo XX oooooooooooooooo. ",
" .ooooooooo XX oo XX oo XX     oooo XX oooooooo XX oo XX oo XX o XXXXX o XX oo XX     oooooooooooo. ",
" .ooooooooo XX   XXX oo XXXXXX oooo XX       oo XX oo XX oo XX o XXXXX o XX oo XXXXXX oooooooooooo. ",
" .ooooooooo XXXXXXXX oo XXXXXX oooo XXXXXXXX oo XX oo XX oo XX oo XXX oo XX oo XXXXXX oooooooooooo. ",
" .ooooooooo XXXXXXXX oo XX     oooo XXXXXXXX oo XX oo XX oo XX oo XXX oo XX oo XX     oooooooooooo. ",
" .ooooooooo XX   XX ooo XX oooooooo       XX oo XX oo XX oo XX ooo X ooo XX oo XX oooooooooooooooo. ",
" .ooooooooo XX o XX ooo XX oooooooooooooo XX oo XX oo XX oo XX ooo X ooo XX oo XX oooooooooooooooo. ",
" .ooooooooo XX oo XX oo XX       oo       XX oo XX    XX oo XX oooo oooo XX oo XX       oooooooooo. ",
" .ooooooooo XX oo XX oo XXXXXXXX oo XXXXXXXX oo XXXXXXXX oo XX ooooooooo XX oo XXXXXXXX oooooooooo. ",
" .ooooooooo XX oo XX oo XXXXXXXX oo XXXXXXXX oo XXXXXXXX oo XX ooooooooo XX oo XXXXXXXX oooooooooo. ",
" .ooooooooo    oo    oo          oo          oo          oo    ooooooooo    oo          oooooooooo. ",
" .oooooooooooooooooooooooooooooooooooooooooooooooooooooooooooooooooooooooooooooooooooooooooooooooo. ",
" .oooooooooooooooooooooooooooooooooooooooooooooooooooooooooooooooooooooooooooooooooooooooooooooooo. ",
" .oooooooooooooooooooooooooooooooooooooooooooooooooooooooooooooooooooooooooooooooooooooooooooooooo. ",
" .oooooooooooooooooooooooooooooooooooooooooooooooooooooooooooooooooooooooooooooooooooooooooooooooo. ",
" .oooooooooooooooooooooooooooooooooooooooooooooooooooooooooooooooooooooooooooooooooooooooooooooooo. ",
" .oooooooooooooooooooooooooooooooooooooooooooooooooooooooooooooooooooooooooooooooooooooooooooooooo. ",
" .oooooooooooooooooooooooooooooooooooooooooooooooooooooooooooooooooooooooooooooooooooooooooooooooo. ",
" .oooooooooooooooooooooooooooooooooooooooooooooooooooooooooooooooooooooooooooooooooooooooooooooooo. ",
" .oooooooooooooooooooooooooooooooooooooooooooooooooooooooooooooooooooooooooooooooooooooooooooooooo. ",
" .oooooooooooooooooooooooooooooooooooooooooooooooooooooooooooooooooooooooooooooooooooooooooooooooo. ",
" .oooooooooooooooooooooooooooooooooooooooooooooooooooooooooooooooooooooooooooooooooooooooooooooooo. ",
" .oooooooooooooooooooooooooooooooooooooooooooooooooooooooooooooooooooooooooooooooooooooooooooooooo. ",
" .oooooooooooooooooooooooooooooooooooooooooooooooooooooooooooooooooooooooooooooooooooooooooooooooo. ",
" .oooooooooooooooooooooooooooooooooooooooooooooooooooooooooooooooooooooooooooooooooooooooooooooooo. ",
" .oooooooooooooooooooooooooooooooooooooooooooooooooooooooooooooooooooooooooooooooooooooooooooooooo. ",
" .oooooooooooooooooooooooooooooooooooooooooooooooooooooooooooooooooooooooooooooooooooooooooooooooo. ",
" .................................................................................................. ",
"                                                                                                    "
};
