/* XPM */
static char *waiting_opponent_xpm = {
/* columns rows colors chars-per-pixel */
"350 50 6 1 ",
"  c #000000",
". c #000100",
"X c #00FF68",
"o c #03FF6A",
"O c #FFFAFA",
"+ c #FFFFFF",
/* pixels */
"                                                                                                                                                                                                                                                                                                                                                              ",
"                                                                                                                                                                                                                                                                                                                                                              ",
"  ++++++++++++++++++++++++++++++++++++++++++++++++++++++++++++++++++++++++++++++++++++++++++++++++++++++++++++++++++++++++++++++++++++++++++++++++++++++++++++++++++++++++++++++++++++++++++++++++++++++++++++++++++++++++++++++++++++++++++++++++++++++++++++++++++++++++++++++++++++++++++++++++++++++++++++++++++++++++++++++++++++++++++++++++++++++++++  ",
"  ++++++++++++++++++++++++++++++++++++++++++++++++++++++++++++++++++++++++++++++++++++++++++++++++++++++++++++++++++++++++++++++++++++++++++++++++++++++++++++++++++++++++++++++++++++++++++++++++++++++++++++++++++++++++++++++++++++++++++++++++++++++++++++++++++++++++++++++++++++++++++++++++++++++++++++++++++++++++++++++++++++++++++++++++++++++++++  ",
"  ++++++++++++++++++++++++++++++++++++++++++++++++++++++++++++++++++++++++++++++++++++++++++++++++++++++++++++++++++++++++++++++++++++++++++++++++++++++++++++++++++++++++++++++++++++++++++++++++++++++++++++++++++++++++++++++++++++++++++++++++++++++++++++++++++++++++++++++++++++++++++++++++++++++++++++++++++++++++++++++++++++++++++++++++++++++++++  ",
"  ++++++++++++++++++++++++++++++++++++++++++++++++++++++++++++++++++++++++++++++++++++++++++++++++++++++++++++++++++++++++++++++++++++++++++++++++++++++++++++++++++++++++++++++++++++++++++++++++++++++++++++++++++++++++++++++++++++++++++++++++++++++++++++++++++++++++++++++++++++++++++++++++++++++++++++++++++++++++++++++++++++++++++++++++++++++++++  ",
"  ++++++++++++++++++++++++++++++++++++++++++++++++++++++++++++++++++++++++++++++++++++++++++++++++++++++++++++++++++++++++++++++++++++++++++++++++++++++++++++++++++++++++++++++++++++++++++++++++++++++++++++++++++++++++++++++++++++++++++++++++++++++++++++++++++++++++++++++++++++++++++++++++++++++++++++++++++++++++++++++++++++++++++++++++++++++++++  ",
"  ++++++++++++++++++++++++++++++++++++++++++++++++++++++++++++++++++++++++++++++++++++++++++++++++++++++++++++++++++++++++++++++++++++++++++++++++++++++++++++++++++++++++++++++++++++++++++++++++++++++++++++++++++++++++++++++++++++++++++++++++++++++++++++++++++++++++++++++++++++++++++++++++++++++++++++++++++++++++++++++++++++++++++++++++++++++++++  ",
"  ++++++++++++++++++++++++++++++++++++++++++++++++++++++++++++++++++++++++++++++++++++++++++++++++++++++++++++++++++++++++++++++++++++++++++++++++++++++++++++++++++++++++++++++++++++++++++++++++++++++++++++++++++++++++++++++++++++++++++++++++++++++++++++++++++++++++++++++++++++++++++++++++++++++++++++++++++++++++++++++++++++++++++++++++++++++++++  ",
"  ++++++++++++++++++++++++++++++++++++++++++++++++++++++++++++++++++++++++++++++++++++++++++++++++++++++++++++++++++++++++++++++++++++++++++++++++++++++++++++++++++++++++++++++++++++++++++++++++++++++++++++++++++++++++++++++++++++++++++++++++++++++++++++++++++++++++++++++++++++++++++++++++++++++++++++++++++++++++++++++++++++++++++++++++++++++++++  ",
"  ++++++++++++++++++++++++++++++++++++++++++++++++++++++++++++++++++++++++++++++++++++++++++++++++++++++++++++++++++++++++++++++++++++++++++++++++++++++++++++++++++++++++++++++++++++++++++++++++++++++++++++++++++++++++++++++++++++++++++++++++++++++++++++++++++++++++++++++++++++++++++++++++++++++++++++++++++++++++++++++++++++++++++++++++++++++++++  ",
"  ++++++++++++++++++++++++++++++++++++++++++++++++++++++++++++++++++++++++++++++++++++++++++++++++++++++++++++++++++++++++++++++++++++++++++++++++++++++++++++++++++++++++++++++++++++++++++++++++++++++++++++++++++++++++++++++++++++++++++++++++++++++++++++++++++++++++++++++++++++++++++++++++++++++++++++++++++++++++++++++++++++++++++++++++++++++++++  ",
"  +++++++    +++++++    +++.............++++++                ++                ++                ++     +++++     ++               +++++++++                ++                ++               ++++++++++                ++                ++                ++                ++     +++++     ++                ++ ....+++++.....++                ++++++  ",
"  +++++++ XX +++++++ XX ++.XXXXXXXXXXXXX.+++++ XXXXXXXXXXXXXX ++ XXXXXXXXXXXXXX ++ XXXXXXXXXXXXXX ++ XXX +++++ XXX ++ XXXXXXXXXXXXX +++++++++ XXXXXXXXXXXXXX ++ XXXXXXXXXXXXXX ++ XXXXXXXXXXXXX ++++++++++ XXXXXXXXXXXXXX ++ XXXXXXXXXXXXXX ++ XXXXXXXXXXXXXX ++ XXXXXXXXXXXXXX ++ XXX +++++ XXX ++ XXXXXXXXXXXXXX ++.XXX.+++++.XXX.++ oooooooooooooo ++++++  ",
"  +++++++ XX +++++++ XX ++.XXXXXXXXXXXXX.+++++ XXXXXXXXXXXXXX ++ XXXXXXXXXXXXXX ++ XXXXXXXXXXXXXX ++ XXXX ++++ XXX ++ XXXXXXXXXXXXX +++++++++ XXXXXXXXXXXXXX ++ XXXXXXXXXXXXXX ++ XXXXXXXXXXXXX ++++++++++ XXXXXXXXXXXXXX ++ XXXXXXXXXXXXXX ++ XXXXXXXXXXXXXX ++ XXXXXXXXXXXXXX ++ XXXX ++++ XXX ++ XXXXXXXXXXXXXX ++.XXXX.++++.XXX.++ oooooooooooooo ++++++  ",
"  +++++++ XX +++++++ XX ++.XXXXXXXXXXXXX.+++++ XXXXXXXXXXXXXX ++ XXXXXXXXXXXXXX ++ XXXXXXXXXXXXXX ++ XXXX ++++ XXX ++ XXXXXXXXXXXXX +++++++++ XXXXXXXXXXXXXX ++ XXXXXXXXXXXXXX ++ XXXXXXXXXXXXX ++++++++++ XXXXXXXXXXXXXX ++ XXXXXXXXXXXXXX ++ XXXXXXXXXXXXXX ++ XXXXXXXXXXXXXX ++ XXXX ++++ XXX ++ XXXXXXXXXXXXXX ++.XXXX.++++.XXX.++ oooooooooooooo ++++++  ",
"  +++++++ XX +++++++ XX ++.XXXX.....XXXX.+++++       XXX      ++       XXX      ++       XXX      ++ XXXXX +++ XXX ++ XXX           +++++++++ XXX            ++ XXX        XXX ++ XXX      XXXX ++++++++++ XXX        XXX ++ XXX       XXXX ++ XXX       XXXX ++ XXX        XXX ++ XXXXX +++ XXX ++ XXX            ++.XXXXX.+++.XXX.++       ooo      ++++++  ",
"  +++++++ XX +++ +++ XX ++.XXX.+++++.XXX.+++++++++++ XXX +++++++++++++ XXX +++++++++++++ XXX +++++++ XXXXX +++ XXX ++ XXX +++++++++++++++++++ XXX +++++++++++++ XXX ++++++ XXX ++ XXX +++++ XXX ++++++++++ XXX ++++++ XXX ++ XXX ++++++ XXX ++ XXX ++++++ XXX ++ XXX ++++++ XXX ++ XXXXX +++ XXX ++ XXX +++++++++++++.XXXXX.+++.XXX.++++++++ ooo +++++++++++  ",
"  +++++++ XX ++ X ++ XX ++.XXX.+++++.XXX.+++++++++++ XXX +++++++++++++ XXX +++++++++++++ XXX +++++++ XXXXXX ++ XXX ++ XXX +++++++++++++++++++ XXX +++++++++++++ XXX ++++++ XXX ++ XXX +++++ XXX ++++++++++ XXX ++++++ XXX ++ XXX ++++++ XXX ++ XXX ++++++ XXX ++ XXX ++++++ XXX ++ XXXXXX ++ XXX ++ XXX +++++++++++++.XXXXXX.++.XXX.++++++++ ooo +++++++++++  ",
"  +++++++ XX ++ X ++ XX ++.XXX.+++++.XXX.+++++++++++ XXX +++++++++++++ XXX +++++++++++++ XXX +++++++ XXXXXX ++ XXX ++ XXX +++++++++++++++++++ XXX +++++++++++++ XXX ++++++ XXX ++ XXX +++++ XXX ++++++++++ XXX ++++++ XXX ++ XXX ++++++ XXX ++ XXX ++++++ XXX ++ XXX ++++++ XXX ++ XXXXXX ++ XXX ++ XXX +++++++++++++.XXXXXX.++.XXX.++++++++ ooo +++++++++++  ",
"  +++++++ XX + XXX + XX ++.XXX.+++++.XXX.+++++++++++ XXX +++++++++++++ XXX +++++++++++++ XXX +++++++ XXXXXXX + XXX ++ XXX +++++++++++++++++++ XXX        ++++++ XXX ++++++ XXX ++ XXX +++++ XXX ++++++++++ XXX ++++++ XXX ++ XXX ++++++ XXX ++ XXX ++++++ XXX ++ XXX ++++++ XXX ++ XXXXXXX + XXX ++ XXX +++++++++++++.XXXXXXX.+.XXX.++++++++ ooo +++++++++++  ",
"  +++++++ XX + XXX + XX ++.XXX.+++++.XXX +++++++++++ XXX +++++++++++++ XXX +++++++++++++ XXX +++++++ XXXXXXX + XXX ++ XXX +++++++++++++++++++ XXXXXXXXXX ++++++ XXX ++++++ XXX ++ XXX      XXXX ++++++++++ XXX ++++++ XXX ++ XXX       XXXX ++ XXX       XXXX ++ XXX ++++++ XXX ++ XXXXXXX + XXX ++ XXX +++++++++++++.XXXXXXX.+.XXX.++++++++ ooo +++++++++++  ",
"  +++++++ XX + XXX + XX ++.XXX.+++++.XXX.+++++++++++ XXX +++++++++++++ XXX +++++++++++++ XXX +++++++ XXXXXXXX  XXX ++ XXX +++++++++++++++++++ XXXXXXXXXX ++++++ XXX ++++++ XXX ++ XXXXXXXXXXXXX ++++++++++ XXX ++++++ XXX ++ XXXXXXXXXXXXXX ++ XXXXXXXXXXXXXX ++ XXX ++++++ XXX ++ XXXXXXXX  XXX ++ XXX       +++++++.XXXXXXXX..XXX.++++++++ ooo +++++++++++  ",
"  +++++++ XX  XXXXX  XX ++.XXX.......XXX.+++++++++++ XXX +++++++++++++ XXX +++++++++++++ XXX +++++++ XXXXXXXXXXXXX ++ XXX +++       +++++++++ XXXXXXXXXX ++++++ XXX ++++++ XXX ++ XXXXXXXXXXXXX ++++++++++ XXX ++++++ XXX ++ XXXXXXXXXXXXXX ++ XXXXXXXXXXXXXX ++ XXX ++++++ XXX ++ XXXXXXXXXXXXX ++ XXXXXXXXX +++++++.XXXXXXXXXXXXX.++++++++ ooo +++++++++++  ",
"  +++++++ XXXXXXXXXXXXX ++.XXXXXXXXXXXXX.+++++++++++ XXX +++++++++++++ XXX +++++++++++++ XXX +++++++ XXX  XXXXXXXX ++ XXX +++ XXXXX +++++++++ XXX        ++++++ XXX ++++++ XXX ++ XXXXXXXXXXXXX ++++++++++ XXX ++++++ XXX ++ XXXXXXXXXXXXXX ++ XXXXXXXXXXXXXX ++ XXX ++++++ XXX ++ XXX  XXXXXXXX ++ XXXXXXXXX +++++++.XXX..XXXXXXXX.++++++++ ooo +++++++++++  ",
"  ++++++++ XXXXXXXXXXX +++.XXXXXXXXXXXXX.+++++++++++ XXX +++++++++++++ XXX +++++++++++++ XXX +++++++ XXX + XXXXXXX ++ XXX +++ XXXXX +++++++++ XXX +++++++++++++ XXX ++++++ XXX ++ XXX   XXX     ++++++++++ XXX ++++++ XXX ++ XXX            ++ XXX            ++ XXX ++++++ XXX ++ XXX + XXXXXXX ++ XXXXXXXXX +++++++.XXX.+.XXXXXXX.++++++++ ooo +++++++++++  ",
"  ++++++++ XXXXXXXXXXX +++.XXXXXXXXXXXXX.+++++++++++ XXX +++++++++++++ XXX +++++++++++++ XXX +++++++ XXX + XXXXXXX ++ XXX +++ XXXXX +++++++++ XXX +++++++++++++ XXX ++++++ XXX ++ XXX + XXX ++++++++++++++ XXX ++++++ XXX ++ XXX +++++++++++++ XXX +++++++++++++ XXX ++++++ XXX ++ XXX + XXXXXXX ++ XXX       +++++++.XXX.+.XXXXXXX.++++++++ ooo +++++++++++  ",
"  ++++++++ XXXXXXXXXXX +++.XXX.......XXX.+++++++++++ XXX +++++++++++++ XXX +++++++++++++ XXX +++++++ XXX ++ XXXXXX ++ XXX +++   XXX +++++++++ XXX +++++++++++++ XXX ++++++ XXX ++ XXX + XXX ++++++++++++++ XXX ++++++ XXX ++ XXX +++++++++++++ XXX +++++++++++++ XXX ++++++ XXX ++ XXX ++ XXXXXX ++ XXX +++++++++++++.XXX.++.XXXXXX.++++++++ ooo +++++++++++  ",
"  ++++++++ XXXXX XXXXX +++ XXX.+++++.XXX.+++++++++++ XXX +++++++++++++ XXX +++++++++++++ XXX +++++++ XXX ++ XXXXXX ++ XXX +++++ XXX +++++++++ XXX +++++++++++++ XXX ++++++ XXX ++ XXX ++ XXX +++++++++++++ XXX ++++++ XXX ++ XXX +++++++++++++ XXX +++++++++++++ XXX ++++++ XXX ++ XXX ++ XXXXXX ++ XXX +++++++++++++.XXX.++.XXXXXX.++++++++ ooo +++++++++++  ",
"  ++++++++ XXXX + XXXX +++.XXX.+++++.XXX.+++++++++++ XXX +++++++++++++ XXX +++++++++++++ XXX +++++++ XXX +++ XXXXX ++ XXX +++++ XXX +++++++++ XXX +++++++++++++ XXX ++++++ XXX ++ XXX ++ XXX +++++++++++++ XXX ++++++ XXX ++ XXX +++++++++++++ XXX +++++++++++++ XXX ++++++ XXX ++ XXX +++ XXXXX ++ XXX +++++++++++++.XXX.+++.XXXXX.++++++++ ooo +++++++++++  ",
"  ++++++++ XXXX + XXXX +++.XXX.+++++.XXX.+++++++++++ XXX +++++++++++++ XXX +++++++++++++ XXX +++++++ XXX +++ XXXXX ++ XXX +++++ XXX +++++++++ XXX +++++++++++++ XXX ++++++ XXX ++ XXX ++ XXXX ++++++++++++ XXX ++++++ XXX ++ XXX +++++++++++++ XXX +++++++++++++ XXX ++++++ XXX ++ XXX +++ XXXXX ++ XXX +++++++++++++.XXX.+++.XXXXX.++++++++ ooo +++++++++++  ",
"  ++++++++ XXXX + XXXX +++.XXX.+++++.XXX +++++++++++ XXX +++++++++++++ XXX +++++++++++++ XXX +++++++ XXX ++++ XXXX ++ XXX +++++ XXX +++++++++ XXX +++++++++++++ XXX ++++++ XXX ++ XXX +++ XXX ++++++++++++ XXX ++++++ XXX ++ XXX +++++++++++++ XXX +++++++++++++ XXX ++++++ XXX ++ XXX ++++ XXXX ++ XXX +++++++++++++.XXX.++++.XXXX.++++++++ ooo +++++++++++  ",
"  +++++++++ XX +++ XX ++++.XXX.+++++.XXX.+++++++++++ XXX +++++++++++++ XXX +++++++++++++ XXX +++++++ XXX ++++ XXXX ++ XXX +++++ XXX +++++++++ XXX +++++++++++++ XXX ++++++ XXX ++ XXX +++ XXXX +++++++++++ XXX ++++++ XXX ++ XXX +++++++++++++ XXX +++++++++++++ XXX ++++++ XXX ++ XXX ++++ XXXX ++ XXX +++++++++++++.XXX.++++.XXXX.++++++++ ooo +++++++++++  ",
"  +++++++++ XX +++ XX ++++.XXX.+++++.XXX +++++       XXX      ++++++++ XXX +++++++       XXX      ++ XXX ++++  XXX ++ XXX       XXX +++++++++ XXX +++++++++++++ XXX        XXX ++ XXX ++++ XXX +++++++++++ XXX        XXX ++ XXX +++++++++++++ XXX +++++++++++++ XXX        XXX ++ XXX ++++  XXX ++ XXX            ++.XXX.++++..XXX.++++++++ ooo +++++++++++  ",
"  +++++++++ XX +++ XX ++++.XXX.+++++.XXX.+++++ XXXXXXXXXXXXXX ++++++++ XXX +++++++ XXXXXXXXXXXXXX ++ XXX ++++O XXX ++ XXXXXXXXXXXXX +++++++++ XXX +++++++++++++ XXXXXXXXXXXXXX ++ XXX ++++ XXXX ++++++++++ XXXXXXXXXXXXXX ++ XXX +++++++++++++ XXX +++++++++++++ XXXXXXXXXXXXXX ++ XXX ++++O XXX ++ XXXXXXXXXXXXXX ++.XXX.++++O.XXX.++++++++ ooo +++++++++++  ",
"  +++++++++ XX +++ XX ++++.XXX.+++++.XXX.+++++ XXXXXXXXXXXXXX ++++++++ XXX +++++++ XXXXXXXXXXXXXX ++ XXX ++++O XXX ++ XXXXXXXXXXXXX +++++++++ XXX +++++++++++++ XXXXXXXXXXXXXX ++ XXX +++++ XXX ++++++++++ XXXXXXXXXXXXXX ++ XXX +++++++++++++ XXX +++++++++++++ XXXXXXXXXXXXXX ++ XXX ++++O XXX ++ XXXXXXXXXXXXXX ++.XXX.++++O.XXX.++++++++ ooo +++++++++++  ",
"  +++++++++ XX +++ XX ++++.XXX.+++++.XXX.+++++ XXXXXXXXXXXXXX ++++++++ XXX +++++++ XXXXXXXXXXXXXX ++ XXX ++++O XXX ++ XXXXXXXXXXXXX +++++++++ XXX +++++++++++++ XXXXXXXXXXXXXX ++ XXX +++++ XXX ++++++++++ XXXXXXXXXXXXXX ++ XXX +++++++++++++ XXX +++++++++++++ XXXXXXXXXXXXXX ++ XXX ++++O XXX ++ XXXXXXXXXXXXXX ++.XXX.++++O.XXX.++++++++ ooo +++++++++++  ",
"  ++++++++++  +++++  +++++.....+++++.....+++++                ++++++++     +++++++                ++     ++++O     ++               +++++++++     +++++++++++++                ++     +++++     ++++++++++                ++     +++++++++++++     +++++++++++++                ++     ++++O     ++                ++.....++++O.... ++++++++     +++++++++++  ",
"  ++++++++++++++++++++++++++++++++++++++++++++++++++++++++++++++++++++++++++++++++++++++++++++++++++++++++++++++++++++++++++++++++++++++++++++++++++++++++++++++++++++++++++++++++++++++++++++++++++++++++++++++++++++++++++++++++++++++++++++++++++++++++++++++++++++++++++++++++++++++++++++++++++++++++++++++++++++++++++++++++++++++++++++++++++++++++++  ",
"  ++++++++++++++++++++++++++++++++++++++++++++++++++++++++++++++++++++++++++++++++++++++++++++++++++++++++++++++++++++++++++++++++++++++++++++++++++++++++++++++++++++++++++++++++++++++++++++++++++++++++++++++++++++++++++++++++++++++++++++++++++++++++++++++++++++++++++++++++++++++++++++++++++++++++++++++++++++++++++++++++++++++++++++++++++++++++++  ",
"  ++++++++++++++++++++++++++++++++++++++++++++++++++++++++++++++++++++++++++++++++++++++++++++++++++++++++++++++++++++++++++++++++++++++++++++++++++++++++++++++++++++++++++++++++++++++++++++++++++++++++++++++++++++++++++++++++++++++++++++++++++++++++++++++++++++++++++++++++++++++++++++++++++++++++++++++++++++++++++++++++++++++++++++++++++++++++++  ",
"  ++++++++++++++++++++++++++++++++++++++++++++++++++++++++++++++++++++++++++++++++++++++++++++++++++++++++++++++++++++++++++++++++++++++++++++++++++++++++++++++++++++++++++++++++++++++++++++++++++++++++++++++++++++++++++++++++++++++++++++++++++++++++++++++++++++++++++++++++++++++++++++++++++++++++++++++++++++++++++++++++++++++++++++++++++++++++++  ",
"  ++++++++++++++++++++++++++++++++++++++++++++++++++++++++++++++++++++++++++++++++++++++++++++++++++++++++++++++++++++++++++++++++++++++++++++++++++++++++++++++++++++++++++++++++++++++++++++++++++++++++++++++++++++++++++++++++++++++++++++++++++++++++++++++++++++++++++++++++++++++++++++++++++++++++++++++++++++++++++++++++++++++++++++++++++++++++++  ",
"  ++++++++++++++++++++++++++++++++++++++++++++++++++++++++++++++++++++++++++++++++++++++++++++++++++++++++++++++++++++++++++++++++++++++++++++++++++++++++++++++++++++++++++++++++++++++++++++++++++++++++++++++++++++++++++++++++++++++++++++++++++++++++++++++++++++++++++++++++++++++++++++++++++++++++++++++++++++++++++++++++++++++++++++++++++++++++++  ",
"  ++++++++++++++++++++++++++++++++++++++++++++++++++++++++++++++++++++++++++++++++++++++++++++++++++++++++++++++++++++++++++++++++++++++++++++++++++++++++++++++++++++++++++++++++++++++++++++++++++++++++++++++++++++++++++++++++++++++++++++++++++++++++++++++++++++++++++++++++++++++++++++++++++++++++++++++++++++++++++++++++++++++++++++++++++++++++++  ",
"  ++++++++++++++++++++++++++++++++++++++++++++++++++++++++++++++++++++++++++++++++++++++++++++++++++++++++++++++++++++++++++++++++++++++++++++++++++++++++++++++++++++++++++++++++++++++++++++++++++++++++++++++++++++++++++++++++++++++++++++++++++++++++++++++++++++++++++++++++++++++++++++++++++++++++++++++++++++++++++++++++++++++++++++++++++++++++++  ",
"  ++++++++++++++++++++++++++++++++++++++++++++++++++++++++++++++++++++++++++++++++++++++++++++++++++++++++++++++++++++++++++++++++++++++++++++++++++++++++++++++++++++++++++++++++++++++++++++++++++++++++++++++++++++++++++++++++++++++++++++++++++++++++++++++++++++++++++++++++++++++++++++++++++++++++++++++++++++++++++++++++++++++++++++++++++++++++++  ",
"  ++++++++++++++++++++++++++++++++++++++++++++++++++++++++++++++++++++++++++++++++++++++++++++++++++++++++++++++++++++++++++++++++++++++++++++++++++++++++++++++++++++++++++++++++++++++++++++++++++++++++++++++++++++++++++++++++++++++++++++++++++++++++++++++++++++++++++++++++++++++++++++++++++++++++++++++++++++++++++++++++++++++++++++++++++++++++++  ",
"                                                                                                                                                                                                                                                                                                                                                              ",
"                                                                                                                                                                                                                                                                                                                                                              "
};
